<svg width="217" height="198" viewBox="0 0 217 198" fill="none" xmlns="http://www.w3.org/2000/svg">
<path d="M187.165 154.248L162.649 153.75L172.819 161.627L174.711 175.42L187.165 154.248Z" fill="url(#paint0_linear_309_15307)"/>
<path d="M176.559 159.346C176.713 159.466 176.474 159.774 175.997 160.39C175.519 161.007 174.649 161.812 173.66 162.771C172.516 163.611 171.133 164.759 169.324 165.823C167.514 166.886 165.276 167.865 162.73 168.606C161.398 169.053 160.031 169.226 158.509 169.281C156.988 169.335 155.466 169.39 153.756 169.051C153.483 169.086 153.329 168.966 153.055 169.001L152.782 169.036L152.508 169.071C152.354 168.951 152.081 168.986 151.927 168.867C151.773 168.747 151.499 168.782 151.345 168.663L150.917 168.578L150.49 168.494C150.336 168.374 150.062 168.409 149.908 168.29C149.754 168.17 149.481 168.205 149.327 168.086L149.018 167.847C148.864 167.727 148.864 167.727 148.71 167.608C148.556 167.489 148.283 167.524 148.129 167.404C147.974 167.285 147.82 167.165 147.547 167.2L147.239 166.961C147.085 166.842 147.085 166.842 146.93 166.723C146.776 166.603 146.622 166.484 146.349 166.519C146.195 166.399 146.041 166.28 145.887 166.161L145.578 165.922L145.27 165.683C145.116 165.564 144.962 165.445 144.654 165.206C144.5 165.087 144.346 164.967 144.037 164.728C143.267 164.132 142.496 163.535 141.999 162.903C141.845 162.784 141.691 162.665 141.383 162.426C141.075 162.187 141.075 162.187 140.767 161.949C140.458 161.71 140.115 161.198 139.807 160.959C139.156 160.208 138.505 159.457 138.008 158.826C137.357 158.075 136.979 157.289 136.447 156.384C134.355 153.038 132.655 149.502 131.349 145.778C131.09 144.839 130.524 143.66 130.077 142.328C129.629 140.995 128.993 139.27 128.477 137.39C127.841 135.665 127.016 133.547 126.191 131.429C125.366 129.31 124.114 127.108 122.707 124.786C122.364 124.273 122.021 123.761 121.524 123.13C121.181 122.618 120.684 121.986 120.222 121.628C120.068 121.509 119.914 121.389 119.76 121.27C119.606 121.151 119.452 121.031 119.298 120.912L119.143 120.793L118.989 120.673C118.835 120.554 118.681 120.434 118.527 120.315L118.373 120.196L118.219 120.076C118.065 119.957 117.911 119.838 117.757 119.718L117.602 119.599L117.14 119.241C116.986 119.122 116.832 119.002 116.678 118.883C115.599 118.047 114.247 117.247 112.895 116.446C111.423 115.799 110.106 115.272 108.515 114.779C108.361 114.66 108.088 114.695 107.934 114.575C107.779 114.456 107.506 114.491 107.352 114.371C106.924 114.287 106.497 114.202 106.069 114.118C105.915 113.998 105.642 114.033 105.368 114.068C105.13 114.376 104.975 114.256 104.702 114.291C104.429 114.326 104.274 114.207 104.001 114.241L103.728 114.276L103.454 114.311C101.779 114.246 99.9837 114.335 98.1889 114.424C96.5482 114.632 94.6687 115.149 92.9434 115.785C92.67 115.82 92.5506 115.974 92.2771 116.009L91.8843 116.198C91.765 116.352 91.6109 116.232 91.4915 116.386C91.6109 116.232 91.4915 116.386 91.2181 116.421C91.0987 116.575 90.8252 116.61 90.7059 116.764C90.3131 116.953 89.9203 117.142 89.5275 117.331C89.4081 117.485 89.1347 117.519 89.0153 117.674C88.8959 117.828 88.6225 117.862 88.5031 118.016C88.3838 118.171 88.1103 118.205 87.991 118.359C87.8716 118.514 87.5982 118.548 87.4788 118.702C87.3594 118.856 87.086 118.891 86.8473 119.199C86.7279 119.353 86.6086 119.508 86.2158 119.696C85.4649 120.348 84.8681 121.118 84.3907 121.734C83.7939 122.505 83.3165 123.121 82.8738 124.011C82.4311 124.901 82.1078 125.637 81.9385 126.492C81.8539 126.919 81.7693 127.347 81.6847 127.775L81.7195 128.048L81.7542 128.321C81.7889 128.595 81.6696 128.749 81.7043 129.022L81.7391 129.296L81.7738 129.569L81.8085 129.843C81.8085 129.843 81.8085 129.843 81.8433 130.116L81.878 130.39L81.9128 130.663L81.9475 130.937C81.9475 130.937 81.9475 130.937 82.1016 131.056C82.1363 131.329 82.2904 131.449 82.3252 131.722L82.3599 131.996L82.3947 132.269L82.5488 132.389C82.5488 132.389 82.5488 132.389 82.7029 132.508L82.7376 132.781C82.7376 132.781 82.8917 132.901 83.0458 133.02C83.1999 133.139 83.1999 133.139 83.354 133.259C83.5081 133.378 83.6622 133.497 83.6969 133.771C84.194 134.402 84.9297 134.726 85.8196 135.168C86.5553 135.492 87.5645 135.78 88.539 135.796C89.5134 135.811 90.4879 135.826 91.4624 135.841C92.5562 135.702 93.4959 135.444 94.4356 135.185C94.7091 135.151 94.8284 134.996 95.1019 134.962C95.2212 134.808 95.3754 134.927 95.4947 134.773L95.6141 134.619L95.7334 134.465C96.0069 134.43 96.1262 134.276 96.519 134.087L96.6384 133.933L96.7578 133.779L97.1506 133.59C98.0555 133.058 98.9605 132.526 99.8307 131.721C99.9501 131.567 100.343 131.378 100.462 131.224C100.582 131.07 100.582 131.07 100.701 130.916L100.94 130.608C101.059 130.454 101.298 130.145 101.571 130.111C101.691 129.957 101.929 129.648 102.049 129.494C102.168 129.34 102.168 129.34 102.287 129.186L102.526 128.878C102.645 128.724 102.884 128.416 103.004 128.262C103.123 128.107 103.362 127.799 103.481 127.645C103.6 127.491 103.6 127.491 103.72 127.337L103.958 127.029C104.078 126.875 104.316 126.566 104.436 126.412C104.555 126.258 104.794 125.95 104.759 125.677C104.878 125.522 104.878 125.522 104.998 125.368L105.237 125.06C105.356 124.906 105.44 124.479 105.56 124.324C105.679 124.17 105.764 123.743 105.883 123.589C106.003 123.435 106.003 123.435 105.968 123.161L106.172 122.579C106.291 122.425 106.376 121.998 106.495 121.844C106.614 121.69 106.699 121.262 106.818 121.108C106.938 120.954 106.938 120.954 106.903 120.68L106.988 120.253C106.953 119.979 107.192 119.671 107.157 119.398C107.122 119.124 107.361 118.816 107.326 118.543C107.445 118.389 107.291 118.269 107.411 118.115L107.495 117.688C107.461 117.414 107.699 117.106 107.665 116.832L107.834 115.977C107.953 115.823 107.799 115.704 107.918 115.55L108.003 115.122L108.088 114.695C108.207 114.541 108.053 114.421 108.172 114.267C108.103 113.72 108.307 113.139 108.237 112.592L108.322 112.164C108.441 112.01 108.287 111.891 108.406 111.737L107.875 110.832C107.736 109.738 107.716 108.49 107.423 107.277C107.354 106.73 107.13 106.063 107.061 105.517C106.906 105.397 106.718 105.004 106.683 104.731L106.494 104.338C106.34 104.219 106.459 104.065 106.305 103.945L106.201 103.125C106.166 102.852 105.977 102.459 105.943 102.185L105.754 101.792L105.565 101.4L105.187 100.614L104.81 99.8284C104.655 99.709 104.775 99.5549 104.621 99.4356L104.432 99.0428C104.397 98.7693 104.208 98.3765 104.054 98.2571C103.865 97.8643 103.831 97.5909 103.676 97.4715C102.424 95.2688 101.172 93.066 99.8 91.0173C99.1141 89.993 98.4282 88.9687 97.7076 87.6709C97.0217 86.6465 96.3358 85.6222 95.7693 84.4438C94.5169 82.241 93.3491 79.6107 92.6089 77.065C92.2811 75.5784 91.988 74.3652 91.9337 72.8438C91.7599 71.4765 91.7403 70.2286 91.9594 68.6725C92.0093 67.9715 92.0592 67.2705 92.2631 66.6888C92.313 65.9878 92.6363 65.2521 92.8403 64.6704C93.0095 63.8153 93.3676 63.353 93.6909 62.6173C94.0143 61.8815 94.3723 61.4192 94.8498 60.8029C95.6853 59.7242 96.5207 58.6455 97.5103 57.6861C98.4999 56.7268 99.6436 55.8868 100.668 55.201C103.109 53.6404 105.466 52.5073 108.166 51.8864C108.713 51.8169 109.379 51.5934 110.046 51.3698C110.747 51.4197 111.413 51.1961 112.114 51.2459C112.815 51.2958 113.635 51.1916 114.336 51.2415C114.764 51.3261 115.037 51.2913 115.345 51.5301C115.345 51.5301 115.499 51.6494 115.619 51.4953L115.773 51.6147L115.927 51.734L116.235 51.9727C117.399 52.3807 118.015 52.8581 118.512 53.4896C119.009 54.1211 119.506 54.7527 119.884 55.5383C120.073 55.9311 120.261 56.3239 120.177 56.7515L120.212 57.0249L120.246 57.2984L120.281 57.5718L120.316 57.8453C120.335 59.0932 120.012 59.829 119.689 60.5647C119.211 61.1811 118.734 61.7975 118.376 62.2598C117.898 62.8762 117.386 63.2191 116.874 63.562C116.755 63.7161 116.635 63.8702 116.481 63.7509L116.004 64.3673C115.765 64.6755 115.492 64.7102 115.253 65.0184C114.979 65.0532 114.706 65.0879 114.313 65.2767L114.075 65.5849C113.955 65.739 113.682 65.7738 113.682 65.7738C113.289 65.9626 112.896 66.1515 112.777 66.3056C112.384 66.4944 112.11 66.5291 111.991 66.6832L111.325 66.9068C111.205 67.0609 111.051 66.9416 110.932 67.0957C110.813 67.2498 110.42 67.4386 110.146 67.4733C108.968 68.0399 107.755 68.3329 106.696 68.7454C105.483 69.0384 104.269 69.3315 103.056 69.6246C102.783 69.6593 102.509 69.694 102.236 69.7288L101.689 69.7983L101.296 69.9871C101.023 70.0219 100.749 70.0566 100.322 69.972C100.048 70.0067 99.7747 70.0415 99.5013 70.0762C98.835 70.2998 98.2881 70.3693 97.7412 70.4388C97.3136 70.3541 97.0402 70.3889 96.7667 70.4236C96.4933 70.4584 96.2198 70.4931 95.9464 70.5279C95.6729 70.5626 95.2454 70.478 94.9719 70.5127L94.6985 70.5475L94.1515 70.617C93.8781 70.6517 93.4505 70.5671 93.1771 70.6018C92.9036 70.6366 92.7495 70.5172 92.4761 70.552L91.9292 70.6214L91.5016 70.5368C91.2282 70.5716 90.9547 70.6063 90.5272 70.5217C90.2537 70.5564 90.0996 70.4371 89.8261 70.4718C89.672 70.3525 89.5527 70.5066 89.3986 70.3872L88.8517 70.4567C88.5782 70.4914 88.27 70.2527 87.9966 70.2875C87.7231 70.3222 87.4497 70.3569 87.1415 70.1182C86.9874 69.9989 86.868 70.153 86.7139 70.0336L86.167 70.1031C86.0129 69.9837 85.7395 70.0185 85.3119 69.9339C85.1578 69.8145 84.8844 69.8493 84.4568 69.7646C84.3027 69.6453 84.1833 69.7994 84.0292 69.68L83.6017 69.5954C83.4476 69.4761 83.1741 69.5108 82.8659 69.2721C82.5925 69.3068 82.319 69.3416 82.0108 69.1029C81.8567 68.9835 81.7374 69.1376 81.5833 69.0182L81.1557 68.9336C81.0016 68.8143 80.5741 68.7297 80.42 68.6103C80.2659 68.4909 79.8383 68.4063 79.6842 68.287L79.1026 68.083L78.7944 67.8443C78.6403 67.7249 78.2127 67.6403 78.0586 67.521C77.9045 67.4016 77.477 67.317 77.3229 67.1976L77.0147 66.9589C76.8606 66.8396 76.8606 66.8396 76.7065 66.7202C76.5524 66.6009 76.2442 66.3621 75.9707 66.3969C75.8167 66.2775 75.5085 66.0388 75.3544 65.9195C75.2003 65.8001 74.8921 65.5614 74.738 65.442L74.4298 65.2033L74.1216 64.9646C73.9675 64.8453 73.6593 64.6065 73.5052 64.4872C72.5806 63.7711 71.9294 63.0202 71.1242 62.1499C70.3537 61.5532 70.0108 61.041 69.6678 60.5288C69.3249 60.0167 69.1361 59.6239 68.6738 59.2658C68.142 58.3608 67.6102 57.4558 67.1978 56.3967C66.7854 55.3377 66.4077 54.552 65.9953 53.493C65.3245 51.4942 64.9272 49.4606 64.684 47.5465C64.4408 45.6323 64.317 43.564 64.2279 41.7692C64.2884 37.8713 64.9653 34.4509 65.5229 31.1846C65.8613 29.4744 66.3539 27.8835 66.7271 26.4468C67.0504 25.711 67.2197 24.8559 67.543 24.1201C67.5929 23.4191 67.9162 22.6834 67.966 21.9824C68.3392 20.5456 68.7124 19.1089 68.9663 17.8262C69.066 16.4242 69.0464 15.1763 69.0268 13.9284C68.8878 12.8345 68.5948 11.6214 68.3365 10.6816C68.1476 10.2888 67.9935 10.1695 67.9588 9.89603C67.8047 9.77667 67.6158 9.38386 67.4617 9.26451C67.3076 9.14515 67.3076 9.14515 67.2729 8.8717C67.1188 8.75234 67.1188 8.75234 66.9647 8.63298C66.8106 8.51363 66.5024 8.27492 66.4677 8.00146C65.8165 7.25058 64.9267 6.8079 64.1909 6.48457C63.3011 6.04189 62.446 5.87266 61.745 5.82279C60.1541 5.33023 58.7868 5.50394 57.6583 5.36946C56.4104 5.38907 55.7093 5.3392 55.1624 5.40868C54.6155 5.47817 54.188 5.39355 54.188 5.39355C54.188 5.39355 54.4614 5.35881 55.1277 5.13523C55.6746 5.06574 56.6143 4.80742 57.7081 4.66845C58.802 4.52948 60.3233 4.47513 61.8794 4.69423C62.6152 5.01755 63.6244 5.30614 64.6336 5.59473C65.5235 6.03741 66.4133 6.48008 67.3379 7.19622C67.492 7.31558 67.8002 7.55429 67.9543 7.67365C68.1084 7.793 68.1084 7.793 68.2625 7.91236C68.4166 8.03172 68.4166 8.03172 68.4513 8.30517C68.6054 8.42453 68.7943 8.81734 68.9484 8.9367C68.9831 9.21015 69.2913 9.44887 69.326 9.72232C69.5844 10.662 69.8079 11.3283 70.0315 11.9946C70.2551 12.6608 70.3246 13.2077 70.4288 14.0281C70.6025 15.3954 70.5028 16.7974 70.403 18.1994C70.3033 19.6014 69.9301 21.0382 69.711 22.5943C69.507 23.1759 69.3031 23.7576 69.1338 24.6127C68.9299 25.1944 68.7606 26.0495 68.5914 26.9046C68.2182 28.3413 67.7256 29.9322 67.5065 31.4883C66.949 34.7546 66.5455 38.1403 66.4503 41.7647C66.5394 43.5595 66.6285 45.3543 66.8717 47.2685C67.1149 49.1827 67.5968 50.7887 68.2675 52.7875C68.6452 53.5731 68.9035 54.5128 69.4353 55.4178C69.813 56.2034 70.3448 57.1084 70.8765 58.0134C71.1847 58.2521 71.3736 58.6449 71.7165 59.1571C71.9054 59.5499 72.3677 59.9079 72.5565 60.3008C73.2076 61.0516 73.8588 61.8025 74.6293 62.3993C74.7834 62.5187 75.0915 62.7574 75.2456 62.8767L75.5538 63.1154L75.862 63.3542C76.0161 63.4735 76.3243 63.7122 76.4784 63.8316C76.6325 63.9509 76.9407 64.1896 77.0948 64.309C77.2489 64.4284 77.5571 64.6671 77.8306 64.6323C77.9847 64.7517 77.9847 64.7517 78.1388 64.871L78.447 65.1097C78.6011 65.2291 79.0286 65.3137 79.1827 65.4331C79.3368 65.5524 79.7644 65.637 79.9185 65.7564L80.2267 65.9951L80.6195 65.8063C80.7736 65.9256 81.047 65.8909 81.2011 66.0102C81.3552 66.1296 81.7828 66.2142 81.9369 66.3336L82.3644 66.4182C82.5185 66.5375 82.6379 66.3834 82.792 66.5028C83.0654 66.4681 83.2195 66.5874 83.6471 66.672C83.9205 66.6373 84.0746 66.7566 84.5022 66.8413L84.9297 66.9259C85.0838 67.0452 85.2032 66.8911 85.3573 67.0105C85.3573 67.0105 85.5114 67.1298 85.9389 67.2145C86.2124 67.1797 86.3665 67.2991 86.7941 67.3837L87.2216 67.4683C87.3757 67.5877 87.4951 67.4336 87.6492 67.5529C87.9226 67.5182 88.0767 67.6375 88.5043 67.7221C88.4695 67.4487 88.8971 67.5333 89.1705 67.4986L89.5981 67.5832C89.7522 67.7025 89.8715 67.5484 90.0256 67.6678C90.2991 67.633 90.5725 67.5983 90.7266 67.7177C91.0001 67.6829 91.2735 67.6482 91.547 67.6134L91.9746 67.698L92.3674 67.5092C92.6756 67.7479 92.949 67.7132 93.2225 67.6784C93.4959 67.6437 93.7694 67.609 94.0428 67.5742L94.4704 67.6588L94.8979 67.7434C95.1367 67.4352 95.5642 67.5199 95.8377 67.4851C96.1111 67.4504 96.3846 67.4156 96.658 67.3809C96.8121 67.5002 97.0856 67.4655 97.359 67.4308C97.906 67.3613 98.4529 67.2918 99.1191 67.0682C99.3926 67.0335 99.666 66.9987 99.9395 66.964C100.213 66.9292 100.486 66.8945 100.76 66.8597L101.187 66.9444L101.58 66.7555C101.854 66.7208 102.127 66.686 102.401 66.6513C103.614 66.3582 104.553 66.0999 105.613 65.6875C106.672 65.2751 107.731 64.8626 108.79 64.4502C109.063 64.4155 109.456 64.2266 109.729 64.1919C109.849 64.0378 110.003 64.1571 110.122 64.003L110.515 63.8142C110.789 63.7795 111.027 63.4713 111.301 63.4365C111.42 63.2824 111.694 63.2477 111.932 62.9395C112.052 62.7854 112.206 62.9047 112.325 62.7506L112.718 62.5618C112.837 62.4077 113.23 62.2189 113.349 62.0648C113.469 61.9107 113.862 61.7218 113.981 61.5677L114.374 61.3789L114.767 61.1901C115.279 60.8471 115.517 60.5389 115.876 60.0766C116.234 59.6143 116.472 59.3061 116.711 58.9979C116.95 58.6897 117.034 58.2622 117 57.9887C117 57.9887 117 57.9887 117.119 57.8346C117.119 57.8346 117.119 57.8346 117.238 57.6805C116.895 57.1684 117.015 57.0143 116.861 56.8949C116.672 56.5021 116.483 56.1093 116.175 55.8706C115.867 55.6319 115.558 55.3931 115.096 55.0351L114.942 54.9157L114.788 54.7964L114.634 54.677L114.48 54.5577C114.241 54.8659 113.967 54.9006 113.813 54.7812C113.386 54.6966 112.839 54.7661 112.292 54.8356C111.864 54.751 111.318 54.8205 110.771 54.89C110.104 55.1135 109.557 55.183 109.011 55.2525C106.738 55.958 104.774 56.9022 102.726 58.2739C100.796 59.4916 99.0558 61.1021 97.897 62.9165C97.1808 63.8411 96.7382 64.731 96.3302 65.8943C96.1262 66.4759 96.0416 66.9035 95.8377 67.4851C95.6337 68.0668 95.7032 68.6137 95.6186 69.0412C95.6382 70.2891 95.6231 71.2636 95.6427 72.5115C95.7816 73.6053 96.0747 74.8185 96.3678 76.0317C97.0733 78.3039 98.0522 80.5414 99.1505 82.6249C99.8364 83.6492 100.403 84.8276 101.089 85.852C101.894 86.7222 102.58 87.7465 103.266 88.7709C104.638 90.8195 106.163 92.9876 107.296 95.3444C107.485 95.7372 107.639 95.8566 107.828 96.2494C107.863 96.5228 108.171 96.7616 108.206 97.035L108.395 97.4278C108.549 97.5472 108.584 97.8206 108.584 97.8206L109.115 98.7256L109.374 99.6653L109.562 100.058L109.786 100.724C109.821 100.998 110.01 101.391 110.044 101.664L110.303 102.604C110.457 102.723 110.337 102.877 110.492 102.997L110.561 103.544C111.023 103.902 111.058 104.175 111.093 104.449C111.316 105.115 111.386 105.662 111.609 106.328C111.903 107.541 112.076 108.908 112.25 110.276L112.235 111.25C112.27 111.524 112.27 111.524 112.304 111.797L112.374 112.344C112.324 113.045 112.393 113.592 112.344 114.293C112.378 114.566 112.378 114.566 112.259 114.72L112.174 115.148L112.09 115.576C111.97 115.73 112.124 115.849 112.005 116.003C112.04 116.277 111.955 116.704 111.99 116.978C112.025 117.251 111.94 117.679 111.975 117.952L111.89 118.38C111.771 118.534 111.806 118.807 111.806 118.807C111.721 119.235 111.756 119.508 111.517 119.816C111.432 120.244 111.313 120.398 111.228 120.826L111.144 121.253C111.024 121.407 111.059 121.681 111.059 121.681C110.975 122.108 110.855 122.262 110.771 122.69C110.686 123.117 110.567 123.272 110.482 123.699L110.397 124.127C110.278 124.281 110.159 124.435 110.313 124.554C110.074 124.862 110.109 125.136 109.87 125.444C109.631 125.752 109.666 126.026 109.427 126.334L109.189 126.642C109.069 126.796 108.95 126.95 108.831 127.104C108.592 127.413 108.473 127.567 108.388 127.994C108.149 128.302 108.03 128.457 107.791 128.765L107.433 129.227C107.314 129.381 107.194 129.535 107.075 129.689C106.836 129.997 106.717 130.152 106.478 130.46C106.24 130.768 106.12 130.922 105.882 131.23L105.523 131.693C105.404 131.847 105.285 132.001 105.165 132.155C104.927 132.463 104.807 132.617 104.569 132.925C104.33 133.234 104.211 133.388 103.818 133.576L103.46 134.039C103.34 134.193 103.221 134.347 103.221 134.347C102.982 134.655 102.709 134.69 102.47 134.998C101.396 136.385 100.372 137.071 99.3472 137.757L98.9543 137.946L98.835 138.1L98.5616 138.134C98.1687 138.323 98.0494 138.477 97.6566 138.666L97.3831 138.701L97.1097 138.736C96.9903 138.89 96.7169 138.925 96.7169 138.925C96.324 139.113 96.0506 139.148 95.7771 139.183C94.4446 139.63 93.2314 139.923 91.8642 140.097C90.4969 140.271 89.249 140.29 87.847 140.19C86.4449 140.091 85.0082 139.717 83.6908 139.19C82.3734 138.663 81.1406 137.708 80.1813 136.718C79.8731 136.48 79.6842 136.087 79.376 135.848C79.2219 135.729 79.0678 135.609 79.0331 135.336C78.879 135.217 78.8442 134.943 78.6901 134.824L78.3472 134.312C78.3472 134.312 78.1931 134.192 78.3125 134.038L78.2777 133.765L78.0889 133.372C77.8849 133.954 77.7308 133.834 77.7308 133.834C77.542 133.441 77.5072 133.168 77.3184 132.775L77.2837 132.502L77.2489 132.228C77.0948 132.109 77.0601 131.835 77.0601 131.835L76.9906 131.289L76.9558 131.015L76.9211 130.742L76.8516 130.195C76.8169 129.921 76.8169 129.921 76.7821 129.648C76.7474 129.374 76.832 128.947 76.7973 128.673C76.7625 128.4 76.7625 128.4 76.7278 128.126L76.8124 127.699C76.8623 126.998 76.9121 126.297 77.1161 125.715C77.3699 124.433 77.8972 123.115 78.4593 122.071C79.0213 121.027 79.7027 119.829 80.4189 118.905C81.135 117.98 82.0052 117.175 82.8755 116.37C82.9948 116.215 83.3876 116.027 83.507 115.873C83.6263 115.718 84.0192 115.53 84.1385 115.376C84.2579 115.221 84.6507 115.033 84.77 114.878C84.8894 114.724 85.2822 114.536 85.4015 114.381C85.5209 114.227 85.9137 114.038 86.0331 113.884C86.1524 113.73 86.5453 113.541 86.6646 113.387C87.1768 113.044 87.5696 112.856 88.0817 112.513C88.3552 112.478 88.5939 112.17 88.8674 112.135C89.1408 112.1 89.3795 111.792 89.653 111.757C89.7723 111.603 89.9264 111.723 90.0458 111.568L90.4386 111.38C90.7121 111.345 90.8314 111.191 91.2242 111.002C93.3424 110.177 95.3759 109.78 97.4095 109.382C99.5971 109.105 101.665 108.981 103.614 109.011C103.768 109.13 103.888 108.976 104.042 109.096L104.469 109.18C104.743 109.145 104.897 109.265 105.17 109.23C105.444 109.195 105.598 109.315 105.871 109.28C106.145 109.245 106.299 109.365 106.572 109.33C107 109.414 107.428 109.499 108.129 109.549C108.402 109.514 108.556 109.634 108.83 109.599C109.103 109.564 109.257 109.683 109.531 109.649C111.395 110.106 113.294 110.838 114.92 111.604C116.545 112.37 118.205 113.409 119.592 114.483C119.746 114.603 119.901 114.722 120.055 114.841C120.209 114.961 120.209 114.961 120.363 115.08C120.517 115.2 120.517 115.2 120.671 115.319C120.825 115.438 120.979 115.558 121.133 115.677C121.287 115.796 121.287 115.796 121.442 115.916C121.596 116.035 121.596 116.035 121.75 116.154C122.366 116.632 123.017 117.383 123.514 118.014C124.32 118.884 124.817 119.516 125.314 120.148C125.811 120.779 126.308 121.411 126.805 122.042C128.519 124.603 129.807 127.079 130.785 129.317C131.764 131.554 132.589 133.672 133.26 135.671C133.931 137.67 134.532 139.122 135.014 140.728C135.461 142.06 136.028 143.239 136.286 144.178C137.558 147.629 139.103 151.045 140.853 153.879C142.602 156.714 144.745 159.359 146.937 161.304C149.129 163.248 151.764 164.303 154.364 165.084C156.929 165.591 159.425 165.552 161.732 165.12C164.039 164.688 166.038 164.017 167.882 163.227C169.727 162.437 171.179 161.836 172.477 161.115C173.655 160.549 174.679 159.863 175.346 159.639C175.858 159.296 176.405 159.227 176.559 159.346Z" fill="url(#paint1_linear_309_15307)"/>
<path d="M81.2099 138.255C80.9017 138.016 80.4394 137.658 80.1312 137.419C79.823 137.181 79.7882 136.907 79.48 136.668C79.48 136.668 79.4801 136.668 79.326 136.549C79.1719 136.43 79.1718 136.43 79.1371 136.156L78.983 136.037L78.8289 135.918C78.6748 135.798 78.6748 135.798 78.6401 135.525L78.2971 135.013L78.143 134.893L78.1083 134.62L77.9194 134.227C77.7653 134.108 77.8847 133.953 77.7306 133.834C77.7306 133.834 77.7306 133.834 77.5765 133.715C77.5418 133.441 77.3877 133.322 77.1988 132.929C77.1988 132.929 77.0447 132.81 77.1641 132.656C77.1641 132.656 77.01 132.536 77.1293 132.382L77.2487 132.228C77.2487 132.228 77.2487 132.228 77.214 131.955L77.1792 131.681L77.1097 131.134C77.1097 131.134 77.1097 131.134 77.075 130.861L77.0402 130.587L76.9708 130.041L76.936 129.767C76.936 129.767 76.936 129.767 76.9013 129.494C76.8665 129.22 76.8318 128.947 76.7971 128.673C76.7971 128.673 76.797 128.673 76.7623 128.4C76.8817 128.246 76.7276 128.126 76.8469 127.972L76.9315 127.545C76.9814 126.844 77.0313 126.143 77.2353 125.561C77.4392 124.979 77.4891 124.278 77.6931 123.697C77.897 123.115 78.101 122.533 78.4243 121.798C78.9864 120.754 79.6678 119.556 80.3839 118.631C81.1 117.706 81.9703 116.901 82.8405 116.096C82.9599 115.942 83.0792 115.788 83.3527 115.753L83.472 115.599C83.5914 115.445 83.9842 115.256 84.1036 115.102L84.2229 114.948C84.3423 114.794 84.4616 114.64 84.7351 114.605L85.3666 114.108C85.486 113.954 85.7594 113.919 85.8788 113.765L85.9981 113.611L86.1175 113.457C86.2368 113.303 86.5103 113.268 86.6296 113.114C86.749 112.96 86.9031 113.079 87.0225 112.925C87.4153 112.736 87.8081 112.547 88.2009 112.358C88.2009 112.358 88.3202 112.204 88.4743 112.324C88.5937 112.17 88.8672 112.135 88.9865 111.981L89.7721 111.603C89.7721 111.603 89.7721 111.603 89.8915 111.449C89.8915 111.449 90.0109 111.295 90.1649 111.414L90.5578 111.225L91.3434 110.848C93.3422 110.177 95.4951 109.626 97.5286 109.228C99.5622 108.831 101.785 108.827 103.733 108.857C103.888 108.976 104.007 108.822 104.161 108.941L104.589 109.026C104.589 109.026 104.743 109.145 104.862 108.991C105.016 109.111 105.135 108.957 105.29 109.076C105.563 109.041 105.717 109.16 105.991 109.126C106.264 109.091 106.418 109.21 106.692 109.176C106.846 109.295 106.965 109.141 107.119 109.26C107.273 109.38 107.393 109.225 107.547 109.345C107.442 108.524 107.219 107.858 107.269 107.157C107.234 106.884 107.199 106.61 107.13 106.063C106.976 105.944 107.095 105.79 106.941 105.671C106.906 105.397 106.752 105.278 106.871 105.124L106.837 104.85L106.494 104.338L106.459 104.065C106.459 104.065 106.459 104.065 106.305 103.945L106.201 103.125C106.166 102.851 106.012 102.732 105.977 102.459L105.942 102.185L105.754 101.792L105.565 101.4L105.187 100.614L104.809 99.8283C104.809 99.8283 104.809 99.8283 104.655 99.7089C104.655 99.7089 104.501 99.5896 104.62 99.4355L104.432 99.0427C104.432 99.0427 104.432 99.0427 104.278 98.9233C104.243 98.6499 104.208 98.3764 104.054 98.257C103.9 98.1377 103.9 98.1377 103.865 97.8642C103.711 97.7449 103.676 97.4714 103.522 97.3521C102.424 95.2687 101.171 93.0659 99.7997 91.0172C98.9598 89.8735 98.2739 88.8492 97.7074 87.6708C96.8674 86.5271 96.3009 85.3486 95.7691 84.4437C95.0485 83.1459 94.4819 81.9674 93.9154 80.789C93.4683 79.4565 93.0211 78.124 92.728 76.9108C92.2809 75.5782 92.1071 74.211 91.9334 72.8437C91.8292 72.0233 91.8791 71.3223 91.7749 70.502L91.5014 70.5367C91.3473 70.4174 91.228 70.5715 91.0739 70.4521L90.527 70.5216L89.8259 70.4717C89.8259 70.4717 89.8259 70.4717 89.6718 70.3524L89.3984 70.3871L88.8515 70.4566L88.578 70.4913C88.4239 70.372 88.1505 70.4067 87.9964 70.2873C87.7229 70.3221 87.5688 70.2027 87.4495 70.3568L87.1413 70.1181C87.1413 70.1181 87.1413 70.1181 86.9872 69.9988C86.9872 69.9988 86.8331 69.8794 86.7137 70.0335L86.1668 70.103C86.1668 70.103 86.0127 69.9836 85.8933 70.1377C85.7392 70.0184 85.4658 70.0531 85.3117 69.9338C85.1576 69.8144 84.8841 69.8491 84.4566 69.7645C84.4566 69.7645 84.4566 69.7645 84.3025 69.6452C84.3025 69.6452 84.1484 69.5258 84.029 69.6799L83.6015 69.5953C83.6015 69.5953 83.4474 69.476 83.328 69.63C83.1739 69.5107 82.9005 69.5454 82.7464 69.4261L82.0106 69.1027C82.0106 69.1027 82.0106 69.1027 81.8565 68.9834C81.8565 68.9834 81.7024 68.864 81.5831 69.0181L81.1555 68.9335L80.4198 68.6102L79.5299 68.1675L79.1024 68.0829L78.6748 67.9983L77.9391 67.6749L77.3227 67.1975L77.0145 66.9588L76.8604 66.8395L76.7063 66.7201C76.5522 66.6007 76.3981 66.4814 76.244 66.362L76.0899 66.2427C75.9358 66.1233 75.7817 66.004 75.6276 65.8846L75.4735 65.7652L75.3194 65.6459C75.1653 65.5265 75.0112 65.4072 74.8571 65.2878L74.5489 65.0491L74.2407 64.8104C74.0866 64.691 73.9325 64.5717 73.7784 64.4523L73.6243 64.333C72.8538 63.7362 72.0486 62.866 71.2434 61.9957C70.1994 61.4337 69.8565 60.9215 69.6676 60.5287C69.3247 60.0165 68.9818 59.5044 68.6736 59.2657C68.1418 58.3607 67.61 57.4557 67.1976 56.3966C66.6658 55.4917 66.4075 54.5519 65.9951 53.4929C65.4784 51.6134 64.8077 49.6146 64.6838 47.5463C64.4255 46.6066 64.4406 45.6322 64.4558 44.6577C64.3515 43.8373 64.2126 42.7435 64.2277 41.7691C64.3969 40.9139 64.412 39.9395 64.4272 38.965C64.5964 38.1099 64.6115 37.1355 64.7808 36.2804C64.9999 34.7242 65.3383 33.014 65.6768 31.3038C66.05 29.8671 66.3884 28.1569 66.881 26.566L67.5428 24.12C67.712 23.2649 67.916 22.6833 67.9658 21.9823C68.4584 20.3914 68.7122 19.1088 68.9661 17.8261C69.016 17.1251 69.0658 16.4241 68.9963 15.8772C69.0462 15.1762 69.0961 14.4752 69.0266 13.9283C69.007 12.6803 68.7139 11.4672 68.3362 10.6815C68.3015 10.4081 68.1474 10.2887 68.1127 10.0153L67.9586 9.89592L67.8045 9.77656C67.6504 9.6572 67.6156 9.38375 67.4615 9.2644C67.3074 9.14504 67.3074 9.14504 67.2727 8.87158L67.1186 8.75223L66.9645 8.63287L66.8104 8.51351C66.6563 8.39416 66.5022 8.2748 66.3481 8.15544C65.697 7.40457 64.8071 6.96189 64.0714 6.63856C63.7632 6.39985 63.455 6.16113 63.0274 6.07652C62.5999 5.9919 62.1723 5.90729 61.7447 5.82268C60.308 5.44948 58.7866 5.50383 57.6581 5.36934C56.8377 5.47357 56.2908 5.54306 55.8632 5.45845C55.5898 5.49319 55.3163 5.52793 55.0429 5.56267C54.6153 5.47805 54.3419 5.5128 54.1878 5.39344C54.1878 5.39344 54.4612 5.3587 55.1275 5.13512C55.9479 5.03089 56.7682 4.92667 57.7079 4.66834C58.2548 4.59886 58.8018 4.52937 59.6569 4.6986C60.4772 4.59437 61.1782 4.64424 62.0333 4.81347C62.8884 4.9827 63.8976 5.27129 64.7528 5.44051C65.3344 5.64448 65.6426 5.8832 66.2242 6.08717C66.6865 6.44523 67.1488 6.8033 67.457 7.04202C67.6111 7.16137 67.7652 7.28073 67.9193 7.40009L68.0734 7.51944L68.2275 7.6388L68.3816 7.75815C68.5357 7.87751 68.5357 7.87751 68.5705 8.15096C68.7246 8.27032 68.9134 8.66313 69.0675 8.78249C69.0675 8.78249 69.0675 8.78249 69.2216 8.90184C69.2216 8.90184 69.2216 8.90184 69.3757 9.0212C69.4104 9.29465 69.7186 9.53337 69.7534 9.80682C69.977 10.4731 70.3199 10.9853 70.3894 11.5322C70.613 12.1984 70.6825 12.7453 70.7867 13.5657C70.4981 14.5749 70.5676 15.1218 70.5177 15.8228C70.4678 16.5238 70.418 17.2248 70.3681 17.9258C70.2683 19.3279 70.0145 20.6105 69.676 22.3207C69.6262 23.0217 69.3029 23.7575 69.1336 24.6126L68.5912 26.9045C68.0986 28.4953 67.8795 30.0514 67.5063 31.4882C67.0485 33.3525 66.8294 34.9086 66.7644 36.5841C66.5952 37.4392 66.5801 38.4136 66.5302 39.1147C66.5151 40.0891 66.3458 40.9442 66.4501 41.7646C66.4198 43.7135 66.5089 45.5083 66.8714 47.2684C67.1146 49.1826 67.6313 51.062 68.2673 52.7874C68.645 53.573 68.9033 54.5127 69.4351 55.4177C69.9669 56.3227 70.3446 57.1083 70.8763 58.0133C71.1845 58.252 71.5275 58.7641 71.7163 59.157C71.9051 59.5498 72.3674 59.9078 72.5563 60.3006C73.2074 61.0515 73.8586 61.8024 74.629 62.3992L74.7831 62.5185C74.9372 62.6379 75.0913 62.7573 75.2454 62.8766L75.5536 63.1153L75.8618 63.354C76.0159 63.4734 76.17 63.5927 76.3241 63.7121L76.4782 63.8315L76.6323 63.9508C76.7864 64.0702 76.9405 64.1895 76.9405 64.1895L77.0946 64.3089C77.2487 64.4282 77.4028 64.5476 77.5569 64.667C77.5569 64.667 77.5569 64.667 77.711 64.7863L77.8651 64.9057L78.1733 65.1444L79.1478 65.1595L79.8835 65.4828L80.1917 65.7216L80.6193 65.8062C80.7734 65.9255 80.7734 65.9255 81.0468 65.8908C81.2009 66.0101 81.2009 66.0101 81.4744 65.9754L82.6377 66.3833L82.7918 66.5027C82.7918 66.5027 82.7918 66.5027 82.9459 66.622L83.0652 66.4679C83.2193 66.5873 83.3387 66.4332 83.4928 66.5526L84.3479 66.7218L84.7754 66.8064C84.7754 66.8064 84.9295 66.9258 85.0489 66.7717C85.0489 66.7717 85.0489 66.7717 85.203 66.891L86.0581 67.0602C86.2122 67.1796 86.4857 67.1449 86.4857 67.1449L86.7591 67.1101L87.1867 67.1947C87.1867 67.1947 87.3408 67.3141 87.4601 67.16C87.4601 67.16 87.4601 67.16 87.6142 67.2793C87.8877 67.2446 88.0418 67.364 88.4693 67.4486C88.6234 67.5679 88.7428 67.4138 88.8969 67.5332L89.1703 67.4984L89.5979 67.5831L89.8713 67.5483C89.8713 67.5483 89.8713 67.5483 90.0254 67.6677L90.7264 67.7175L91.5468 67.6133L91.9743 67.6979C92.059 67.2704 92.1436 66.8428 92.2629 66.6887C92.3128 65.9877 92.6361 65.252 92.8401 64.6703C93.1634 63.9346 93.3674 63.3529 93.6907 62.6172C93.8947 62.0355 94.3721 61.4191 94.8495 60.8027C95.685 59.7241 96.5205 58.6454 97.5101 57.686C98.4997 56.7267 99.6434 55.8867 100.668 55.2008C102.99 53.7943 105.347 52.6613 108.047 52.0404C108.832 51.6627 109.379 51.5933 110.045 51.3697C110.746 51.4195 111.413 51.196 112.114 51.2458C112.934 51.1416 113.635 51.1915 114.217 51.3955C114.644 51.4801 114.918 51.4453 115.226 51.684L115.38 51.8034L115.534 51.9227L115.688 52.0421L115.996 52.2808C117.398 52.3806 118.015 52.858 118.512 53.4895C119.009 54.121 119.506 54.7526 119.884 55.5382C120.072 55.931 120.142 56.4779 120.177 56.7514L120.211 57.0248L120.246 57.2983L120.281 57.5717L120.316 57.8452C120.266 58.5462 120.181 58.9737 120.096 59.4013C120.012 59.8288 119.773 60.137 119.689 60.5646C119.365 61.3003 119.007 61.7626 118.256 62.4138C117.898 62.8761 117.267 63.3731 116.754 63.716C116.635 63.8701 116.516 64.0242 116.362 63.9049L116.004 64.3672C115.765 64.6754 115.491 64.7101 115.253 65.0183C115.133 65.1724 114.86 65.2071 114.741 65.3612L114.313 65.2766L114.074 65.5848C114.074 65.5848 113.955 65.7389 113.801 65.6196L113.681 65.7737C113.289 65.9625 112.896 66.1513 112.777 66.3054C112.657 66.4595 112.384 66.4943 112.264 66.6484C112.264 66.6484 112.145 66.8025 111.991 66.6831L111.325 66.9067C111.325 66.9067 111.205 67.0608 111.051 66.9415C111.051 66.9415 111.051 66.9415 110.932 67.0956C110.812 67.2497 110.539 67.2844 110.42 67.4385L110.146 67.4732C108.814 67.9204 107.635 68.4869 106.696 68.7452C105.363 69.1924 104.15 69.4855 103.056 69.6244L101.689 69.7982L101.022 70.0217L100.476 70.0912C100.202 70.126 99.9286 70.1607 99.7745 70.0414L99.5011 70.0761C99.1083 70.2649 98.5614 70.3344 98.1338 70.2498L97.8603 70.2845C97.4675 70.4734 97.3134 70.354 97.04 70.3888L96.7665 70.4235L96.4931 70.4583C96.2196 70.493 96.2196 70.493 95.9462 70.5277L95.6727 70.5625C95.6228 71.2635 95.6923 71.8104 95.6425 72.5114C95.7814 73.6052 95.9204 74.699 96.3676 76.0316C96.78 77.0906 97.073 78.3038 97.4855 79.3629C98.1713 80.3872 98.7031 81.2922 99.2696 82.4706C99.8014 83.3756 100.487 84.3999 101.208 85.6977C101.894 86.7221 102.426 87.6271 103.266 88.7707L103.42 88.8901C104.791 90.9388 106.163 92.9874 107.57 95.3096C107.724 95.4289 107.758 95.7024 107.913 95.8217C108.067 95.9411 108.067 95.9411 108.101 96.2145C107.982 96.3686 108.171 96.7614 108.206 97.0349L108.395 97.4277L108.429 97.7012L108.583 97.8205L109.115 98.7255L109.373 99.6652L109.562 100.058L109.786 100.724L109.821 100.998C110.129 101.236 110.164 101.51 110.318 101.629L110.576 102.569C110.576 102.569 110.73 102.688 110.611 102.842L110.645 103.116L110.715 103.663L110.75 103.936C111.058 104.175 111.093 104.448 111.093 104.448C111.127 104.722 111.127 104.722 111.162 104.995C111.232 105.542 111.42 105.935 111.49 106.482C111.783 107.695 111.957 109.062 112.13 110.43L112.165 110.703C113.174 110.992 114.218 111.554 115.228 111.842C116.853 112.608 118.513 113.648 119.9 114.722L120.363 115.08L120.671 115.319L120.825 115.438C120.825 115.438 120.825 115.438 120.979 115.558L121.133 115.677C121.287 115.796 121.287 115.796 121.441 115.916L121.595 116.035L121.749 116.154C121.749 116.154 121.75 116.154 121.904 116.274C122.674 116.87 123.171 117.502 123.668 118.133C124.319 118.884 124.816 119.516 125.313 120.147C125.965 120.898 126.307 121.41 126.804 122.042C127.644 123.186 128.365 124.483 129.086 125.781C129.652 126.96 130.219 128.138 130.785 129.317C131.918 131.673 132.743 133.792 133.26 135.671C133.707 137.004 134.273 138.182 134.567 139.395C134.755 139.788 134.825 140.335 135.014 140.728C135.461 142.06 136.027 143.239 136.286 144.178C136.922 145.904 137.712 147.748 138.313 149.2C139.068 150.772 139.978 152.462 140.853 153.879C142.637 156.987 144.744 159.359 146.936 161.303C148.015 162.139 149.248 163.094 150.565 163.621C151.763 164.302 153.046 164.556 154.483 164.93C156.775 165.472 159.27 165.433 161.851 164.966C163.884 164.569 165.764 164.052 168.001 163.073C169.727 162.437 171.298 161.682 172.596 160.961C172.989 160.772 173.381 160.583 173.774 160.395C174.56 160.017 175.072 159.674 175.619 159.604C176.012 159.416 176.285 159.381 176.405 159.227C176.678 159.192 176.678 159.192 176.832 159.311C176.832 159.311 176.867 159.585 176.747 159.739C176.628 159.893 176.389 160.201 176.151 160.509C175.912 160.818 175.554 161.28 175.161 161.469C174.803 161.931 174.291 162.274 173.659 162.771C173.028 163.268 172.396 163.765 171.765 164.262C171.014 164.913 170.228 165.291 169.323 165.823C168.299 166.509 167.24 166.921 166.181 167.333C165.002 167.9 163.789 168.193 162.457 168.64C161.124 169.087 159.757 169.261 158.235 169.315C156.714 169.37 155.193 169.424 153.483 169.086L152.782 169.036C152.782 169.036 152.627 168.916 152.508 169.071L152.235 169.105L152.081 168.986C151.926 168.867 151.807 169.021 151.653 168.901L151.071 168.697L150.644 168.613L150.216 168.528C150.062 168.409 149.789 168.444 149.635 168.324C149.48 168.205 149.326 168.085 149.207 168.24L149.053 168.12L148.745 167.881L148.591 167.762C148.591 167.762 148.591 167.762 148.437 167.643C148.282 167.523 148.009 167.558 147.855 167.439C147.701 167.319 147.547 167.2 147.547 167.2L147.393 167.081L147.084 166.842L146.93 166.723C146.93 166.723 146.93 166.723 146.776 166.603C146.622 166.484 146.468 166.365 146.195 166.399C146.04 166.28 145.886 166.161 145.732 166.041L145.424 165.803L145.116 165.564L144.962 165.444C144.808 165.325 144.654 165.206 144.654 165.206C144.499 165.086 144.499 165.086 144.345 164.967L144.191 164.848L144.037 164.728C143.267 164.132 142.65 163.654 142.153 163.023C141.999 162.903 141.845 162.784 141.537 162.545L141.383 162.426C141.229 162.306 141.229 162.306 141.075 162.187C140.92 162.068 140.92 162.068 140.766 161.948C140.458 161.71 140.269 161.317 140.115 161.198C139.618 160.566 138.967 159.815 138.316 159.064C137.819 158.433 137.287 157.528 136.755 156.623C135.18 155.156 134.116 153.346 133.326 151.501C132.416 149.811 131.626 147.966 130.956 145.967C130.697 145.027 130.131 143.849 129.684 142.516C129.495 142.124 129.425 141.577 129.082 141.064C128.67 140.005 128.257 138.946 127.81 137.614C127.174 135.888 126.349 133.77 125.525 131.652C124.958 130.474 124.546 129.415 123.86 128.39C123.293 127.212 122.607 126.188 121.922 125.163C121.579 124.651 121.082 124.019 120.739 123.507C120.396 122.995 119.899 122.364 119.436 122.006L119.282 121.886C119.128 121.767 119.128 121.767 118.974 121.647L118.82 121.528L118.666 121.409L118.512 121.289C118.512 121.289 118.512 121.289 118.358 121.17L118.204 121.051L117.741 120.693L117.587 120.573L117.433 120.454C117.279 120.335 117.279 120.335 117.125 120.215L116.971 120.096L116.817 119.976L116.663 119.857L116.2 119.499C114.967 118.544 113.769 117.863 112.417 117.062C112.263 116.943 111.836 116.858 111.682 116.739C111.682 116.739 111.682 116.739 111.562 116.893C111.597 117.166 111.512 117.594 111.547 117.867C111.582 118.141 111.462 118.295 111.497 118.568C111.497 118.568 111.532 118.842 111.413 118.996L111.328 119.423L111.363 119.697L111.243 119.851C111.278 120.124 111.159 120.279 111.193 120.552L111.228 120.825C111.109 120.98 111.144 121.253 111.024 121.407C110.905 121.561 110.905 121.561 110.94 121.835L110.855 122.262C110.736 122.416 110.736 122.416 110.77 122.69L110.651 122.844C110.566 123.271 110.447 123.425 110.362 123.853C110.243 124.007 110.278 124.281 110.159 124.435L110.039 124.589L109.955 125.016C109.835 125.17 109.835 125.17 109.716 125.325L109.596 125.479C109.477 125.633 109.512 125.906 109.273 126.214L109.154 126.369C109.034 126.523 108.915 126.677 108.95 126.95C108.95 126.95 108.83 127.104 108.711 127.258L108.353 127.721C108.234 127.875 108.234 127.875 108.114 128.029L107.995 128.183L107.876 128.337C107.756 128.491 107.637 128.645 107.552 129.073C107.433 129.227 107.314 129.381 107.194 129.535C107.075 129.689 107.075 129.689 106.956 129.843L106.597 130.306C106.478 130.46 106.478 130.46 106.359 130.614L106.239 130.768L106.001 131.076C105.881 131.23 105.762 131.384 105.643 131.538C105.523 131.692 105.404 131.847 105.285 132.001C105.165 132.155 105.165 132.155 105.046 132.309L104.688 132.771C104.568 132.925 104.568 132.925 104.449 133.079L104.33 133.233C104.091 133.542 103.972 133.696 103.733 134.004C103.614 134.158 103.494 134.312 103.375 134.466C103.255 134.62 103.255 134.62 103.136 134.774L102.778 135.237C102.659 135.391 102.659 135.391 102.539 135.545L102.42 135.699C102.181 136.007 101.908 136.042 101.669 136.35C101.276 136.539 100.252 137.225 99.347 137.757L98.9541 137.945L98.8348 138.1L98.5613 138.134C98.442 138.288 98.1685 138.323 98.0492 138.477L97.7757 138.512L97.5023 138.547L97.2288 138.581C97.1095 138.736 96.9554 138.616 96.836 138.77C96.4432 138.959 96.1697 138.994 95.8963 139.029C94.5638 139.476 93.3506 139.769 91.9833 139.943C90.616 140.116 89.2488 140.29 87.9661 140.036C86.5641 139.936 85.1273 139.563 83.8099 139.036C82.8702 139.294 81.9804 138.852 81.2099 138.255ZM107.701 109.464C107.547 109.345 107.427 109.499 107.273 109.38C107.119 109.26 107 109.414 106.846 109.295C106.572 109.33 106.418 109.21 106.145 109.245C105.871 109.28 105.717 109.16 105.444 109.195C105.29 109.076 105.17 109.23 105.016 109.111C105.016 109.111 104.862 108.991 104.743 109.145L104.315 109.061C104.161 108.941 104.042 109.095 103.888 108.976C101.785 108.827 99.7162 108.95 97.6827 109.348C95.4951 109.626 93.3422 110.177 91.4975 110.967L90.7119 111.345L90.1649 111.414C90.1649 111.414 90.0456 111.568 89.8915 111.449C89.8915 111.449 89.8915 111.449 89.7721 111.603L89.1059 111.827C88.9865 111.981 88.7131 112.015 88.5937 112.17C88.5937 112.17 88.4743 112.324 88.3202 112.204C87.9274 112.393 87.5346 112.582 87.1418 112.771C87.0225 112.925 86.8684 112.806 86.749 112.96C86.6296 113.114 86.3562 113.149 86.2368 113.303L86.1175 113.457L85.9981 113.611C85.8788 113.765 85.6053 113.8 85.486 113.954L84.8544 114.451C84.7351 114.605 84.4616 114.64 84.3423 114.794L84.2229 114.948C84.1036 115.102 83.7107 115.291 83.5914 115.445C83.472 115.599 83.472 115.599 83.472 115.599C83.3527 115.753 83.2333 115.907 82.9599 115.942C82.0896 116.747 81.2194 117.552 80.5033 118.477C79.7871 119.402 79.1057 120.6 78.5437 121.644C78.3397 122.225 77.9816 122.688 77.8124 123.543C77.6084 124.124 77.4045 124.706 77.3546 125.407C77.1506 125.989 77.2201 126.535 77.0509 127.391L76.9663 127.818C76.8469 127.972 77.001 128.092 76.8817 128.246C76.8817 128.246 76.8817 128.246 76.9164 128.519C76.9512 128.793 76.9859 129.066 77.0206 129.34C77.0206 129.34 77.0206 129.34 77.0554 129.613L77.0901 129.886L77.1596 130.433L77.1943 130.707C77.1943 130.707 77.1943 130.707 77.2291 130.98L77.2986 131.527L77.3333 131.801C77.3333 131.801 77.3333 131.801 77.3681 132.074L77.4028 132.348L77.4375 132.621C77.4375 132.621 77.5916 132.74 77.4723 132.894C77.507 133.168 77.5418 133.441 77.85 133.68C77.85 133.68 77.85 133.68 78.0041 133.799C78.1582 133.919 78.0388 134.073 78.1929 134.192L78.3817 134.585L78.4165 134.858L78.5706 134.978L78.9135 135.49C79.0676 135.609 79.0676 135.609 79.1024 135.883L79.2565 136.002L79.4106 136.122C79.5647 136.241 79.5646 136.241 79.5994 136.514C79.5994 136.514 79.5994 136.514 79.7535 136.634C80.0617 136.872 80.0964 137.146 80.4046 137.385C81.364 138.374 82.7161 139.175 83.9142 139.856C85.2316 140.384 86.5142 140.637 88.0703 140.857C89.4723 140.956 90.7203 140.937 92.0875 140.763C93.4548 140.589 94.668 140.296 96.0005 139.849C96.274 139.814 96.6668 139.625 96.9402 139.591C97.0596 139.437 97.2137 139.556 97.333 139.402L97.6065 139.367L97.8799 139.332L98.1534 139.298C98.2728 139.144 98.5462 139.109 98.6656 138.955L98.939 138.92L99.0584 138.766L99.347 137.757C100.252 137.225 101.276 136.539 102.539 135.545C102.778 135.237 103.051 135.202 103.29 134.894L103.41 134.74C103.529 134.586 103.529 134.586 103.648 134.431L104.006 133.969C104.126 133.815 104.126 133.815 104.245 133.661C104.364 133.507 104.484 133.353 104.603 133.199C104.842 132.891 104.961 132.736 105.2 132.428L105.319 132.274C105.439 132.12 105.439 132.12 105.558 131.966L105.916 131.504C106.035 131.35 106.035 131.35 106.155 131.195C106.274 131.041 106.393 130.887 106.513 130.733C106.632 130.579 106.752 130.425 106.871 130.271L107.11 129.963L107.229 129.809C107.348 129.654 107.348 129.654 107.468 129.5L107.826 129.038C107.945 128.884 107.945 128.884 108.064 128.73C108.184 128.576 108.303 128.422 108.423 128.268C108.542 128.113 108.661 127.959 108.746 127.532L108.865 127.378L108.985 127.224C109.104 127.07 109.104 127.07 109.223 126.915L109.462 126.607C109.581 126.453 109.581 126.453 109.701 126.299C109.82 126.145 109.939 125.991 109.905 125.717L110.024 125.563C110.143 125.409 110.109 125.136 110.347 124.828L110.467 124.673C110.586 124.519 110.586 124.519 110.705 124.365L110.79 123.938C110.909 123.784 110.909 123.784 110.909 123.784C111.029 123.629 110.994 123.356 111.113 123.202C110.805 122.963 110.89 122.536 111.009 122.382L111.128 122.227C111.248 122.073 111.248 122.073 111.213 121.8L111.298 121.372C111.417 121.218 111.417 121.218 111.382 120.945C111.502 120.791 111.467 120.517 111.586 120.363L111.552 120.09C111.517 119.816 111.636 119.662 111.601 119.389L111.721 119.235C111.721 119.235 111.84 119.08 111.686 118.961L111.89 118.379C112.009 118.225 111.855 118.106 111.975 117.952C111.94 117.678 112.059 117.524 112.024 117.251C111.99 116.977 112.074 116.55 112.04 116.276C112.04 116.276 112.04 116.276 112.159 116.122C110.996 115.714 109.678 115.187 108.515 114.779L108.361 114.66C108.207 114.54 108.087 114.695 107.933 114.575L107.968 114.849L107.883 115.276L107.918 115.55C107.918 115.55 107.918 115.55 107.799 115.704L107.63 116.559C107.51 116.713 107.545 116.986 107.545 116.986L107.58 117.26L107.495 117.687C107.495 117.687 107.376 117.842 107.53 117.961C107.53 117.961 107.53 117.961 107.411 118.115L107.241 118.97C107.122 119.124 107.157 119.398 107.157 119.398C107.037 119.552 107.037 119.552 107.072 119.825L106.987 120.253L106.868 120.407L106.749 120.561C106.629 120.715 106.664 120.989 106.545 121.143L106.425 121.297L106.017 122.46L105.898 122.614L105.779 122.768C105.659 122.922 105.694 123.196 105.455 123.504L105.336 123.658C105.217 123.812 105.132 124.24 105.013 124.394L104.774 124.702L104.655 124.856L104.535 125.01L104.212 125.746C104.093 125.9 103.973 126.054 103.854 126.208C103.735 126.362 103.735 126.362 103.615 126.516L103.376 126.825L103.257 126.979L103.138 127.133L102.899 127.441C102.78 127.595 102.66 127.749 102.66 127.749C102.541 127.903 102.422 128.057 102.302 128.212C102.183 128.366 102.183 128.366 102.064 128.52L101.825 128.828L101.706 128.982L101.586 129.136C101.467 129.29 101.347 129.444 101.228 129.598L101.109 129.752C100.989 129.907 100.87 130.061 100.751 130.215C100.631 130.369 100.631 130.369 100.512 130.523L100.273 130.831L100.154 130.985C100.154 130.985 100.154 130.985 100.035 131.139L99.403 131.636C98.6521 132.288 97.7471 132.819 96.7228 133.505L96.33 133.694C96.33 133.694 96.33 133.694 96.2106 133.848L96.0913 134.002C95.9719 134.156 95.6985 134.191 95.6985 134.191L95.425 134.226L95.3057 134.38L95.1863 134.534L94.9129 134.569C94.6394 134.604 94.52 134.758 94.2466 134.792C93.3069 135.051 92.3672 135.309 91.2733 135.448C90.1795 135.587 89.2051 135.572 88.35 135.403C87.3755 135.387 86.6397 135.064 85.6305 134.776C84.8948 134.452 84.1243 133.855 83.5079 133.378C83.3538 133.259 83.3538 133.259 83.1997 133.139L83.0456 133.02L82.8915 132.901C82.8915 132.901 82.8915 132.901 82.7374 132.781C82.7374 132.781 82.7374 132.781 82.5833 132.662L82.4292 132.543L82.3945 132.269L82.2404 132.15L82.2056 131.876L82.1709 131.603C82.0168 131.483 82.1361 131.329 81.982 131.21C81.982 131.21 81.8279 131.091 81.9473 130.937C81.9473 130.937 81.9473 130.937 81.7932 130.817L81.9473 130.937C81.9473 130.937 81.9473 130.937 81.7932 130.817C81.7932 130.817 81.6391 130.698 81.7585 130.544L81.7237 130.27L81.689 129.997L81.6542 129.723C81.6542 129.723 81.6542 129.723 81.6195 129.45C81.6195 129.45 81.6195 129.45 81.7389 129.296C81.5848 129.176 81.7041 129.022 81.55 128.903C81.55 128.903 81.55 128.903 81.5153 128.63L81.4805 128.356L81.4458 128.083C81.5304 127.655 81.615 127.228 81.6996 126.8C81.7842 126.372 81.8689 125.945 82.1076 125.637C82.3115 125.055 82.3962 124.627 82.7542 124.165C83.0775 123.429 83.6743 122.659 84.2711 121.888C84.8679 121.118 85.4994 120.621 86.0962 119.85C86.2155 119.696 86.2156 119.696 86.3349 119.542L86.4543 119.388C86.5736 119.234 86.693 119.08 86.9664 119.045C86.9664 119.045 86.9664 119.045 87.0858 118.891L87.2051 118.737C87.3245 118.583 87.3245 118.583 87.5979 118.548C87.7173 118.394 87.7173 118.394 87.9908 118.359L88.1101 118.205C88.2295 118.051 88.5029 118.016 88.6223 117.862L88.7416 117.708L88.861 117.554C88.9804 117.4 88.9803 117.4 89.2538 117.365C89.3731 117.211 89.5273 117.33 89.6466 117.176C89.9201 117.142 90.1588 116.833 90.4322 116.799C90.4322 116.799 90.5516 116.645 90.7057 116.764C91.0985 116.575 91.0985 116.575 91.2179 116.421C91.4913 116.386 91.6107 116.232 91.8841 116.197C91.8841 116.197 91.8841 116.197 92.0035 116.043C92.0035 116.043 92.1228 115.889 92.2769 116.009L92.6697 115.82C92.9432 115.785 93.0626 115.631 93.336 115.596C95.0614 114.96 96.8214 114.598 98.5815 114.235C100.222 114.027 102.017 113.938 103.847 114.122L104.12 114.087L104.394 114.052C104.394 114.052 104.548 114.172 104.667 114.018C104.821 114.137 104.94 113.983 105.095 114.102L105.796 114.152C105.95 114.271 106.223 114.237 106.223 114.237C106.377 114.356 106.497 114.202 106.651 114.321C106.924 114.287 107.232 114.525 107.506 114.491L107.779 114.456C107.933 114.575 108.053 114.421 108.207 114.54C108.207 114.54 108.207 114.54 108.326 114.386L108.291 114.113C108.411 113.959 108.257 113.839 108.376 113.685C108.461 113.258 108.391 112.711 108.356 112.437L108.441 112.01C108.56 111.856 108.406 111.736 108.526 111.582L107.874 110.831C107.805 110.285 107.77 110.011 107.701 109.464ZM107.968 114.849C107.814 114.729 107.695 114.883 107.541 114.764L107.267 114.799C106.994 114.834 106.685 114.595 106.412 114.63C106.258 114.51 106.138 114.664 105.984 114.545C105.83 114.426 105.557 114.46 105.557 114.46L104.856 114.41C104.702 114.291 104.582 114.445 104.428 114.326C104.428 114.326 104.274 114.206 104.155 114.361L103.881 114.395L103.608 114.43C101.932 114.365 100.138 114.454 98.3428 114.543C96.5827 114.906 94.8226 115.268 93.0973 115.904C92.8238 115.939 92.7045 116.093 92.431 116.128L92.0382 116.317C92.0382 116.317 91.9189 116.471 91.7648 116.352C91.7648 116.352 91.7648 116.352 91.6454 116.506C91.6107 116.232 91.4913 116.386 91.2179 116.421C91.0985 116.575 90.9444 116.456 90.825 116.61C90.825 116.61 90.7057 116.764 90.5516 116.645C90.3129 116.953 90.0394 116.988 89.8007 117.296C89.6814 117.45 89.5273 117.33 89.4079 117.485C89.2885 117.639 89.1344 117.519 89.0151 117.673L88.8957 117.828L88.7764 117.982C88.657 118.136 88.3836 118.17 88.2642 118.325L88.1449 118.479C88.0255 118.633 88.0255 118.633 87.752 118.668C87.6327 118.822 87.6327 118.822 87.3592 118.856L87.2399 119.01C87.2399 119.01 87.2399 119.01 87.1205 119.165C87.0012 119.319 86.8818 119.473 86.6084 119.507L86.489 119.662C86.3696 119.816 86.3696 119.816 86.2503 119.97C85.4994 120.621 84.9026 121.391 84.4252 122.008C83.8284 122.778 83.351 123.395 82.9083 124.285C82.6696 124.593 82.585 125.02 82.381 125.602C82.2964 126.029 82.2118 126.457 81.9731 126.765C81.8885 127.193 81.8039 127.62 81.7192 128.048L81.754 128.321C81.754 128.321 81.6346 128.475 81.7887 128.595C81.7887 128.595 81.7887 128.595 81.8235 128.868C81.8582 129.142 81.8582 129.142 81.893 129.415C81.893 129.415 81.8929 129.415 81.7736 129.569C81.7736 129.569 81.7736 129.569 81.8083 129.843L81.8431 130.116L81.8778 130.39L81.9126 130.663C81.9126 130.663 82.0667 130.782 81.9473 130.937C81.9473 130.937 81.9473 130.937 82.1014 131.056L82.1361 131.329C82.1361 131.329 82.1361 131.329 82.2902 131.449C82.2902 131.449 82.4443 131.568 82.325 131.722C82.4791 131.842 82.3597 131.996 82.5138 132.115L82.5486 132.388L82.5833 132.662L82.7374 132.781L82.7722 133.055L82.9262 133.174C82.9262 133.174 82.9262 133.174 83.0803 133.293C83.0803 133.293 83.0803 133.293 83.2344 133.413L83.3885 133.532L83.5426 133.651C83.6967 133.771 83.6967 133.771 83.8508 133.89C84.3479 134.522 85.2377 134.964 85.9735 135.288C86.7092 135.611 87.7184 135.9 88.6929 135.915C89.6673 135.93 90.6418 135.945 91.6163 135.96C92.7101 135.821 93.6498 135.563 94.5895 135.305C94.863 135.27 94.9823 135.116 95.2558 135.081L95.5292 135.046L95.6486 134.892L95.768 134.738L96.0414 134.703C96.1608 134.549 96.4342 134.514 96.4342 134.514L96.5536 134.36C96.5536 134.36 96.5536 134.36 96.6729 134.206L97.0657 134.017C97.9707 133.486 98.9951 132.8 99.7459 132.149L100.377 131.652C100.377 131.652 100.377 131.652 100.497 131.497L100.616 131.343L100.855 131.035C100.974 130.881 100.974 130.881 101.094 130.727C101.213 130.573 101.332 130.419 101.452 130.265L101.571 130.111C101.69 129.956 101.81 129.802 101.929 129.648L102.048 129.494L102.168 129.34L102.407 129.032C102.526 128.878 102.526 128.878 102.645 128.724C102.765 128.57 102.884 128.415 103.003 128.261C103.123 128.107 103.242 127.953 103.242 127.953L103.481 127.645L103.6 127.491L103.719 127.337L103.958 127.029C104.078 126.875 104.078 126.875 104.197 126.72C104.316 126.566 104.436 126.412 104.555 126.258L104.878 125.522L104.998 125.368L105.117 125.214L105.356 124.906C105.475 124.752 105.56 124.324 105.679 124.17L105.798 124.016C105.918 123.862 105.883 123.589 106.122 123.28L106.241 123.126L106.36 122.972L106.291 122.425L106.495 121.844L106.614 121.69C106.734 121.535 106.699 121.262 106.818 121.108L106.938 120.954L107.057 120.8L107.142 120.372C107.261 120.218 107.261 120.218 107.226 119.945C107.346 119.79 107.311 119.517 107.311 119.517L107.326 118.543C107.326 118.543 107.326 118.543 107.445 118.388C107.445 118.388 107.565 118.234 107.411 118.115L107.495 117.687L107.46 117.414C107.58 117.26 107.545 116.986 107.545 116.986L107.714 116.131C107.714 116.131 107.714 116.131 107.834 115.977C107.834 115.977 107.953 115.823 107.799 115.704L107.883 115.276L107.968 114.849ZM116.678 118.883L117.14 119.241L117.294 119.36L117.448 119.479L117.602 119.599C117.756 119.718 117.756 119.718 117.91 119.838L118.065 119.957L118.219 120.076L118.681 120.434L118.835 120.554C118.835 120.554 118.835 120.554 118.989 120.673L119.143 120.792L119.297 120.912L119.451 121.031C119.606 121.15 119.606 121.15 119.76 121.27L119.914 121.389C120.411 122.021 120.873 122.379 121.216 122.891C121.559 123.403 121.902 123.915 122.399 124.547C123.085 125.571 123.771 126.595 124.337 127.774C124.869 128.679 125.436 129.857 126.002 131.036C126.981 133.273 127.652 135.272 128.288 136.997C128.735 138.33 129.147 139.389 129.56 140.448C129.629 140.995 129.972 141.507 130.161 141.9C130.608 143.232 131.055 144.565 131.433 145.351C132.104 147.349 132.894 149.194 133.803 150.885C134.593 152.729 135.657 154.539 136.686 156.076C137.372 157.1 137.869 157.732 138.246 158.517C138.898 159.268 139.429 160.173 140.046 160.651C140.354 160.889 140.543 161.282 140.697 161.401C140.851 161.521 140.851 161.521 141.005 161.64C141.159 161.76 141.159 161.76 141.313 161.879L141.467 161.998C141.621 162.118 141.776 162.237 142.084 162.476C142.7 162.953 143.197 163.585 143.968 164.181L144.122 164.301L144.276 164.42C144.43 164.539 144.43 164.54 144.584 164.659C144.738 164.778 144.892 164.898 144.892 164.898L145.046 165.017L145.355 165.256L145.663 165.494C145.817 165.614 145.971 165.733 146.125 165.852C146.279 165.972 146.433 166.091 146.707 166.056C146.707 166.056 146.707 166.056 146.861 166.176L147.015 166.295L147.323 166.534L147.477 166.653C147.631 166.773 147.785 166.892 147.785 166.892C147.939 167.011 148.213 166.977 148.367 167.096C148.367 167.096 148.367 167.096 148.521 167.215L148.675 167.335L148.983 167.573L149.138 167.693C149.292 167.812 149.446 167.931 149.565 167.777C149.719 167.897 149.993 167.862 150.147 167.981L150.574 168.066L151.002 168.15L151.583 168.354C151.738 168.474 151.857 168.32 152.011 168.439L152.165 168.558L152.439 168.524L152.593 168.643L153.294 168.693C154.85 168.912 156.525 168.977 158.047 168.923C159.414 168.749 160.901 168.421 162.268 168.247C163.481 167.954 164.814 167.507 165.992 166.941C167.051 166.528 167.956 165.996 169.134 165.43C170.039 164.898 170.825 164.52 171.576 163.869C172.207 163.372 172.839 162.875 173.47 162.378C173.983 162.035 174.46 161.419 174.972 161.076C175.33 160.614 175.723 160.425 175.962 160.117C176.439 159.5 176.678 159.192 176.524 159.073C176.524 159.073 176.37 158.953 176.096 158.988C175.823 159.023 175.704 159.177 175.311 159.366C174.918 159.555 174.252 159.778 173.466 160.156C173.073 160.345 172.68 160.534 172.288 160.722C170.99 161.443 169.538 162.044 167.693 162.834C165.575 163.659 163.422 164.211 161.543 164.727C158.962 165.194 156.466 165.233 154.175 164.691C152.892 164.437 151.575 163.91 150.257 163.382C149.213 162.82 148.169 162.258 147.091 161.423C146.936 161.303 146.782 161.184 146.628 161.065C145.55 160.229 144.436 159.12 143.288 157.738C142.294 156.475 141.3 155.212 140.425 153.795C139.55 152.378 138.795 150.806 137.886 149.116C137.13 147.544 136.494 145.819 135.858 144.094C135.6 143.154 135.187 142.095 134.586 140.643C134.397 140.25 134.328 139.703 134.139 139.311C133.727 138.251 133.434 137.038 132.832 135.586C132.196 133.861 131.491 131.589 130.358 129.232C129.756 127.78 129.19 126.602 128.658 125.697C127.938 124.399 127.217 123.101 126.377 121.957C126.307 121.41 125.965 120.898 125.313 120.147C124.816 119.516 124.319 118.884 123.822 118.253C123.206 117.775 122.709 117.144 121.938 116.547C121.938 116.547 121.938 116.547 121.784 116.428L121.63 116.308L121.476 116.189C121.322 116.07 121.322 116.07 121.168 115.95L121.014 115.831C121.014 115.831 121.014 115.831 120.86 115.712L120.706 115.592L120.397 115.354L119.935 114.995C118.548 113.921 116.888 112.882 115.262 112.116C114.218 111.554 113.174 110.992 112.165 110.703L112.269 111.524C112.304 111.797 112.304 111.797 112.339 112.07L112.408 112.617C112.478 113.164 112.393 113.592 112.463 114.139C112.343 114.293 112.497 114.412 112.378 114.566L112.413 114.84C112.413 114.84 112.413 114.84 112.293 114.994L112.209 115.421L112.124 115.849L112.159 116.122C112.313 116.242 112.741 116.326 112.895 116.446C114.247 117.246 115.599 118.047 116.678 118.883ZM107.701 109.464C107.77 110.011 107.805 110.285 107.874 110.831L107.979 111.652C107.859 111.806 108.013 111.925 107.894 112.079L107.809 112.507C107.725 112.934 107.914 113.327 107.829 113.755C107.71 113.909 107.864 114.028 107.744 114.182L107.779 114.456C107.779 114.456 107.779 114.456 107.66 114.61C107.814 114.729 107.933 114.575 108.087 114.695L108.242 114.814C109.524 115.068 110.842 115.595 111.886 116.157L111.851 115.884L111.935 115.456L112.293 114.994C112.293 114.994 112.293 114.994 112.413 114.84L112.378 114.566C112.497 114.412 112.343 114.293 112.463 114.139C112.393 113.592 112.478 113.164 112.408 112.617L112.339 112.07C112.304 111.797 112.304 111.797 112.269 111.524L112.165 110.703C111.429 110.38 110.574 110.211 109.719 110.041C109.719 110.041 109.565 109.922 109.446 110.076C109.292 109.957 109.018 109.991 109.018 109.991C108.864 109.872 108.591 109.907 108.591 109.907L108.437 109.788C108.128 109.549 107.855 109.584 107.701 109.464ZM91.7749 70.502C91.8791 71.3223 91.8292 72.0233 91.9334 72.8437C92.1071 74.211 92.4002 75.4242 92.728 76.9108C93.0211 78.124 93.4683 79.4565 94.0348 80.6349C94.6013 81.8133 95.1678 82.9918 95.7343 84.1702C96.3009 85.3486 96.8674 86.5271 97.7074 87.6708C98.2739 88.8492 98.9598 89.8735 99.7997 91.0172C101.171 93.0659 102.424 95.2686 103.676 97.4714C103.83 97.5908 103.865 97.8642 104.019 97.9836C104.019 97.9836 104.173 98.1029 104.208 98.3764C104.243 98.6498 104.397 98.7692 104.586 99.162C104.586 99.162 104.586 99.162 104.74 99.2814L104.929 99.6742C104.929 99.6742 105.083 99.7935 104.963 99.9476C104.963 99.9476 104.963 99.9476 105.118 100.067L105.495 100.853L105.873 101.638L106.062 102.031L106.251 102.424L106.285 102.697C106.439 102.817 106.474 103.09 106.355 103.244L106.613 104.184C106.613 104.184 106.613 104.184 106.767 104.303L106.802 104.577L106.991 104.97L107.026 105.243C106.752 105.278 106.906 105.397 106.941 105.671C107.095 105.79 106.976 105.944 107.13 106.063C107.319 106.456 107.234 106.884 107.423 107.277C107.646 107.943 107.597 108.644 107.701 109.464C107.974 109.429 108.128 109.549 108.402 109.514L108.556 109.633C108.71 109.753 108.983 109.718 108.983 109.718C109.138 109.837 109.411 109.803 109.411 109.803C109.411 109.803 109.565 109.922 109.684 109.768C110.54 109.937 111.275 110.26 112.13 110.43L112.096 110.156C112.041 108.635 111.748 107.422 111.455 106.209C111.42 105.935 111.351 105.388 111.162 104.995C111.281 104.841 111.127 104.722 111.093 104.448C111.093 104.448 111.058 104.175 111.023 103.902L110.988 103.628L110.645 103.116L110.611 102.842C110.611 102.842 110.457 102.723 110.576 102.569L110.318 101.629C110.164 101.51 110.129 101.236 109.975 101.117L109.94 100.844L109.716 100.177L109.528 99.7846L109.15 98.9989L108.737 97.9399L108.583 97.8205L108.549 97.5471L108.206 97.0349C108.171 96.7614 107.863 96.5227 107.828 96.2493C107.674 96.1299 107.674 96.1299 107.639 95.8565C107.485 95.7371 107.45 95.4637 107.296 95.3443C106.044 93.1415 104.791 90.9388 103.42 88.8901L103.266 88.7707C102.426 87.6271 101.894 86.7221 101.208 85.6977C100.487 84.3999 99.8014 83.3756 99.2696 82.4706C98.5838 81.4463 98.0172 80.2679 97.6048 79.2088C97.1924 78.1497 96.6259 76.9713 96.4869 75.8775C96.1938 74.6643 95.7814 73.6052 95.6425 72.5114C95.6923 71.8104 95.6228 71.2635 95.6727 70.5625L94.6982 70.5473L94.1513 70.6168L93.1769 70.6017C92.9034 70.6364 92.7493 70.5171 92.4759 70.5518L91.7749 70.502ZM65.851 7.52393C66.1592 7.76264 66.3133 7.88199 66.6215 8.12071C66.7756 8.24006 66.9297 8.35942 67.0838 8.47878L67.2379 8.59813L67.392 8.71749L67.5461 8.83685C67.7002 8.9562 67.7002 8.9562 67.735 9.22965C67.8891 9.34901 67.9238 9.62247 68.0779 9.74182L68.232 9.86118L68.3861 9.98053C68.5402 10.0999 68.5749 10.3733 68.6097 10.6468C69.0221 11.7059 69.2804 12.6456 69.4542 14.0129C69.0961 14.4752 69.0462 15.1762 68.9963 15.8772C69.0658 16.4241 69.016 17.1251 68.9661 17.8261C68.7122 19.1088 68.4584 20.3914 68.2393 21.9475C68.0353 22.5292 67.8661 23.3843 67.5428 24.12L66.8462 26.2925C66.3537 27.8834 66.0152 29.5936 65.642 31.0304C65.3383 33.014 64.9999 34.7242 64.7808 36.2804C64.6115 37.1355 64.5964 38.1099 64.4272 38.965C64.412 39.9395 64.3969 40.9139 64.2277 41.7691C64.2126 42.7435 64.1974 43.718 64.3017 44.5384C64.2865 45.5128 64.4255 46.6066 64.5297 47.427C64.8077 49.6146 65.4784 51.6134 65.9951 53.4929C66.4075 54.5519 66.6658 55.4917 67.1976 56.3966C67.61 57.4557 68.1418 58.3607 68.6736 59.2657C68.8624 59.6585 69.2053 60.1706 69.5483 60.6828C69.7371 61.0756 70.1994 61.4337 70.5424 61.9458C71.3476 62.8161 72.1528 63.6863 72.9233 64.2831L73.0774 64.4025C73.2315 64.5218 73.3856 64.6412 73.5397 64.7605L73.8479 64.9992L74.1561 65.238C74.3102 65.3573 74.4643 65.4767 74.6184 65.596L74.7725 65.7154L74.9266 65.8347C75.0807 65.9541 75.2348 66.0735 75.3889 66.1928L75.543 66.3122C75.6971 66.4315 75.8512 66.5509 76.0053 66.6702L76.1594 66.7896L76.3135 66.9089L76.6217 67.1477L77.3574 67.471L78.0932 67.7943L78.5207 67.8789L78.9483 67.9635L79.684 68.2869L81.1555 68.9335L81.5831 69.0181C81.5831 69.0181 81.7372 69.1375 81.8565 68.9834C81.8565 68.9834 81.8565 68.9834 82.0106 69.1027L82.8657 69.272C83.0198 69.3913 83.2933 69.3566 83.4474 69.4759C83.4474 69.4759 83.6015 69.5953 83.7208 69.4412L84.1484 69.5258C84.1484 69.5258 84.3025 69.6452 84.4219 69.4911C84.4219 69.4911 84.4219 69.4911 84.576 69.6104C84.8842 69.8491 85.1576 69.8144 85.3117 69.9338C85.4658 70.0531 85.7392 70.0184 85.8933 70.1377C85.8933 70.1377 86.0475 70.2571 86.1668 70.103L86.5944 70.1876C86.5944 70.1876 86.7485 70.307 86.8678 70.1529C86.8678 70.1529 86.8678 70.1529 87.0219 70.2722L87.4495 70.3568C87.5688 70.2027 87.7229 70.3221 87.9964 70.2873C88.2698 70.2526 88.4239 70.372 88.5433 70.2179L88.8167 70.1831L89.2443 70.2677L89.5177 70.233C89.5177 70.233 89.5177 70.233 89.6718 70.3524L90.6463 70.3675L91.0739 70.4521C91.228 70.5715 91.3473 70.4174 91.5014 70.5367L91.7749 70.502C91.7054 69.955 91.7553 69.254 91.9592 68.6724C91.9245 68.3989 92.0091 67.9714 91.9743 67.6979L91.5468 67.6133L90.7264 67.7175L89.8713 67.5483C89.8713 67.5483 89.8713 67.5483 89.7172 67.429L89.4438 67.4637L89.1703 67.4984L88.8969 67.5332C88.7428 67.4138 88.6234 67.5679 88.4693 67.4486C88.0418 67.364 87.7683 67.3987 87.4948 67.4334C87.4948 67.4334 87.4949 67.4334 87.3408 67.3141C87.3408 67.3141 87.1866 67.1947 87.0673 67.3488L86.6397 67.2642L86.3663 67.299C86.2122 67.1796 85.9387 67.2143 85.9387 67.2143L85.0836 67.0451C85.0836 67.0451 85.0836 67.0451 84.9295 66.9258C84.9295 66.9258 84.7754 66.8064 84.6561 66.9605L84.2285 66.8759L83.6469 66.6719C83.4928 66.5526 83.3734 66.7067 83.2193 66.5873L82.7918 66.5027C82.7918 66.5027 82.7918 66.5027 82.6377 66.3833L82.4836 66.264L81.2009 66.0101L81.0468 65.8908C80.8927 65.7714 80.8927 65.7714 80.6193 65.8062L80.1917 65.7216L79.8835 65.4828L79.1478 65.1595L78.1038 64.5975L77.9497 64.4781C77.9497 64.4781 77.9497 64.4781 77.7956 64.3588C77.6415 64.2394 77.4874 64.12 77.3333 64.0007L77.1792 63.8813C77.0251 63.762 76.871 63.6426 76.871 63.6426L76.7169 63.5233L76.5628 63.4039C76.4087 63.2845 76.2546 63.1652 76.1005 63.0458L75.7923 62.8071L75.4842 62.5684C75.3301 62.4491 75.176 62.3297 75.176 62.3297L75.0219 62.2103C74.2514 61.6136 73.6002 60.8627 72.9491 60.1118C72.2133 59.7885 72.0245 59.3957 71.7163 59.157C71.5275 58.7641 71.1845 58.252 70.7222 57.8939C70.3446 57.1083 69.8128 56.2033 69.4351 55.4177C68.9033 54.5127 68.645 53.573 68.2673 52.7874C67.6313 51.062 67.1146 49.1826 66.8714 47.2684C66.5089 45.5083 66.4198 43.7135 66.4501 41.7646C66.3458 40.9442 66.5151 40.0891 66.5302 39.1147C66.5801 38.4136 66.5952 37.4392 66.7644 36.5841C66.8294 34.9086 67.0485 33.3525 67.5063 31.4882C67.8795 30.0514 68.0986 28.4953 68.5912 26.9045L69.1336 24.6126C69.3029 23.7575 69.6262 23.0217 69.676 22.3207C69.8951 20.7646 70.2683 19.3279 70.3681 17.9258C70.418 17.2248 70.4678 16.5238 70.5177 15.8228C70.4482 15.2759 70.4981 14.5749 70.3939 13.7545C70.3244 13.2076 70.1008 12.5414 70.0313 11.9945C69.8077 11.3282 69.7383 10.7813 69.5147 10.115C69.2065 9.8763 69.1717 9.60285 69.0176 9.4835C69.0176 9.4835 69.0176 9.4835 68.8635 9.36414C68.8635 9.36414 68.8635 9.36414 68.7094 9.24479C68.5553 9.12543 68.5206 8.85197 68.2124 8.61326C68.0583 8.4939 68.0583 8.49391 68.0236 8.22045L67.8695 8.1011L67.7154 7.98174L67.5613 7.86238C67.4072 7.74303 67.2531 7.62367 67.099 7.50431C66.6367 7.14624 66.1744 6.78818 65.8662 6.54946C65.4039 6.1914 64.9763 6.10678 64.3947 5.90281C63.6242 5.30603 62.8884 4.9827 61.914 4.96757C61.213 4.9177 60.3579 4.74847 59.5375 4.8527C58.8365 4.80282 58.1355 4.75295 57.5886 4.82244C56.7682 4.92666 55.9479 5.03089 55.1275 5.13512C54.3071 5.23934 54.1878 5.39344 54.1878 5.39344C54.1878 5.39344 54.4612 5.3587 55.1622 5.40857C55.4357 5.37383 55.5898 5.49319 55.8632 5.45845C56.2908 5.54306 56.8377 5.47357 57.6581 5.36934C58.906 5.34973 60.1539 5.33012 61.8641 5.66858C62.2917 5.75319 62.7192 5.83781 63.1468 5.92242C63.5743 6.00704 63.8825 6.24575 64.3101 6.33036C64.7724 6.68843 65.3888 7.16586 65.851 7.52393ZM91.9743 67.6979C91.8897 68.1255 91.9245 68.3989 91.8399 68.8265C91.79 69.5275 91.7054 69.9551 91.6555 70.6561L91.929 70.6213L92.3565 70.7059C92.7493 70.5171 92.9034 70.6364 93.1769 70.6017L94.1513 70.6168L94.6982 70.5473L95.6727 70.5625C95.6032 70.0156 95.6878 69.588 95.6184 69.0411C95.703 68.6136 95.9069 68.0319 95.8375 67.485C95.8375 67.485 95.6834 67.3656 95.564 67.5197L94.4702 67.6587L94.0426 67.5741C93.7692 67.6088 93.4957 67.6436 93.2223 67.6783L92.3672 67.5091L91.9743 67.6979ZM95.8375 67.485C95.7528 67.9126 95.703 68.6136 95.6184 69.0411C95.6878 69.588 95.6032 70.0156 95.6727 70.5625L95.9462 70.5277C96.2196 70.493 96.2196 70.493 96.4931 70.4583L96.7665 70.4235L97.04 70.3888C97.3134 70.354 97.4675 70.4734 97.741 70.4386L98.0144 70.4039C98.5614 70.3344 99.1083 70.2649 99.5011 70.0761L99.7745 70.0414C99.9286 70.1607 100.202 70.126 100.321 69.9719L101.689 69.7982L102.236 69.7287L103.056 69.6244C104.15 69.4855 105.363 69.1924 106.696 68.7452C107.755 68.3328 108.968 68.0398 110.146 67.4732L110.539 67.2844C110.658 67.1303 110.932 67.0955 111.051 66.9415L111.171 66.7873L111.444 66.7526L111.837 66.5638C111.837 66.5638 111.956 66.4097 112.11 66.529C112.23 66.3749 112.503 66.3402 112.622 66.1861C112.896 66.1513 113.289 65.9625 113.562 65.9278L113.681 65.7737C113.681 65.7737 113.801 65.6196 113.955 65.7389L114.348 65.5501L114.706 65.0878C114.825 64.9337 115.099 64.8989 115.218 64.7449C115.457 64.4367 115.73 64.4019 115.969 64.0937L116.362 63.9049C116.481 63.7508 116.6 63.5967 116.754 63.716C117.386 63.219 117.898 62.8761 118.376 62.2597C118.853 61.6433 119.33 61.0269 119.808 60.4105C120.047 60.1023 120.131 59.6747 120.216 59.2472C120.181 58.9737 120.266 58.5462 120.35 58.1186L120.435 57.6911L120.4 57.4176L120.365 57.1442L120.331 56.8707C120.261 56.3238 120.226 56.0503 119.884 55.5382C119.506 54.7526 119.128 53.9669 118.512 53.4895C117.895 53.0121 117.279 52.5347 116.543 52.2113L116.235 51.9726L116.081 51.8533L115.927 51.7339L115.773 51.6146C115.072 51.5647 114.644 51.4801 114.336 51.2414C113.635 51.1915 112.934 51.1416 112.114 51.2458C111.413 51.196 110.746 51.4195 110.045 51.3697C109.379 51.5933 108.832 51.6627 108.166 51.8863C105.466 52.5072 103.109 53.6402 100.787 55.0467C99.6434 55.8867 98.4997 56.7267 97.5101 57.686C96.5205 58.6454 95.5309 59.6047 94.8495 60.8027C94.3721 61.4191 94.0488 62.1549 93.6907 62.6172C93.3674 63.3529 93.1634 63.9346 92.8401 64.6703C92.5168 65.4061 92.3128 65.9877 92.2629 66.6887C92.1436 66.8428 92.059 67.2704 91.9743 67.6979L92.3672 67.5091L93.1875 67.4049C93.461 67.3701 93.7344 67.3354 94.0079 67.3006L94.4702 67.6587L95.8375 67.485C96.0414 66.9033 96.2454 66.3217 96.33 65.8941C96.7379 64.7308 97.1806 63.841 97.8968 62.9164C98.6129 61.9918 99.2097 61.2213 100.08 60.4161C100.796 59.4915 101.82 58.8056 102.725 58.2738C103.75 57.588 104.655 57.0562 105.714 56.6438C106.773 56.2313 107.832 55.8189 109.045 55.5258C109.711 55.3023 110.258 55.2328 110.805 55.1633C111.317 54.8204 111.864 54.7509 112.292 54.8355C112.839 54.766 113.266 54.8506 113.694 54.9352C113.967 54.9005 114.241 54.8657 114.395 54.9851C114.395 54.9851 114.395 54.9851 114.549 55.1045L114.703 55.2238C114.703 55.2238 114.703 55.2238 114.857 55.3432L115.011 55.4625C115.319 55.7012 115.747 55.7858 116.09 56.298C116.398 56.5367 116.587 56.9295 116.776 57.3224C116.93 57.4417 116.811 57.5958 116.965 57.7152C116.965 57.7152 116.965 57.7152 116.845 57.8693C116.88 58.1427 116.795 58.5703 116.557 58.8785C116.318 59.1867 116.079 59.4949 115.721 59.9572C115.482 60.2654 114.97 60.6083 114.612 61.0706L114.374 61.3788L113.981 61.5676L113.349 62.0647C113.23 62.2188 112.837 62.4076 112.718 62.5617L112.325 62.7505C112.325 62.7505 112.205 62.9046 112.051 62.7853C112.051 62.7853 112.051 62.7853 111.932 62.9394C111.813 63.0935 111.42 63.2823 111.301 63.4364C111.181 63.5905 110.908 63.6253 110.908 63.6253C110.908 63.6253 110.788 63.7794 110.634 63.66L110.122 64.0029C110.122 64.0029 110.003 64.157 109.849 64.0377C109.849 64.0377 109.849 64.0377 109.729 64.1918C109.456 64.2265 109.063 64.4154 108.944 64.5695C107.611 65.0166 106.552 65.429 105.612 65.6874C104.553 66.0998 103.459 66.2388 102.4 66.6512C102.246 66.5318 102.127 66.6859 101.853 66.7207L101.58 66.7554L101.187 66.9443L99.9393 66.9639C99.8199 67.118 99.5465 67.1527 99.3924 67.0333L99.1189 67.0681C98.7261 67.2569 98.1792 67.3264 97.7516 67.2418L97.4782 67.2765C97.2047 67.3113 97.0854 67.4654 96.8119 67.5001L96.5385 67.5349L96.265 67.5696C96.1109 67.4503 96.1109 67.4503 95.8375 67.485ZM115.866 55.6318C115.558 55.393 115.404 55.2737 115.096 55.035L114.942 54.9156C114.942 54.9156 114.942 54.9156 114.788 54.7963L114.634 54.6769C114.634 54.6769 114.634 54.6769 114.479 54.5575C114.241 54.8657 113.967 54.9005 113.813 54.7811C113.386 54.6965 112.839 54.766 112.292 54.8355C111.864 54.7509 111.317 54.8204 110.77 54.8898C110.224 54.9593 109.557 55.1829 109.01 55.2524C107.797 55.5455 106.738 55.9579 105.679 56.3703C104.655 57.0562 103.75 57.588 102.725 58.2738C101.82 58.8056 100.796 59.4915 100.08 60.4161C99.2097 61.2213 98.6129 61.9918 97.8968 62.9164C97.1806 63.841 96.7379 64.7308 96.33 65.8941C96.126 66.4758 96.0414 66.9033 95.8375 67.485L96.1109 67.4502L96.3844 67.4155L96.6578 67.3808C97.0854 67.4654 97.2047 67.3113 97.3588 67.4306L97.6323 67.3959C98.1792 67.3264 98.4526 67.2917 98.9996 67.2222L99.273 67.1875C99.5465 67.1527 99.8199 67.118 99.9393 66.9639L101.187 66.9443L101.853 66.7207C102.127 66.6859 102.246 66.5318 102.4 66.6512C103.459 66.2388 104.553 66.0998 105.612 65.6874C106.552 65.429 107.611 65.0166 108.79 64.4501C109.063 64.4154 109.456 64.2265 109.729 64.1918C109.729 64.1918 109.729 64.1918 109.849 64.0377C109.849 64.0377 109.968 63.8836 110.122 64.0029L110.515 63.8141C110.515 63.8141 110.634 63.66 110.788 63.7794C110.908 63.6253 111.181 63.5905 111.181 63.5905C111.42 63.2823 111.813 63.0935 111.932 62.9394C111.932 62.9394 111.932 62.9394 112.051 62.7853C112.051 62.7853 112.171 62.6312 112.325 62.7505L112.718 62.5617C112.837 62.4076 113.23 62.2188 113.349 62.0647L113.981 61.5676L114.374 61.3788L114.766 61.1899C115.279 60.847 115.517 60.5388 115.875 60.0765C116.233 59.6142 116.472 59.306 116.711 58.9978C116.949 58.6896 117.034 58.2621 116.999 57.9886C116.999 57.9886 116.999 57.9886 117.119 57.8345C116.895 57.1683 117.014 57.0142 116.86 56.8948C116.672 56.502 116.483 56.1092 116.175 55.8705C116.02 55.7511 116.02 55.7511 115.866 55.6318Z" fill="url(#paint2_linear_309_15307)"/>
<defs>
<linearGradient id="paint0_linear_309_15307" x1="171.426" y1="143.836" x2="187.418" y2="158.69" gradientUnits="userSpaceOnUse">
<stop stop-color="#6B2AE6"/>
<stop offset="1" stop-color="#EB0029"/>
</linearGradient>
<linearGradient id="paint1_linear_309_15307" x1="60.6574" y1="8.93354" x2="179.667" y2="144.493" gradientUnits="userSpaceOnUse">
<stop stop-color="#6B2AE6"/>
<stop offset="1" stop-color="#EB0029"/>
</linearGradient>
<linearGradient id="paint2_linear_309_15307" x1="60.7594" y1="8.81362" x2="180.062" y2="144.411" gradientUnits="userSpaceOnUse">
<stop stop-color="#6B2AE6"/>
<stop offset="1" stop-color="#EB0029"/>
</linearGradient>
</defs>
</svg>
