<svg width="354" height="643" viewBox="0 0 354 643" fill="none" xmlns="http://www.w3.org/2000/svg">
<g opacity="0.04">
<path d="M424.36 439.606C575.17 517.436 760.542 458.327 838.399 307.579C916.255 156.831 495.016 615 344.212 537.17C193.408 459.339 370.141 -125.012 292.279 25.736C214.417 176.484 273.556 361.776 424.36 439.606Z" stroke="#161921" stroke-miterlimit="10"/>
<path d="M342.393 537.903C493.197 615.733 912.007 161.68 835.755 309.319C759.502 456.957 575.427 513.548 424.623 435.717C273.818 357.887 213.377 175.109 289.635 27.47C365.893 -120.169 191.583 460.073 342.393 537.903Z" stroke="#161921" stroke-miterlimit="10"/>
<path d="M340.566 538.636C491.376 616.467 907.752 166.53 833.104 311.058C758.455 455.587 575.682 509.659 424.878 431.829C274.074 353.999 212.33 173.744 286.984 29.2097C361.638 -115.325 189.756 460.806 340.566 538.636Z" stroke="#161921" stroke-miterlimit="10"/>
<path d="M338.74 539.37C489.55 617.2 903.498 171.379 830.453 312.798C757.408 454.217 575.937 505.77 425.133 427.94C274.329 350.11 211.289 172.374 284.334 30.9494C357.378 -110.475 187.936 461.54 338.74 539.37Z" stroke="#161921" stroke-miterlimit="10"/>
<path d="M336.92 540.103C487.73 617.933 899.243 176.223 827.803 314.538C756.362 452.853 576.199 501.882 425.389 424.051C274.58 346.221 210.243 171.004 281.683 32.689C353.124 -105.626 186.111 462.273 336.92 540.103Z" stroke="#161921" stroke-miterlimit="10"/>
<path d="M335.095 540.831C485.905 618.661 894.99 181.067 825.153 316.272C755.316 451.477 576.456 497.987 425.646 420.163C274.836 342.338 209.197 169.634 279.028 34.4287C348.859 -100.776 184.285 463.006 335.095 540.831Z" stroke="#161921" stroke-miterlimit="10"/>
<path d="M333.269 541.564C484.079 619.394 890.73 185.916 822.502 318.011C754.275 450.107 576.711 494.099 425.902 416.274C275.092 338.45 208.15 168.264 276.377 36.1683C344.605 -95.9269 182.465 463.734 333.269 541.564Z" stroke="#161921" stroke-miterlimit="10"/>
<path d="M331.448 542.298C482.258 620.128 886.474 190.76 819.851 319.751C753.227 448.742 576.966 490.216 426.156 412.385C275.347 334.555 207.102 166.899 273.726 37.908C340.349 -91.0831 180.638 464.467 331.448 542.298Z" stroke="#161921" stroke-miterlimit="10"/>
<path d="M329.623 543.031C480.433 620.861 882.221 195.609 817.201 321.491C752.182 447.372 577.223 486.327 426.413 408.497C275.603 330.667 206.062 165.529 271.076 39.6477C336.101 -86.2337 178.819 465.201 329.623 543.031Z" stroke="#161921" stroke-miterlimit="10"/>
<path d="M327.804 543.764C478.608 621.595 877.967 200.453 814.552 323.23C751.136 446.008 577.48 482.438 426.67 404.608C275.86 326.778 205.017 164.159 268.427 41.3873C331.842 -81.3899 176.994 465.934 327.804 543.764Z" stroke="#161921" stroke-miterlimit="10"/>
<path d="M325.978 544.498C476.788 622.328 873.713 205.303 811.907 324.964C750.101 444.626 577.741 478.544 426.932 400.714C276.122 322.884 203.976 162.783 265.782 43.1213C327.588 -76.5405 175.169 466.668 325.978 544.498Z" stroke="#161921" stroke-miterlimit="10"/>
<path d="M324.151 545.231C474.961 623.061 869.451 210.152 809.249 326.704C749.047 443.256 577.99 474.655 427.186 396.825C276.382 318.995 202.928 161.413 263.13 44.861C323.332 -71.6967 173.347 467.401 324.151 545.231Z" stroke="#161921" stroke-miterlimit="10"/>
<path d="M322.331 545.965C473.141 623.795 865.203 214.996 806.605 328.444C748.007 441.892 578.252 470.767 427.448 392.936C276.644 315.106 201.887 160.049 260.485 46.6007C319.084 -66.8472 171.521 468.134 322.331 545.965Z" stroke="#161921" stroke-miterlimit="10"/>
<path d="M320.506 546.698C471.316 624.528 860.944 219.845 803.955 330.183C746.966 440.521 578.508 466.878 427.704 389.048C276.9 311.218 200.841 158.678 257.836 48.3347C314.83 -62.0091 169.697 468.868 320.506 546.698Z" stroke="#161921" stroke-miterlimit="10"/>
<path d="M318.68 547.431C469.49 625.262 856.689 224.695 801.304 331.923C745.919 439.151 578.763 462.989 427.959 385.159C277.155 307.329 199.8 157.308 255.184 50.0743C310.569 -57.1596 167.876 469.601 318.68 547.431Z" stroke="#161921" stroke-miterlimit="10"/>
<path d="M316.86 548.159C467.67 625.989 852.435 229.533 798.654 333.657C744.873 437.781 579.02 459.095 428.216 381.265C277.412 303.435 198.753 155.932 252.534 51.8083C306.31 -52.3102 166.05 470.335 316.86 548.159Z" stroke="#161921" stroke-miterlimit="10"/>
<path d="M315.034 548.892C465.844 626.723 848.18 234.382 796.003 335.397C743.826 436.411 579.281 455.206 428.471 377.376C277.661 299.546 197.707 154.562 249.884 53.548C302.055 -47.4607 164.23 471.062 315.034 548.892Z" stroke="#161921" stroke-miterlimit="10"/>
<path d="M313.216 549.626C464.026 627.456 843.928 239.226 793.36 337.136C742.793 435.047 579.544 451.318 428.735 373.493C277.925 295.669 196.668 153.204 247.235 55.2933C297.803 -42.6169 162.406 471.796 313.216 549.626Z" stroke="#161921" stroke-miterlimit="10"/>
<path d="M311.39 550.359C462.199 628.19 839.667 244.076 790.704 338.876C741.74 433.677 579.794 447.435 428.984 369.605C278.175 291.775 195.615 151.834 244.578 57.0332C293.548 -37.7672 160.58 472.529 311.39 550.359Z" stroke="#161921" stroke-miterlimit="10"/>
<path d="M309.564 551.093C460.374 628.923 835.414 248.925 788.054 340.616C740.694 432.306 580.05 443.546 429.241 365.716C278.431 287.886 194.569 150.463 241.929 58.7727C289.288 -32.918 158.76 473.262 309.564 551.093Z" stroke="#161921" stroke-miterlimit="10"/>
<path d="M307.743 551.826C458.552 629.656 831.158 253.769 785.407 342.355C739.657 430.942 580.31 439.657 429.501 361.827C278.691 283.997 193.532 149.093 239.282 60.5123C285.032 -28.0686 156.933 473.996 307.743 551.826Z" stroke="#161921" stroke-miterlimit="10"/>
<path d="M305.919 552.559C456.728 630.39 826.905 258.618 782.759 344.095C738.612 429.572 580.568 435.769 429.758 357.938C278.948 280.108 192.487 147.723 236.634 62.252C280.78 -23.2305 155.109 474.729 305.919 552.559Z" stroke="#161921" stroke-miterlimit="10"/>
<path d="M304.093 553.293C454.903 631.123 822.645 263.468 780.102 345.829C737.56 428.19 580.818 431.874 430.008 354.044C279.199 276.214 191.435 146.353 233.977 63.986C276.525 -18.381 153.289 475.463 304.093 553.293Z" stroke="#161921" stroke-miterlimit="10"/>
<path d="M302.272 554.026C453.076 631.851 818.39 268.312 777.457 347.569C736.524 426.826 581.079 427.986 430.275 350.155C279.471 272.325 190.399 144.983 231.338 65.7256C272.276 -13.5315 151.462 476.196 302.272 554.026Z" stroke="#161921" stroke-miterlimit="10"/>
<path d="M300.447 554.754C451.257 632.584 814.136 273.155 774.807 349.303C735.478 425.45 581.335 424.091 430.531 346.261C279.727 268.431 189.353 143.607 228.688 67.4539C268.017 -8.68778 149.637 476.929 300.447 554.754Z" stroke="#161921" stroke-miterlimit="10"/>
<path d="M298.621 555.487C449.43 633.317 809.881 277.999 772.15 351.042C734.42 424.086 581.585 420.203 430.781 342.372C279.977 264.542 188.306 142.237 226.031 69.1936C263.762 -3.844 147.817 477.663 298.621 555.487Z" stroke="#161921" stroke-miterlimit="10"/>
<path d="M296.802 556.221C447.611 634.051 805.628 282.849 769.507 352.782C733.386 422.715 581.848 416.314 431.044 338.484C280.24 260.654 187.266 140.867 223.387 70.9332C259.509 0.999784 145.992 478.39 296.802 556.221Z" stroke="#161921" stroke-miterlimit="10"/>
<path d="M294.976 556.954C445.785 634.784 801.374 287.698 766.856 354.522C732.339 421.345 582.109 412.425 431.299 334.595C280.49 256.765 186.219 139.502 220.737 72.6729C255.254 5.84356 144.172 479.124 294.976 556.954Z" stroke="#161921" stroke-miterlimit="10"/>
<path d="M293.155 557.687C443.959 635.518 797.119 292.542 764.205 356.261C731.291 419.981 582.364 408.537 431.554 330.712C280.745 252.888 185.172 138.138 218.086 74.4183C250.993 10.6987 142.345 479.857 293.155 557.687Z" stroke="#161921" stroke-miterlimit="10"/>
<path d="M291.33 558.421C442.14 636.251 792.86 297.391 761.556 358.001C730.252 418.611 582.621 404.648 431.811 326.823C281.002 248.999 184.126 136.768 215.43 76.1579C246.74 15.5482 140.52 480.591 291.33 558.421Z" stroke="#161921" stroke-miterlimit="10"/>
<path d="M289.504 559.154C440.314 636.984 788.605 302.241 758.905 359.741C729.204 417.241 582.877 400.765 432.067 322.935C281.257 245.105 183.085 135.392 212.785 77.8919C242.485 20.3919 138.7 481.324 289.504 559.154Z" stroke="#161921" stroke-miterlimit="10"/>
<path d="M287.683 559.888C438.493 637.718 784.349 307.084 756.259 361.48C728.168 415.876 583.137 396.876 432.327 319.046C281.518 241.216 182.038 134.027 210.134 79.6316C238.23 25.2414 136.873 482.057 287.683 559.888Z" stroke="#161921" stroke-miterlimit="10"/>
<path d="M285.857 560.621C436.667 638.451 780.095 311.934 753.603 363.22C727.116 414.506 583.387 392.988 432.578 315.157C281.768 237.327 180.991 132.663 207.478 81.3769C233.964 30.0909 135.047 482.791 285.857 560.621Z" stroke="#161921" stroke-miterlimit="10"/>
<path d="M284.033 561.354C434.843 639.185 775.837 316.778 750.954 364.954C726.071 413.13 583.645 389.093 432.835 311.263C282.025 233.433 179.952 131.287 204.835 83.1109C229.717 34.9347 133.229 483.524 284.033 561.354Z" stroke="#161921" stroke-miterlimit="10"/>
<path d="M282.213 562.082C433.022 639.912 771.588 321.621 748.309 366.688C725.03 411.754 583.906 385.199 433.102 307.369C282.298 229.539 178.911 129.911 202.189 84.8449C225.463 39.7784 131.403 484.258 282.213 562.082Z" stroke="#161921" stroke-miterlimit="10"/>
<path d="M280.387 562.815C431.196 640.646 767.328 326.471 745.658 368.428C723.989 410.384 584.162 381.31 433.358 303.48C282.554 225.65 177.864 128.541 199.539 86.5846C221.208 44.6279 129.583 484.991 280.387 562.815Z" stroke="#161921" stroke-miterlimit="10"/>
<path d="M278.567 563.549C429.377 641.379 763.079 331.315 743.008 370.167C722.937 409.02 584.418 377.422 433.614 299.591C282.81 221.761 176.818 127.177 196.883 88.3242C216.954 49.4717 127.757 485.719 278.567 563.549Z" stroke="#161921" stroke-miterlimit="10"/>
<path d="M276.74 564.282C427.55 642.112 758.818 336.164 740.357 371.907C721.895 407.65 584.673 373.533 433.869 295.703C283.065 217.873 175.776 125.807 194.237 90.0582C212.699 54.3098 125.93 486.452 276.74 564.282Z" stroke="#161921" stroke-miterlimit="10"/>
<path d="M274.916 565.016C425.726 642.846 754.565 341.014 737.708 373.647C720.85 406.28 584.93 369.644 434.126 291.814C283.322 213.984 174.73 124.437 191.588 91.8035C208.44 59.1649 124.112 487.185 274.916 565.016Z" stroke="#161921" stroke-miterlimit="10"/>
<path d="M273.095 565.749C423.904 643.579 750.31 345.857 735.062 375.386C719.808 404.915 585.196 365.756 434.386 287.925C283.577 210.095 173.689 123.066 188.942 93.5376C204.196 64.0087 122.285 487.919 273.095 565.749Z" stroke="#161921" stroke-miterlimit="10"/>
<path d="M271.269 566.483C422.079 644.313 746.056 350.707 732.406 377.126C718.762 403.545 585.447 361.867 434.637 284.043C283.827 206.218 172.642 121.697 186.287 95.2775C199.931 68.8584 120.46 488.652 271.269 566.483Z" stroke="#161921" stroke-miterlimit="10"/>
<path d="M269.443 567.216C420.253 645.046 741.795 355.551 729.755 378.866C717.715 402.181 585.702 357.984 434.892 280.154C284.083 202.324 171.595 120.332 183.636 97.0169C195.676 73.7076 118.639 489.386 269.443 567.216Z" stroke="#161921" stroke-miterlimit="10"/>
<path d="M267.624 567.949C418.434 645.779 737.543 360.4 727.112 380.605C716.675 400.81 585.965 354.095 435.155 276.265C284.345 198.435 170.556 118.967 180.987 98.7623C191.423 78.5514 116.815 490.119 267.624 567.949Z" stroke="#161921" stroke-miterlimit="10"/>
<path d="M265.799 568.683C416.608 646.513 733.288 365.25 724.456 382.345C715.629 399.44 586.215 350.207 435.406 272.376C284.596 194.546 169.504 117.597 178.331 100.502C187.158 83.4065 114.989 490.852 265.799 568.683Z" stroke="#161921" stroke-miterlimit="10"/>
<path d="M263.973 569.41C414.783 647.24 729.028 370.088 721.805 384.079C714.582 398.064 586.471 346.312 435.661 268.482C284.852 190.652 168.457 116.221 175.68 102.236C182.909 88.2446 113.169 491.586 263.973 569.41Z" stroke="#161921" stroke-miterlimit="10"/>
<path d="M262.152 570.144C412.956 647.974 724.779 374.937 719.159 385.819C713.54 396.7 586.732 342.424 435.922 264.593C285.112 186.763 167.415 114.851 173.034 103.976C178.654 93.0998 111.342 492.319 262.152 570.144Z" stroke="#161921" stroke-miterlimit="10"/>
<path d="M260.327 570.877C411.137 648.707 720.52 379.787 716.51 387.553C712.501 395.319 586.989 338.529 436.185 260.699C285.381 182.869 166.375 113.476 170.391 105.71C174.406 97.9436 109.523 493.047 260.327 570.877Z" stroke="#161921" stroke-miterlimit="10"/>
<path d="M258.506 571.61C409.316 649.441 716.27 384.63 713.859 389.292C711.453 393.954 587.244 334.641 436.44 256.81C285.636 178.98 165.328 112.111 167.74 107.444C170.145 102.787 107.697 493.78 258.506 571.61Z" stroke="#161921" stroke-miterlimit="10"/>
<path d="M256.681 572.344C407.491 650.174 712.011 389.48 711.209 391.032C710.407 392.584 587.501 330.752 436.697 252.922C285.892 175.092 164.282 110.741 165.084 109.189C165.892 107.637 105.872 494.514 256.681 572.344Z" stroke="#161921" stroke-miterlimit="10"/>
<path d="M254.855 573.077C405.665 650.907 707.757 394.324 708.559 392.772C709.36 391.22 587.756 326.863 436.952 249.033C286.148 171.203 163.241 109.371 162.439 110.923C161.632 112.481 104.051 495.247 254.855 573.077Z" stroke="#161921" stroke-miterlimit="10"/>
<path d="M253.035 573.811C403.845 651.641 703.502 399.173 705.908 394.511C708.314 389.849 588.012 322.975 437.208 245.144C286.404 167.314 162.194 108.001 159.789 112.663C157.383 117.324 102.225 495.98 253.035 573.811Z" stroke="#161921" stroke-miterlimit="10"/>
<path d="M251.211 574.544C402.02 652.374 699.249 404.023 703.259 396.251C707.274 388.479 588.275 319.086 437.465 241.256C286.655 163.426 161.149 106.631 157.139 114.402C153.124 122.174 100.401 496.714 251.211 574.544Z" stroke="#161921" stroke-miterlimit="10"/>
<path d="M249.384 575.277C400.194 653.108 694.988 408.866 700.608 397.991C706.227 387.109 588.53 315.197 437.72 237.373C286.91 159.548 160.102 105.272 154.483 116.148C148.863 127.023 98.5801 497.447 249.384 575.277Z" stroke="#161921" stroke-miterlimit="10"/>
<path d="M247.564 576.011C398.373 653.841 690.734 413.716 697.962 399.73C705.186 385.745 588.791 311.314 437.981 233.484C287.171 155.654 159.066 103.902 151.837 117.887C144.609 131.873 96.7539 498.181 247.564 576.011Z" stroke="#161921" stroke-miterlimit="10"/>
<path d="M245.739 576.738C396.549 654.569 686.481 418.56 695.313 401.464C704.14 384.369 589.048 307.42 438.238 229.59C287.429 151.76 158.021 102.526 149.188 119.621C140.361 136.717 94.9352 498.914 245.739 576.738Z" stroke="#161921" stroke-miterlimit="10"/>
<path d="M243.918 577.472C394.728 655.302 682.225 423.403 692.662 403.204C703.099 383.004 589.303 303.531 438.493 225.701C287.683 147.871 156.973 101.156 146.537 121.361C136.1 141.56 93.1084 499.647 243.918 577.472Z" stroke="#161921" stroke-miterlimit="10"/>
<path d="M242.092 578.205C392.902 656.035 677.971 428.253 690.011 404.938C702.052 381.623 589.559 299.637 438.749 221.807C287.939 143.976 155.927 99.7856 143.886 123.095C131.846 146.404 91.2827 500.375 242.092 578.205Z" stroke="#161921" stroke-miterlimit="10"/>
<path d="M240.267 578.939C391.077 656.769 673.711 433.097 687.361 406.678C701.006 380.258 589.815 295.748 439.005 217.918C288.195 140.088 154.881 98.4154 141.236 124.834C127.592 151.254 89.4629 501.108 240.267 578.939Z" stroke="#161921" stroke-miterlimit="10"/>
<path d="M238.447 579.672C389.257 657.502 669.463 437.946 684.711 408.417C699.965 378.888 590.071 291.86 439.267 214.029C288.463 136.199 153.84 97.0453 138.592 126.568C123.343 156.092 87.6372 501.842 238.447 579.672Z" stroke="#161921" stroke-miterlimit="10"/>
<path d="M236.621 580.405C387.43 658.236 665.202 442.796 682.06 410.157C698.918 377.518 590.326 287.971 439.522 210.141C288.718 132.311 152.798 95.6752 135.941 128.308C119.083 160.941 85.811 502.575 236.621 580.405Z" stroke="#161921" stroke-miterlimit="10"/>
<path d="M234.795 581.139C385.605 658.969 660.948 447.639 679.41 411.897C697.872 376.154 590.583 284.082 439.779 206.252C288.974 128.422 151.752 94.305 133.291 130.053C114.829 165.802 83.9913 503.309 234.795 581.139Z" stroke="#161921" stroke-miterlimit="10"/>
<path d="M232.975 581.872C383.785 659.702 656.694 452.489 676.759 413.636C696.825 374.784 590.838 280.194 440.034 202.363C289.23 124.533 150.705 92.9349 130.64 131.787C110.568 170.64 82.165 504.042 232.975 581.872Z" stroke="#161921" stroke-miterlimit="10"/>
<path d="M231.15 582.606C381.959 660.436 652.44 457.338 674.109 415.376C695.779 373.414 591.1 276.305 440.29 198.48C289.481 120.656 149.659 91.5762 127.99 133.533C106.315 175.49 80.3398 504.775 231.15 582.606Z" stroke="#161921" stroke-miterlimit="10"/>
<path d="M229.324 583.339C380.134 661.169 648.18 462.182 671.459 417.116C694.738 372.049 591.357 272.416 440.547 194.592C289.737 116.767 148.619 90.2004 125.34 135.267C102.061 180.333 78.5204 505.509 229.324 583.339Z" stroke="#161921" stroke-miterlimit="10"/>
<path d="M227.505 584.067C378.314 661.897 643.926 467.026 668.815 418.85C693.703 370.673 591.618 268.528 440.809 190.697C289.999 112.867 147.578 88.8302 122.69 137.006C97.8011 185.183 76.6948 506.242 227.505 584.067Z" stroke="#161921" stroke-miterlimit="10"/>
<path d="M225.679 584.8C376.489 662.63 639.672 471.87 666.159 420.589C692.646 369.303 591.869 264.639 441.059 186.809C290.249 108.978 146.526 87.4601 120.034 138.746C93.5414 190.032 74.875 506.976 225.679 584.8Z" stroke="#161921" stroke-miterlimit="10"/>
<path d="M223.859 585.534C374.668 663.364 635.418 476.719 663.514 422.329C691.61 367.939 592.13 260.75 441.32 182.92C290.51 105.09 145.485 86.09 117.389 140.486C89.2924 194.882 73.0488 507.703 223.859 585.534Z" stroke="#161921" stroke-miterlimit="10"/>
<path d="M222.032 586.267C372.842 664.097 631.162 481.568 660.862 424.069C690.562 366.569 592.385 256.862 441.575 179.031C290.765 101.201 144.437 84.7198 114.737 142.22C85.0371 199.725 71.2222 508.437 222.032 586.267Z" stroke="#161921" stroke-miterlimit="10"/>
<path d="M220.207 587C371.017 664.83 626.903 486.412 658.207 425.803C689.511 365.193 592.636 252.967 441.826 175.137C291.017 97.3068 143.386 83.3497 112.082 143.959C80.7839 204.569 69.4032 509.17 220.207 587Z" stroke="#161921" stroke-miterlimit="10"/>
<path d="M218.387 587.734C369.197 665.564 622.655 491.262 655.562 427.542C688.47 363.823 592.898 249.079 442.093 171.248C291.289 93.4182 142.351 81.9796 109.443 145.699C76.5351 209.419 67.5772 509.903 218.387 587.734Z" stroke="#161921" stroke-miterlimit="10"/>
<path d="M216.562 588.467C367.372 666.297 618.395 496.111 652.912 429.282C687.43 362.458 593.154 245.19 442.35 167.36C291.546 89.5295 141.31 80.6094 106.793 147.433C72.2756 214.257 65.752 510.637 216.562 588.467Z" stroke="#161921" stroke-miterlimit="10"/>
<path d="M214.735 589.2C365.545 667.031 614.14 500.955 650.261 431.021C686.383 361.088 593.409 241.301 442.605 163.471C291.801 85.6408 140.263 79.2393 104.142 149.173C68.0205 219.112 63.9313 511.37 214.735 589.2Z" stroke="#161921" stroke-miterlimit="10"/>
<path d="M212.915 589.934C363.725 667.764 609.886 505.804 647.611 432.761C685.336 359.718 593.665 237.413 442.861 159.582C292.057 81.7522 139.217 77.8692 101.492 150.912C63.7665 223.956 62.1057 512.104 212.915 589.934Z" stroke="#161921" stroke-miterlimit="10"/>
<path d="M211.089 590.667C361.899 668.497 605.631 510.648 644.96 434.501C684.289 358.353 593.921 233.524 443.117 155.694C292.312 77.8635 138.17 76.5047 98.8408 152.652C59.5117 228.799 60.2852 512.837 211.089 590.667Z" stroke="#161921" stroke-miterlimit="10"/>
<path d="M209.27 591.395C360.08 669.225 601.378 515.492 642.316 436.235C683.255 356.978 594.189 229.63 443.379 151.805C292.569 73.9805 137.13 75.1346 96.1969 154.392C55.2526 233.649 58.4603 513.57 209.27 591.395Z" stroke="#161921" stroke-miterlimit="10"/>
<path d="M207.445 592.128C358.255 669.958 597.124 520.341 639.667 437.974C682.209 355.607 594.445 225.747 443.636 147.916C292.826 70.0862 136.09 73.7645 93.5416 156.131C50.9991 238.498 56.6353 514.304 207.445 592.128Z" stroke="#161921" stroke-miterlimit="10"/>
<path d="M205.618 592.862C356.428 670.692 592.863 525.185 637.009 439.714C681.156 354.243 594.694 221.858 443.885 144.028C293.075 66.1975 135.036 72.3944 90.8842 157.871C46.7321 243.348 54.8141 515.032 205.618 592.862Z" stroke="#161921" stroke-miterlimit="10"/>
<path d="M203.799 593.595C354.609 671.425 588.61 530.035 634.366 441.454C680.122 352.873 594.957 217.969 444.147 140.139C293.337 62.3088 133.996 71.0242 88.2404 159.611C42.4845 248.197 52.9893 515.765 203.799 593.595Z" stroke="#161921" stroke-miterlimit="10"/>
<path d="M201.973 594.328C352.783 672.159 584.355 534.884 631.715 443.194C679.074 351.503 595.212 214.081 444.402 136.25C293.593 58.4202 132.949 69.6598 85.5895 161.35C38.2297 253.041 51.1631 516.498 201.973 594.328Z" stroke="#161921" stroke-miterlimit="10"/>
<path d="M200.147 595.062C350.957 672.892 580.095 539.728 629.059 444.927C678.022 350.127 595.462 210.186 444.653 132.356C293.843 54.5257 131.897 68.2838 82.9334 163.084C33.9697 257.885 49.343 517.232 200.147 595.062Z" stroke="#161921" stroke-miterlimit="10"/>
<path d="M198.326 595.795C349.136 673.625 575.846 544.577 626.413 446.667C676.981 348.757 595.723 206.297 444.914 128.467C294.104 50.6371 130.856 66.9138 80.2881 164.824C29.7205 262.729 47.5167 517.965 198.326 595.795Z" stroke="#161921" stroke-miterlimit="10"/>
<path d="M196.501 596.529C347.31 674.359 571.586 549.427 623.763 448.407C675.94 347.387 595.979 202.409 445.175 124.579C294.371 46.7485 129.82 65.5437 77.6434 166.558C25.4662 267.578 45.6967 518.698 196.501 596.529Z" stroke="#161921" stroke-miterlimit="10"/>
<path d="M194.677 597.262C345.487 675.092 567.333 554.271 621.114 450.146C674.895 346.022 596.237 198.52 445.433 120.69C294.629 42.8598 128.776 64.1736 74.9948 168.298C21.2138 272.422 43.8728 519.432 194.677 597.262Z" stroke="#161921" stroke-miterlimit="10"/>
<path d="M192.856 597.995C343.666 675.826 563.079 559.12 618.463 451.886C673.848 344.652 596.493 194.631 445.689 116.801C294.884 38.9711 127.729 62.8091 72.344 170.037C16.9591 277.271 42.0467 520.165 192.856 597.995Z" stroke="#161921" stroke-miterlimit="10"/>
<path d="M191.03 598.723C341.84 676.553 558.824 563.958 615.813 453.62C672.801 343.282 596.748 190.737 445.944 112.907C295.14 35.0768 126.682 61.4333 69.6932 171.771C12.6987 282.115 40.2262 520.899 191.03 598.723Z" stroke="#161921" stroke-miterlimit="10"/>
<path d="M189.21 599.456C340.02 677.287 554.569 568.808 613.168 455.36C671.766 341.912 597.009 186.848 446.205 109.024C295.401 31.1995 125.641 60.0689 67.0481 173.517C8.45549 286.965 38.4002 521.632 189.21 599.456Z" stroke="#161921" stroke-miterlimit="10"/>
<path d="M187.384 600.19C338.194 678.02 550.315 573.657 610.511 457.099C670.708 340.542 597.265 182.96 446.455 105.135C295.646 27.3108 124.588 58.6987 64.392 175.256C4.19549 291.814 36.5744 522.36 187.384 600.19Z" stroke="#161921" stroke-miterlimit="10"/>
<path d="M185.559 600.923C336.369 678.753 546.056 578.501 607.862 458.839C669.668 339.177 597.522 179.077 446.712 101.247C295.902 23.4165 123.548 57.3286 61.7365 176.996C-0.075207 296.664 34.755 523.093 185.559 600.923Z" stroke="#161921" stroke-miterlimit="10"/>
<path d="M183.74 601.657C334.549 679.487 541.802 583.35 605.217 460.579C668.627 337.807 597.784 175.188 446.974 97.358C296.164 19.5278 122.508 55.9642 59.0923 178.736C-4.32336 301.507 32.9298 523.826 183.74 601.657Z" stroke="#161921" stroke-miterlimit="10"/>
<path d="M181.913 602.39C332.723 680.22 537.547 588.2 602.566 462.318C667.586 336.437 598.039 171.299 447.229 93.4693C296.419 15.6391 121.46 54.594 56.4409 180.475C-8.57864 306.357 31.103 524.56 181.913 602.39Z" stroke="#161921" stroke-miterlimit="10"/>
<path d="M180.088 603.123C330.898 680.954 533.288 593.044 599.911 464.058C666.534 335.073 598.29 167.411 447.48 89.5806C296.671 11.7505 120.409 53.2239 53.7859 182.215C-12.8375 311.206 29.2841 525.293 180.088 603.123Z" stroke="#161921" stroke-miterlimit="10"/>
<path d="M178.267 603.857C329.077 681.687 529.038 597.893 597.266 465.792C665.493 333.691 598.551 163.516 447.741 85.6863C296.931 7.85613 119.368 51.8481 51.1404 183.949C-17.0868 316.044 27.4577 526.027 178.267 603.857Z" stroke="#161921" stroke-miterlimit="10"/>
<path d="M176.442 604.59C327.252 682.42 524.779 602.737 594.616 467.532C664.453 332.327 598.808 159.628 447.998 81.7976C297.188 3.96745 118.328 50.4779 48.4907 185.689C-21.3461 320.899 25.6384 526.76 176.442 604.59Z" stroke="#161921" stroke-miterlimit="10"/>
<path d="M174.622 605.324C325.432 683.154 520.53 607.586 591.971 469.271C663.412 330.957 599.069 155.739 448.265 77.909C297.461 0.0787797 117.292 49.1135 45.8514 187.423C-25.5893 325.732 23.8124 527.493 174.622 605.324Z" stroke="#161921" stroke-miterlimit="10"/>
<path d="M172.797 606.051C323.607 683.881 516.271 612.43 589.315 471.005C662.36 329.581 599.319 151.845 448.515 74.0146C297.711 -3.81557 116.24 47.7377 43.1957 189.157C-29.8488 330.576 21.987 528.227 172.797 606.051Z" stroke="#161921" stroke-miterlimit="10"/>
<path d="M170.971 606.785C321.781 684.615 512.017 617.274 586.665 472.745C661.314 328.216 599.581 147.962 448.772 70.1316C297.962 -7.69855 115.194 46.3732 40.5457 190.902C-34.1027 335.431 20.1674 528.955 170.971 606.785Z" stroke="#161921" stroke-miterlimit="10"/>
<path d="M169.151 607.518C319.961 685.348 507.762 622.123 584.02 474.485C660.278 326.846 599.837 144.073 449.027 66.243C298.217 -11.5872 114.147 45.0031 37.8949 192.642C-38.3574 340.28 18.3413 529.688 169.151 607.518Z" stroke="#161921" stroke-miterlimit="10"/>
<path d="M308.306 642.482C138.585 642.482 0.999329 504.952 0.999329 335.3C0.999329 165.648 138.585 28.1182 308.306 28.1182C478.027 28.1182 615.613 165.648 615.613 335.3C615.613 504.952 478.027 642.482 308.306 642.482Z" stroke="#161921" stroke-miterlimit="10"/>
</g>
</svg>
