<svg width="84" height="32" viewBox="0 0 84 32" fill="none" xmlns="http://www.w3.org/2000/svg">
<path d="M5.16969 32.0002C4.24543 32.0002 3.34758 31.7097 2.58176 31.1639C1.23498 30.1956 0.345931 28.7695 0.0818569 27.1321C-0.182217 25.4948 0.196289 23.8574 1.16456 22.5105C3.98135 18.5932 9.45649 17.6953 13.3648 20.5123C13.5849 20.6707 13.6289 20.97 13.4792 21.1901C13.3208 21.4102 13.0215 21.4542 12.8014 21.3045C9.32446 18.8045 4.45669 19.5967 1.94798 23.0827C1.12935 24.2183 0.80366 25.6004 1.03252 26.9825C1.26139 28.3645 2.0096 29.5706 3.14512 30.3892C3.90213 30.935 4.81759 31.1463 5.73305 30.9966C6.6485 30.847 7.44953 30.3452 7.99528 29.597C8.34738 29.104 8.48822 28.5054 8.39139 27.9156C8.29457 27.317 7.96887 26.7976 7.47594 26.4455C6.84216 25.9877 5.95311 26.1374 5.49538 26.7712C5.36334 26.9561 5.31053 27.1761 5.35454 27.3874C5.38975 27.6075 5.51299 27.8012 5.68903 27.9244C5.78586 27.9948 5.89149 28.0212 6.00592 28.0036C6.12035 27.986 6.21718 27.9244 6.2876 27.8364C6.44605 27.6163 6.74533 27.5723 6.96539 27.7219C7.18545 27.8804 7.22947 28.1797 7.07982 28.3997C6.85976 28.6991 6.54287 28.9015 6.17317 28.9631C5.80347 29.0248 5.43376 28.9367 5.13448 28.7167C4.74717 28.435 4.4831 28.0212 4.41268 27.5459C4.33345 27.0705 4.44789 26.5951 4.72956 26.2078C5.49538 25.1426 6.9918 24.8962 8.0569 25.662C8.7611 26.1638 9.21883 26.912 9.35967 27.7659C9.50051 28.6198 9.29805 29.4737 8.79631 30.1692C8.10091 31.1375 7.07983 31.7713 5.9091 31.965C5.65383 31.9826 5.40736 32.0002 5.16969 32.0002Z" fill="#DFB68D"/>
<path d="M24.1038 24.6049C22.0968 24.6049 20.1515 24.3585 18.2942 23.8567C13.5761 22.5714 10.1695 19.6841 9.16601 16.1276C7.33509 9.59582 10.6008 5.37038 13.9546 3.74182C17.3347 2.09566 20.9261 2.7999 22.8979 5.48481C24.2359 7.30704 24.4559 9.68385 23.47 11.5413C22.6338 13.1082 21.1286 13.9621 19.3505 13.8829C16.6481 13.7685 15.7415 11.6997 15.6446 10.6258C15.6182 10.3617 15.8119 10.124 16.0848 10.0976C16.3488 10.0712 16.5865 10.2649 16.6129 10.5377C16.6217 10.6434 16.8858 12.8089 19.3945 12.9146C20.7853 12.9674 21.9648 12.3071 22.6162 11.0835C23.4348 9.5518 23.2324 7.57994 22.1145 6.05702C20.1691 3.39851 16.8242 3.4161 14.3683 4.61331C11.349 6.08341 8.4266 9.91273 10.0903 15.8636C10.9969 19.0855 14.1482 21.7264 18.5318 22.9148C28.2498 25.5557 40.5821 20.8373 51.5323 10.2913C59.2609 2.84392 66.4613 -0.263544 72.94 1.0481C79.6122 2.39496 83.3269 8.16093 83.9607 9.63104C84.0663 9.87752 83.9519 10.1592 83.7054 10.2649C83.4589 10.3705 83.1772 10.256 83.0716 10.0096C82.4818 8.63629 79.0137 3.25765 72.7551 1.99002C66.6022 0.739992 59.6922 3.76823 52.2101 10.9779C43.0908 19.7809 32.9767 24.6049 24.1038 24.6049Z" fill="#DFB68D"/>
<path d="M65.9684 24.6756C65.6251 24.6756 65.2818 24.6492 64.9385 24.6052C62.8876 24.3323 61.0655 23.276 59.8155 21.6386C56.1449 16.841 57.0515 9.94821 61.8577 6.26855C68.6972 1.03956 78.512 2.34241 83.7406 9.17355C83.8991 9.38482 83.8639 9.69293 83.6526 9.85138C83.4414 10.0186 83.1333 9.97462 82.9748 9.76335C78.063 3.35476 68.8556 2.13114 62.4474 7.04322C58.0726 10.3972 57.2364 16.6737 60.5901 21.0488C61.6904 22.4837 63.2837 23.408 65.0794 23.6457C66.8663 23.8834 68.6532 23.408 70.088 22.3076C72.0774 20.7847 72.4559 17.9325 70.933 15.9431C70.4489 15.3092 69.7447 14.9043 68.9525 14.7987C68.1603 14.693 67.368 14.9043 66.7343 15.3885C65.8892 16.0311 65.7308 17.2459 66.3733 18.091C66.7695 18.6104 67.5177 18.7072 68.037 18.3111C68.2483 18.1526 68.5564 18.1878 68.7148 18.3991C68.8733 18.6104 68.838 18.9185 68.6268 19.0769C67.6849 19.7988 66.3293 19.6227 65.6075 18.6808C64.6393 17.4132 64.8769 15.5909 66.1445 14.6226C66.9895 13.98 68.0282 13.6983 69.0757 13.8391C70.1232 13.98 71.0563 14.517 71.6988 15.3621C73.5474 17.7741 73.0896 21.2425 70.6778 23.0823C69.287 24.1299 67.6585 24.6756 65.9684 24.6756Z" fill="#DFB68D"/>
<path d="M28.1353 21.4011C30.5384 21.1282 32.8447 20.3447 35.0453 19.4028C37.2547 18.4609 39.3673 17.2989 41.3655 15.9784C43.3636 14.6492 45.309 13.2407 47.1223 11.665C48.9532 10.1245 50.7401 8.46068 52.6238 6.92896C54.5076 5.39723 56.4617 3.92713 58.5743 2.6771C60.6869 1.44468 63.0019 0.414739 65.4754 0.115437C67.9489 -0.210274 70.4488 0.177054 72.7551 0.978128C75.0525 1.82322 77.2003 2.9764 79.2161 4.31446C77.0859 3.17007 74.9029 2.10492 72.6054 1.43589C70.3168 0.74045 67.9049 0.467549 65.5811 0.863684C63.2572 1.25102 61.0566 2.20175 59.0232 3.44297C56.9811 4.67539 55.0885 6.1543 53.2312 7.67722C49.499 10.679 45.9868 14.1386 41.7528 16.6035C39.6666 17.8623 37.4924 18.9803 35.2125 19.843C32.9415 20.6528 30.5736 21.3395 28.1353 21.4011Z" fill="#DFB68D"/>
<path d="M34.2531 28.9805C32.6246 28.9805 31.3923 28.5491 30.5912 28.1354C27.1671 26.366 25.7499 22.3606 26.5773 19.7285C27.8801 15.5647 31.4715 14.4995 34.2531 15.2742C36.6826 15.952 38.7775 18.1792 38.0557 21.1282C37.6068 22.9856 36.4449 24.3061 34.9485 24.6494C33.8482 24.9047 32.7743 24.579 32.1493 23.8131C31.5155 23.0472 31.4451 21.9557 31.9556 20.8201L32.8359 21.2162C32.4838 22.0173 32.5014 22.7215 32.8975 23.1969C33.2848 23.6722 34.0066 23.8747 34.7372 23.7075C35.283 23.5842 36.5945 23.0648 37.1139 20.8993C37.7124 18.4433 35.9167 16.7443 33.989 16.2073C31.5683 15.5383 28.6195 16.4538 27.4928 20.019C26.7974 22.2285 28.0825 25.7586 31.0314 27.2815C33.4873 28.5491 40.3708 29.94 51.3123 15.5295C57.5708 7.28105 64.0319 2.88835 70.5105 2.49222C77.4292 2.06087 81.7248 6.37434 81.9009 6.5592L81.2055 7.23704C81.1615 7.19302 77.0419 3.0644 70.5545 3.46054C64.3751 3.84787 58.1606 8.10853 52.0781 16.1193C44.1118 26.6213 38.0733 28.9805 34.2531 28.9805Z" fill="#DFB68D"/>
</svg>
