<svg width="232" height="133" viewBox="0 0 232 133" fill="none" xmlns="http://www.w3.org/2000/svg">
<path d="M23.3437 58.7102C23.7514 58.0847 24.1313 57.6483 24.4834 57.401C24.8355 57.1538 25.1696 56.9585 25.4858 56.8153C25.6512 56.7325 25.7816 56.6666 25.8771 56.6177C25.9688 56.5503 26.0401 56.4775 26.0911 56.3993C26.1639 56.2876 26.1536 56.1692 26.0601 56.044C25.9739 55.9076 25.8192 55.7421 25.5959 55.5475L25.847 55.1621C26.0515 55.3124 26.2857 55.4902 26.5497 55.6956C26.821 55.8898 27.187 56.1463 27.6478 56.465C28.1046 56.7651 28.7119 57.1642 29.4697 57.6621L29.2185 58.0474C28.6284 57.7075 27.9986 57.4772 27.3293 57.3565C26.6673 57.2246 26.0381 57.2499 25.4417 57.4324C24.8414 57.5964 24.3411 57.9856 23.9407 58.6C23.584 59.1473 23.4471 59.7115 23.53 60.2924C23.6202 60.8622 23.9383 61.3265 24.4843 61.6853C24.9523 61.9928 25.4244 62.1354 25.9004 62.1132C26.3653 62.0836 26.8865 61.9554 27.464 61.7286C28.0376 61.4833 28.7068 61.1891 29.4715 60.846C30.1848 60.533 30.8617 60.2758 31.5022 60.0744C32.1316 59.8658 32.7381 59.7776 33.3217 59.8101C33.9125 59.8314 34.5144 60.0434 35.1273 60.4461C35.8516 60.922 36.3368 61.4961 36.583 62.1684C36.8292 62.8407 36.8728 63.5553 36.7137 64.3123C36.5546 65.0693 36.242 65.8052 35.7761 66.5201C35.3466 67.1792 34.9376 67.6602 34.5491 67.9634C34.1678 68.2553 33.8138 68.4933 33.4869 68.6774C33.1708 68.8206 32.969 68.9593 32.8816 69.0933C32.8088 69.205 32.8155 69.3291 32.9017 69.4655C32.9951 69.5907 33.1535 69.7506 33.3768 69.9452L33.1257 70.3306C32.8839 70.1398 32.5904 69.931 32.2449 69.704C31.9068 69.4658 31.4647 69.1674 30.9187 68.8086C30.3688 68.4314 29.6704 67.9645 28.8235 67.4081L29.0747 67.0227C29.817 67.4466 30.5656 67.763 31.3207 67.972C32.0719 68.1624 32.7752 68.1699 33.4307 67.9943C34.0935 67.8076 34.6579 67.3568 35.1238 66.6419C35.3786 66.2509 35.5411 65.8551 35.6112 65.4545C35.6774 65.0354 35.6276 64.6357 35.4616 64.2554C35.2845 63.8678 34.9675 63.524 34.5107 63.2238C34.0538 62.9236 33.5835 62.7661 33.0997 62.7514C32.616 62.7366 32.0999 62.8203 31.5515 63.0024C31.0031 63.1845 30.4055 63.43 29.7586 63.7389C29.0821 64.0442 28.422 64.3124 27.778 64.5434C27.1341 64.7744 26.5039 64.8868 25.8873 64.8805C25.2668 64.8557 24.6446 64.6383 24.0206 64.2283C23.3297 63.7744 22.8762 63.2371 22.66 62.6164C22.4327 61.9884 22.3879 61.3368 22.5256 60.6615C22.6706 59.975 22.9433 59.3246 23.3437 58.7102Z" fill="#010F1C"/>
<path d="M40.5312 38.1223L40.8206 38.3983C40.5563 38.7359 40.4042 39.0422 40.3642 39.3173C40.3238 39.5735 40.3966 39.8457 40.5829 40.1339C40.7595 40.4128 41.0649 40.7594 41.499 41.1735L45.508 44.9971C46.1545 45.6136 46.6921 46.2093 47.121 46.7842C47.5591 47.3495 47.8563 47.9277 48.0127 48.5191C48.1889 49.1477 48.1733 49.8239 47.966 50.5474C47.7583 51.2521 47.3291 51.9483 46.6785 52.636C46.2387 53.1009 45.7504 53.5104 45.2136 53.8644C44.686 54.2087 44.1171 54.4124 43.5069 54.4753C42.972 54.5363 42.4629 54.5021 41.9796 54.3728C41.5054 54.2338 41.0189 53.9817 40.5201 53.6165C40.0116 53.2421 39.4438 52.7558 38.8167 52.1577L34.2722 47.8234C33.9152 47.4829 33.6272 47.2635 33.4082 47.1651C33.1887 47.0479 32.9721 47.0441 32.7585 47.1535C32.5443 47.2441 32.2812 47.4446 31.9692 47.755L31.6798 47.4789C31.9185 47.246 32.2213 46.9452 32.5883 46.5767C32.9553 46.2081 33.345 45.8059 33.7573 45.37C34.133 44.9729 34.4993 44.576 34.8562 44.1794C35.213 43.7828 35.5058 43.4539 35.7344 43.1929L36.0238 43.4689C35.7219 43.8075 35.5223 44.0961 35.4249 44.3349C35.327 44.5548 35.3374 44.7766 35.4561 45.0003C35.5652 45.2149 35.7982 45.4924 36.1552 45.8329L41.3943 50.8298C41.8768 51.2899 42.3433 51.6795 42.7938 51.9987C43.2439 52.299 43.6776 52.5099 44.0948 52.6315C44.5213 52.7434 44.9351 52.7328 45.3364 52.5996C45.7469 52.4567 46.1537 52.1722 46.5568 51.746C47.2257 51.039 47.5842 50.3399 47.6324 49.6488C47.6805 48.9576 47.4932 48.2631 47.0705 47.5652C46.6479 46.8673 46.0747 46.1732 45.3511 45.4831L41.2987 41.6181C40.8259 41.1672 40.432 40.856 40.117 40.6845C39.802 40.5131 39.4904 40.4738 39.1822 40.5668C38.8832 40.6501 38.5359 40.8717 38.1405 41.2315L37.851 40.9554C38.0347 40.7806 38.2689 40.5525 38.5534 40.2711C38.8471 39.98 39.1131 39.7086 39.3513 39.4568C39.5804 39.2146 39.8001 38.9727 40.0103 38.731C40.2298 38.4797 40.4034 38.2768 40.5312 38.1223Z" fill="#010F1C"/>
<path d="M46.9809 32.4824C47.2594 32.2988 47.6137 32.0608 48.0438 31.7683C48.4739 31.4759 48.9001 31.178 49.3225 30.8747C49.8532 30.4936 50.3529 30.1265 50.8217 29.7735C51.2905 29.4204 51.6224 29.1739 51.8173 29.0339C53.0953 28.1162 54.2185 27.6707 55.187 27.6975C56.1663 27.7165 56.9229 28.1007 57.4566 28.85C57.7274 29.2301 57.8952 29.6841 57.9602 30.212C58.036 30.7321 57.9601 31.3036 57.7327 31.9265C57.5161 32.5417 57.1099 33.1781 56.5143 33.8356L56.5375 33.8682C57.5524 33.2707 58.4443 32.9257 59.2133 32.8331C59.9853 32.7219 60.6374 32.7871 61.1696 33.0287C61.6941 33.2594 62.1149 33.5974 62.432 34.0427C62.9039 34.7052 63.1367 35.3997 63.1305 36.1265C63.1274 36.8345 62.8953 37.5429 62.4342 38.2515C61.9732 38.9602 61.2932 39.6373 60.3943 40.2828C60.156 40.4539 59.7893 40.709 59.2942 41.0481C58.7914 41.3763 58.1934 41.7893 57.5003 42.2871C57.0563 42.6059 56.6269 42.9225 56.2123 43.2366C55.7899 43.54 55.4511 43.7997 55.1958 44.0158L54.9637 43.69C55.3057 43.4117 55.5401 43.1777 55.6669 42.9881C55.8046 42.7907 55.8309 42.5748 55.7459 42.3405C55.6716 42.0983 55.4952 41.7818 55.2168 41.3908L49.4617 33.3109C49.1755 32.909 48.9341 32.6392 48.7376 32.5012C48.5442 32.3446 48.3323 32.2998 48.1018 32.3669C47.8743 32.4153 47.5781 32.5624 47.2129 32.8082L46.9809 32.4824ZM51.7616 29.5417C51.3176 29.8606 51.0909 30.1629 51.0816 30.4486C51.0831 30.7266 51.285 31.1479 51.6873 31.7127L57.4424 39.7926C57.7131 40.1727 57.9506 40.4371 58.1548 40.586C58.359 40.7348 58.5656 40.7834 58.7744 40.7319C58.9833 40.6805 59.2448 40.5419 59.5588 40.3164C60.4469 39.6787 60.9118 38.9755 60.9536 38.2068C60.9985 37.4194 60.6961 36.5697 60.0463 35.6574C59.4507 34.8212 58.7738 34.3305 58.0157 34.1855C57.2685 34.0327 56.4021 34.3102 55.4165 35.0179L53.9382 36.0795C53.9382 36.0795 53.9073 36.036 53.8454 35.9491C53.7758 35.8514 53.741 35.8025 53.741 35.8025L55.1381 34.7993C55.6904 34.4026 56.0331 33.976 56.1662 33.5193C56.2915 33.0517 56.2652 32.5782 56.0873 32.0986C55.9017 31.6081 55.6425 31.1294 55.3099 30.6624C54.7375 29.8588 54.1674 29.3571 53.5996 29.1575C53.0241 28.947 52.4114 29.0751 51.7616 29.5417Z" fill="#010F1C"/>
<path d="M68.7112 18.6818C69.3861 18.3623 69.9383 18.1894 70.3678 18.163C70.7974 18.1367 71.1844 18.1453 71.5288 18.1887C71.7131 18.2047 71.8588 18.2169 71.9658 18.2252C72.0792 18.2158 72.1781 18.1911 72.2624 18.1512C72.3829 18.0941 72.4361 17.9878 72.422 17.8322C72.4199 17.6709 72.3746 17.449 72.2861 17.1663L72.7018 16.9695C72.7975 17.2045 72.9041 17.4786 73.0216 17.7917C73.1513 18.0992 73.3291 18.5092 73.5551 19.0218C73.7874 19.5166 74.0963 20.1743 74.4817 20.995L74.0659 21.1919C73.7407 20.5935 73.3245 20.0677 72.8171 19.6146C72.3217 19.1557 71.7721 18.848 71.1683 18.6913C70.5708 18.5169 69.9407 18.5865 69.2779 18.9003C68.6874 19.1799 68.2754 19.5888 68.0421 20.1271C67.8208 20.6597 67.8491 21.2217 68.1268 21.813C68.3648 22.3199 68.6925 22.6885 69.11 22.9186C69.5217 23.1368 70.0331 23.3003 70.644 23.4094C71.2614 23.5007 71.9857 23.6003 72.8171 23.7082C73.589 23.8149 74.3006 23.9501 74.9519 24.1137C75.5976 24.2654 76.1607 24.5077 76.6412 24.8408C77.1337 25.1682 77.5358 25.6638 77.8475 26.3276C78.2159 27.1121 78.3292 27.8551 78.1872 28.5566C78.0453 29.2582 77.7085 29.8897 77.1767 30.4512C76.645 31.0128 75.9935 31.4761 75.2222 31.8413C74.5112 32.1779 73.9108 32.3736 73.421 32.4285C72.9433 32.4776 72.5169 32.4951 72.142 32.4808C71.7975 32.4374 71.553 32.4499 71.4084 32.5184C71.2879 32.5754 71.2287 32.6846 71.2307 32.8459C71.2449 33.0014 71.2962 33.2206 71.3847 33.5032L70.969 33.7C70.8627 33.411 70.7218 33.0795 70.5461 32.7053C70.3824 32.3255 70.1618 31.8399 69.8841 31.2485C69.6127 30.6394 69.2617 29.8762 68.831 28.9589L69.2467 28.7621C69.6577 29.5117 70.1303 30.173 70.6646 30.7462C71.2052 31.3016 71.8009 31.6761 72.4515 31.8696C73.1142 32.0574 73.8312 31.9688 74.6024 31.6036C75.0242 31.4039 75.3698 31.1518 75.6392 30.8472C75.915 30.5249 76.0817 30.1583 76.1392 29.7475C76.1911 29.3247 76.1008 28.8658 75.8684 28.371C75.6361 27.8762 75.3176 27.4959 74.9129 27.2302C74.5082 26.9644 74.0245 26.7656 73.4618 26.6338C72.899 26.5019 72.2611 26.3982 71.5481 26.3227C70.8117 26.2288 70.1086 26.1117 69.4388 25.9715C68.769 25.8313 68.173 25.5972 67.6507 25.2691C67.1348 24.9233 66.7181 24.4125 66.4007 23.7366C66.0493 22.9883 65.9439 22.2933 66.0844 21.6514C66.2192 20.9975 66.522 20.419 66.9928 19.9158C67.4756 19.4069 68.0484 18.9956 68.7112 18.6818Z" fill="#010F1C"/>
<path d="M88.7368 11.318C89.588 11.0949 90.318 11.0414 90.9268 11.1575C91.5452 11.2573 92.1108 11.4192 92.6236 11.6431C92.9319 11.7691 93.1321 11.7442 93.2242 11.5684C93.3258 11.3764 93.3302 10.9961 93.2376 10.4277L93.6825 10.3111C93.7842 10.8082 93.9209 11.4133 94.0925 12.1265C94.2641 12.8396 94.5009 13.7768 94.8029 14.9382L94.3579 15.0549C94.1295 14.4945 93.9199 14.0325 93.729 13.6691C93.5347 13.2927 93.3168 12.9845 93.0753 12.7446C92.8467 12.5012 92.557 12.2877 92.2062 12.104C91.7573 11.8082 91.2643 11.6341 90.7272 11.5819C90.1997 11.5135 89.6715 11.5485 89.1427 11.6871C88.472 11.8629 87.9322 12.1974 87.5231 12.6906C87.1236 13.1674 86.8367 13.7595 86.6624 14.4668C86.4976 15.1579 86.4371 15.9318 86.4807 16.7888C86.5373 17.6423 86.6847 18.5272 86.9229 19.4434C87.1678 20.3854 87.4798 21.2409 87.8588 22.01C88.2474 22.7627 88.6882 23.3984 89.1812 23.917C89.6838 24.4193 90.2302 24.7723 90.8204 24.976C91.4235 25.1763 92.0604 25.1885 92.7311 25.0127C93.2083 24.8876 93.675 24.6688 94.131 24.3563C94.587 24.0438 94.9276 23.6582 95.1528 23.1995C95.4778 22.7008 95.6489 22.1666 95.6661 21.5969C95.6799 21.0144 95.6163 20.2661 95.4751 19.352L95.92 19.2354C96.2354 20.4484 96.4968 21.4274 96.7043 22.1725C96.9084 22.9047 97.0888 23.519 97.2454 24.0155L96.8005 24.1322C96.6046 23.5908 96.4238 23.266 96.2579 23.1579C96.1049 23.0464 95.91 23.1181 95.6732 23.3732C95.2833 23.8338 94.851 24.2641 94.3764 24.6642C93.9113 25.048 93.2596 25.3497 92.4212 25.5695C91.1057 25.9143 89.8792 25.9394 88.7418 25.6448C87.6045 25.3503 86.6226 24.753 85.7963 23.8531C84.9828 22.9499 84.3848 21.7627 84.0024 20.2916C83.6266 18.8463 83.5816 17.5073 83.8673 16.2746C84.153 15.0419 84.7135 13.9921 85.549 13.1253C86.3844 12.2585 87.447 11.6561 88.7368 11.318Z" fill="#010F1C"/>
<path d="M103.623 8.62533C103.956 8.61855 104.383 8.60613 104.903 8.58809C105.423 8.57005 105.942 8.54535 106.461 8.514C107.113 8.47461 107.732 8.43058 108.316 8.3819C108.901 8.33322 109.313 8.30164 109.553 8.28717C110.751 8.21482 111.744 8.30174 112.534 8.54793C113.336 8.78 113.945 9.14391 114.362 9.63967C114.78 10.1354 115.009 10.736 115.051 11.4414C115.078 11.8806 115.018 12.3384 114.873 12.8146C114.727 13.2776 114.453 13.715 114.05 14.1267C113.647 14.5384 113.081 14.8932 112.351 15.191C111.633 15.4748 110.702 15.6513 109.558 15.7204L107.641 15.8362L107.617 15.4369L109.334 15.3332C110.172 15.2826 110.802 15.0976 111.224 14.7782C111.658 14.4448 111.934 14.0274 112.051 13.5261C112.18 13.0107 112.227 12.4469 112.19 11.8346C112.127 10.7832 111.872 9.98378 111.425 9.4364C110.977 8.8757 110.248 8.6259 109.236 8.68699C108.691 8.71995 108.338 8.85479 108.179 9.0915C108.032 9.3274 107.98 9.7914 108.022 10.4835L108.615 20.3857C108.644 20.8649 108.705 21.2218 108.799 21.4566C108.893 21.6913 109.049 21.8422 109.267 21.9092C109.498 21.9754 109.827 22.0089 110.255 22.0098L110.279 22.4091C109.944 22.4026 109.518 22.415 108.999 22.4463C108.479 22.4644 107.953 22.4895 107.42 22.5216C106.822 22.5578 106.263 22.5982 105.745 22.6429C105.226 22.6742 104.801 22.7133 104.469 22.76L104.445 22.3607C104.883 22.3076 105.206 22.2346 105.414 22.1419C105.636 22.0484 105.772 21.8798 105.825 21.6362C105.89 21.3918 105.909 21.0301 105.88 20.5509L105.287 10.6487C105.257 10.1562 105.196 9.7993 105.102 9.57786C105.021 9.34231 104.865 9.19144 104.634 9.12525C104.416 9.04494 104.087 9.0114 103.647 9.02462L103.623 8.62533ZM107.621 15.4968C108.248 15.4856 108.769 15.4875 109.184 15.5026C109.611 15.5035 109.972 15.5084 110.267 15.5173C110.574 15.5254 110.849 15.5422 111.091 15.5677C112.202 15.6074 113.03 15.8179 113.573 16.1992C114.13 16.5663 114.519 17.1572 114.741 17.972L115.324 20.0006C115.476 20.539 115.626 20.924 115.774 21.1555C115.934 21.373 116.146 21.467 116.412 21.4376C116.598 21.4263 116.755 21.3701 116.882 21.2689C117.009 21.1544 117.134 21.0066 117.257 20.8255L117.55 21.0482C117.242 21.4809 116.908 21.8083 116.547 22.0305C116.186 22.2393 115.719 22.361 115.147 22.3956C114.508 22.4342 113.96 22.3203 113.503 22.054C113.046 21.7745 112.712 21.2202 112.502 20.3914L112.003 18.4179C111.863 17.8653 111.707 17.3805 111.535 16.9634C111.377 16.5456 111.171 16.2241 110.917 15.999C110.663 15.7739 110.303 15.6754 109.837 15.7035L107.681 15.8338L107.621 15.4968Z" fill="#010F1C"/>
<path d="M130.146 8.85983L130.106 9.25784C129.68 9.22828 129.35 9.24856 129.115 9.31868C128.895 9.37687 128.733 9.52135 128.629 9.75213C128.527 9.96964 128.452 10.3238 128.403 10.8147L127.415 20.6854C127.367 21.163 127.371 21.5253 127.427 21.7721C127.482 22.0189 127.612 22.1929 127.817 22.2939C128.034 22.3962 128.354 22.4821 128.776 22.5515L128.736 22.9495C128.407 22.8895 127.984 22.8334 127.466 22.7812C126.95 22.7157 126.427 22.6562 125.896 22.6027C125.299 22.5425 124.742 22.4929 124.223 22.454C123.705 22.4018 123.28 22.3722 122.945 22.3653L122.985 21.9673C123.426 21.9849 123.756 21.9646 123.976 21.9064C124.21 21.8496 124.372 21.7051 124.462 21.473C124.565 21.2422 124.641 20.888 124.689 20.4104L125.676 10.5397C125.725 10.0488 125.722 9.68659 125.664 9.45302C125.622 9.20752 125.492 9.03359 125.274 8.93124C125.072 8.81696 124.752 8.7311 124.315 8.67367L124.355 8.27566C124.686 8.32238 125.109 8.37847 125.625 8.44393C126.141 8.5094 126.697 8.57224 127.294 8.63246C127.825 8.686 128.35 8.73223 128.868 8.77115C129.387 8.81008 129.813 8.83964 130.146 8.85983Z" fill="#010F1C"/>
<path d="M138.94 10.1932C139.259 10.2906 139.668 10.4117 140.168 10.5564C140.667 10.7012 141.169 10.8395 141.672 10.9713C142.304 11.137 142.905 11.2877 143.476 11.4236C144.047 11.5594 144.448 11.6577 144.68 11.7186C146.409 12.1716 147.6 12.8628 148.254 13.7923C148.92 14.7252 149.108 15.753 148.816 16.8756C148.695 17.3402 148.484 17.8086 148.182 18.2808C147.883 18.7401 147.471 19.1351 146.944 19.4656C146.421 19.7833 145.762 19.983 144.97 20.0647C144.19 20.1497 143.245 20.0469 142.136 19.7561L140.202 19.249L140.302 18.8619L142.043 19.3183C142.856 19.5313 143.52 19.5193 144.037 19.2825C144.566 19.049 144.975 18.667 145.264 18.1364C145.567 17.6091 145.804 17.0165 145.975 16.3583C146.293 15.1324 146.332 14.1638 146.09 13.4525C145.847 12.7412 145.236 12.2571 144.256 12.0002C143.727 11.8616 143.35 11.88 143.126 12.0554C142.914 12.2342 142.721 12.6591 142.546 13.3301L140.07 22.8536C139.943 23.3439 139.899 23.7252 139.938 23.9974C139.978 24.2697 140.136 24.4834 140.412 24.6386C140.689 24.7937 141.103 24.9505 141.654 25.1087L141.548 25.5152C141.181 25.3914 140.701 25.2517 140.107 25.0962C139.517 24.9278 138.906 24.7607 138.274 24.5951C137.733 24.4531 137.209 24.3226 136.702 24.2037C136.199 24.0719 135.757 23.9698 135.377 23.8976L135.477 23.5105C135.91 23.5962 136.239 23.6274 136.466 23.6041C136.705 23.5841 136.887 23.4665 137.012 23.2511C137.15 23.0391 137.279 22.7008 137.4 22.2363L139.896 12.6354C140.02 12.158 140.072 11.7994 140.052 11.5597C140.047 11.3106 139.946 11.1185 139.747 10.9836C139.564 10.8392 139.261 10.7048 138.839 10.5803L138.94 10.1932Z" fill="#010F1C"/>
<path d="M168.785 21.0418C168.476 21.5741 168.185 22.1001 167.911 22.6197C167.655 23.133 167.462 23.5284 167.332 23.806C167.202 24.0836 167.086 24.3459 166.984 24.593C166.883 24.8401 166.796 25.057 166.723 25.2437L166.307 25.0469C166.592 24.0015 166.741 23.1502 166.755 22.493C166.775 21.8237 166.643 21.2743 166.358 20.8446C166.086 20.4206 165.631 20.0575 164.992 19.7551L164.413 19.4812L159.568 29.8001C159.335 30.2949 159.205 30.683 159.176 30.9643C159.159 31.2514 159.269 31.5027 159.507 31.7184C159.75 31.9221 160.134 32.1554 160.658 32.4185L160.488 32.7806C160.138 32.5853 159.674 32.3507 159.095 32.0769C158.522 31.7909 157.935 31.5053 157.332 31.2201C156.706 30.9234 156.112 30.6499 155.552 30.3995C155.01 30.1427 154.564 29.9465 154.216 29.8109L154.386 29.4489C154.91 29.6821 155.327 29.8282 155.638 29.887C155.955 29.9337 156.218 29.8592 156.428 29.6635C156.638 29.4678 156.859 29.1225 157.091 28.6277L161.937 18.3088L161.34 18.0263C160.714 17.7297 160.145 17.6079 159.634 17.661C159.123 17.7141 158.617 17.9611 158.115 18.4022C157.619 18.8312 157.066 19.4914 156.456 20.3827L156.04 20.1859C156.149 20.0162 156.26 19.8107 156.374 19.5694C156.499 19.3337 156.627 19.0771 156.757 18.7995C156.888 18.5219 157.063 18.1179 157.282 17.5876C157.519 17.0508 157.744 16.4935 157.957 15.9155C158.481 16.1786 159.06 16.4673 159.693 16.7818C160.326 17.0963 160.962 17.4047 161.601 17.7071C162.24 18.0095 162.824 18.2862 163.354 18.5372C163.873 18.7825 164.451 19.0564 165.09 19.3588C165.728 19.6612 166.37 19.9575 167.014 20.2478C167.659 20.5382 168.249 20.8028 168.785 21.0418Z" fill="#010F1C"/>
<path d="M181.266 28.9807L181.04 29.3111C180.681 29.0802 180.382 28.9391 180.143 28.8877C179.922 28.8328 179.711 28.8819 179.51 29.0347C179.316 29.1766 179.08 29.4513 178.802 29.8587L173.21 38.0521C172.939 38.4486 172.769 38.7686 172.7 39.0122C172.63 39.2558 172.661 39.4711 172.791 39.6581C172.933 39.8526 173.172 40.0819 173.509 40.3458L173.283 40.6761C173.023 40.4652 172.68 40.2123 172.251 39.9175C171.83 39.6117 171.4 39.3076 170.961 39.0053C170.467 38.6652 170.001 38.3532 169.566 38.0694C169.137 37.7747 168.778 37.5438 168.489 37.3769L168.714 37.0465C169.092 37.2739 169.391 37.415 169.612 37.4699C169.843 37.5323 170.054 37.4833 170.245 37.3229C170.446 37.17 170.682 36.8953 170.952 36.4989L176.545 28.3055C176.823 27.898 176.993 27.578 177.055 27.3454C177.135 27.1094 177.104 26.8941 176.963 26.6995C176.84 26.5015 176.601 26.2723 176.246 26.0118L176.471 25.6814C176.738 25.8814 177.082 26.1343 177.503 26.4401C177.924 26.7459 178.382 27.0688 178.876 27.409C179.315 27.7113 179.753 28.0044 180.189 28.2881C180.625 28.5719 180.984 28.8028 181.266 28.9807Z" fill="#010F1C"/>
<path d="M193.766 39.1526C194.74 40.1023 195.394 41.1417 195.73 42.2707C196.067 43.3996 196.06 44.5477 195.709 45.7149C195.378 46.8818 194.679 48.0161 193.613 49.118C192.574 50.1911 191.456 50.9252 190.257 51.3204C189.068 51.7248 187.883 51.7891 186.703 51.5131C185.532 51.2464 184.47 50.6476 183.515 49.7164C182.542 48.7667 181.887 47.7273 181.551 46.5983C181.215 45.4694 181.217 44.3167 181.558 43.1402C181.908 41.973 182.612 40.8433 183.669 39.751C184.707 38.6779 185.826 37.9438 187.025 37.5487C188.223 37.1535 189.408 37.0893 190.579 37.3559C191.749 37.6226 192.812 38.2215 193.766 39.1526ZM193.459 39.3554C192.895 38.806 192.195 38.5421 191.358 38.5636C190.531 38.5943 189.636 38.8764 188.674 39.4099C187.713 39.9434 186.75 40.7083 185.786 41.7048C184.803 42.7204 184.074 43.7324 183.599 44.7407C183.133 45.7395 182.921 46.659 182.961 47.4993C183.011 48.33 183.298 49.0015 183.823 49.5136C184.386 50.063 185.081 50.3223 185.909 50.2915C186.746 50.27 187.645 49.9926 188.607 49.4591C189.578 48.9161 190.541 48.1511 191.496 47.1642C192.488 46.139 193.217 45.1271 193.682 44.1283C194.148 43.1296 194.356 42.2148 194.306 41.3841C194.276 40.5531 193.993 39.8769 193.459 39.3554Z" fill="#010F1C"/>
<path d="M211.774 62.1405L211.443 62.3652C211.172 62.0337 210.907 61.8189 210.648 61.7207C210.4 61.6151 210.116 61.6227 209.795 61.7435C209.493 61.868 209.094 62.0987 208.597 62.4356L199.149 68.8496C199.093 68.7425 199.024 68.6282 198.942 68.5065C198.867 68.3959 198.78 68.278 198.68 68.1528L203.535 54.4869L196.386 59.3395C195.857 59.6989 195.465 60.0129 195.212 60.2815C194.97 60.5425 194.857 60.8286 194.874 61.1397C194.909 61.4543 195.061 61.8589 195.329 62.3533L194.998 62.578C194.879 62.3529 194.708 62.0744 194.484 61.7426C194.272 61.4033 194.065 61.0844 193.864 60.7857C193.685 60.5203 193.497 60.2531 193.3 59.9841C193.121 59.7186 192.961 59.5049 192.82 59.3429L193.151 59.1183C193.441 59.4533 193.706 59.6681 193.947 59.7627C194.195 59.8683 194.475 59.8552 194.788 59.7233C195.109 59.6024 195.512 59.3773 195.997 59.0478L203.642 53.8582C204.05 53.5812 204.326 53.3458 204.469 53.1521C204.63 52.962 204.68 52.7505 204.62 52.5176C204.578 52.2882 204.44 51.9873 204.205 51.6148L204.536 51.3901C204.644 51.5746 204.782 51.8033 204.95 52.0762C205.125 52.3602 205.302 52.6349 205.48 52.9003C205.652 53.1547 205.825 53.3998 206 53.6357C206.175 53.8715 206.331 54.0797 206.468 54.2602L202.4 66.0866L208.208 62.1439C208.749 61.777 209.14 61.463 209.382 61.2019C209.624 60.9409 209.737 60.6548 209.721 60.3438C209.704 60.0327 209.552 59.6281 209.265 59.1301L209.596 58.9054C209.726 59.1231 209.898 59.4015 210.11 59.7408C210.33 60.0912 210.537 60.4101 210.73 60.6977C210.917 60.9742 211.105 61.2414 211.294 61.4994C211.491 61.7684 211.651 61.9821 211.774 62.1405Z" fill="#010F1C"/>
<path d="M5.16969 133C4.24543 133 3.34758 132.71 2.58176 132.164C1.23498 131.196 0.345931 129.769 0.0818569 128.132C-0.182217 126.495 0.196289 124.857 1.16456 123.511C3.98135 119.593 9.45649 118.695 13.3648 121.512C13.5849 121.671 13.6289 121.97 13.4792 122.19C13.3208 122.41 13.0215 122.454 12.8014 122.305C9.32446 119.804 4.45669 120.597 1.94798 124.083C1.12935 125.218 0.80366 126.6 1.03252 127.982C1.26139 129.365 2.0096 130.571 3.14512 131.389C3.90213 131.935 4.81759 132.146 5.73305 131.997C6.6485 131.847 7.44953 131.345 7.99528 130.597C8.34738 130.104 8.48822 129.505 8.39139 128.916C8.29457 128.317 7.96887 127.798 7.47594 127.445C6.84216 126.988 5.95311 127.137 5.49538 127.771C5.36334 127.956 5.31053 128.176 5.35454 128.387C5.38975 128.607 5.51299 128.801 5.68903 128.924C5.78586 128.995 5.89149 129.021 6.00592 129.004C6.12035 128.986 6.21718 128.924 6.2876 128.836C6.44605 128.616 6.74533 128.572 6.96539 128.722C7.18545 128.88 7.22947 129.18 7.07982 129.4C6.85976 129.699 6.54287 129.902 6.17317 129.963C5.80347 130.025 5.43376 129.937 5.13448 129.717C4.74717 129.435 4.4831 129.021 4.41268 128.546C4.33345 128.07 4.44789 127.595 4.72956 127.208C5.49538 126.143 6.9918 125.896 8.0569 126.662C8.7611 127.164 9.21883 127.912 9.35967 128.766C9.50051 129.62 9.29805 130.474 8.79631 131.169C8.10091 132.137 7.07983 132.771 5.9091 132.965C5.65383 132.983 5.40736 133 5.16969 133Z" fill="#DFB68D"/>
<path d="M24.104 125.605C22.097 125.605 20.1517 125.358 18.2944 124.857C13.5762 123.571 10.1697 120.684 9.16619 117.128C7.33528 110.596 10.601 106.37 13.9547 104.742C17.3349 103.096 20.9263 103.8 22.8981 106.485C24.236 108.307 24.4561 110.684 23.4702 112.541C22.634 114.108 21.1288 114.962 19.3507 114.883C16.6483 114.768 15.7416 112.7 15.6448 111.626C15.6184 111.362 15.8121 111.124 16.0849 111.098C16.349 111.071 16.5867 111.265 16.6131 111.538C16.6219 111.643 16.886 113.809 19.3947 113.915C20.7855 113.967 21.965 113.307 22.6164 112.084C23.435 110.552 23.2326 108.58 22.1146 107.057C20.1693 104.399 16.8243 104.416 14.3685 105.613C11.3492 107.083 8.42679 110.913 10.0905 116.864C10.9971 120.085 14.1484 122.726 18.532 123.915C28.25 126.556 40.5822 121.837 51.5325 111.291C59.2611 103.844 66.4615 100.736 72.9401 102.048C79.6124 103.395 83.3271 109.161 83.9608 110.631C84.0665 110.878 83.952 111.159 83.7056 111.265C83.4591 111.37 83.1774 111.256 83.0718 111.01C82.482 109.636 79.0138 104.258 72.7553 102.99C66.6024 101.74 59.6924 104.768 52.2103 111.978C43.0909 120.781 32.9769 125.605 24.104 125.605Z" fill="#DFB68D"/>
<path d="M65.9684 125.676C65.6251 125.676 65.2818 125.649 64.9385 125.605C62.8875 125.332 61.0654 124.276 59.8154 122.639C56.1448 117.841 57.0515 110.948 61.8576 107.269C68.6971 102.04 78.5119 103.342 83.7406 110.174C83.899 110.385 83.8638 110.693 83.6526 110.851C83.4413 111.019 83.1332 110.975 82.9748 110.763C78.063 104.355 68.8556 103.131 62.4474 108.043C58.0726 111.397 57.2363 117.674 60.5901 122.049C61.6904 123.484 63.2836 124.408 65.0793 124.646C66.8662 124.883 68.6531 124.408 70.0879 123.308C72.0773 121.785 72.4558 118.933 70.933 116.943C70.4488 116.309 69.7446 115.904 68.9524 115.799C68.1602 115.693 67.368 115.904 66.7342 116.388C65.8892 117.031 65.7307 118.246 66.3733 119.091C66.7694 119.61 67.5176 119.707 68.037 119.311C68.2482 119.153 68.5563 119.188 68.7148 119.399C68.8732 119.61 68.838 119.918 68.6267 120.077C67.6849 120.799 66.3293 120.623 65.6075 119.681C64.6392 118.413 64.8769 116.591 66.1444 115.623C66.9895 114.98 68.0282 114.698 69.0757 114.839C70.1231 114.98 71.0562 115.517 71.6988 116.362C73.5473 118.774 73.0896 122.242 70.6777 124.082C69.2869 125.13 67.6585 125.676 65.9684 125.676Z" fill="#DFB68D"/>
<path d="M28.1353 122.401C30.5383 122.128 32.8446 121.345 35.0452 120.403C37.2546 119.461 39.3672 118.299 41.3654 116.978C43.3635 115.649 45.3089 114.241 47.1222 112.665C48.9531 111.124 50.74 109.461 52.6237 107.929C54.5075 106.397 56.4616 104.927 58.5742 103.677C60.6868 102.445 63.0019 101.415 65.4754 101.115C67.9488 100.79 70.4487 101.177 72.755 101.978C75.0524 102.823 77.2003 103.976 79.216 105.314C77.0858 104.17 74.9028 103.105 72.6054 102.436C70.3167 101.74 67.9048 101.468 65.581 101.864C63.2571 102.251 61.0565 103.202 59.0231 104.443C56.981 105.675 55.0884 107.154 53.2311 108.677C49.4989 111.679 45.9867 115.139 41.7527 117.603C39.6665 118.862 37.4923 119.98 35.2124 120.843C32.9414 121.653 30.5735 122.339 28.1353 122.401Z" fill="#DFB68D"/>
<path d="M34.2532 129.98C32.6247 129.98 31.3924 129.549 30.5914 129.135C27.1672 127.366 25.75 123.361 26.5774 120.729C27.8802 116.565 31.4716 115.5 34.2532 116.274C36.6827 116.952 38.7777 119.179 38.0559 122.128C37.6069 123.986 36.445 125.306 34.9486 125.649C33.8483 125.905 32.7744 125.579 32.1494 124.813C31.5156 124.047 31.4452 122.956 31.9558 121.82L32.836 122.216C32.4839 123.017 32.5015 123.722 32.8976 124.197C33.2849 124.672 34.0067 124.875 34.7373 124.707C35.2831 124.584 36.5947 124.065 37.114 121.899C37.7126 119.443 35.9169 117.744 33.9891 117.207C31.5684 116.538 28.6196 117.454 27.4929 121.019C26.7975 123.229 28.0827 126.759 31.0315 128.281C33.4874 129.549 40.3709 130.94 51.3124 116.529C57.571 108.281 64.032 103.888 70.5106 103.492C77.4293 103.061 81.725 107.374 81.901 107.559L81.2056 108.237C81.1616 108.193 77.042 104.064 70.5546 104.461C64.3753 104.848 58.1607 109.109 52.0782 117.119C44.112 127.621 38.0735 129.98 34.2532 129.98Z" fill="#DFB68D"/>
<path d="M226.83 133C227.755 133 228.652 132.71 229.418 132.164C230.765 131.196 231.654 129.769 231.918 128.132C232.182 126.495 231.804 124.857 230.835 123.511C228.019 119.593 222.544 118.695 218.635 121.512C218.415 121.671 218.371 121.97 218.521 122.19C218.679 122.41 218.979 122.454 219.199 122.305C222.676 119.804 227.543 120.597 230.052 124.083C230.871 125.218 231.196 126.6 230.967 127.982C230.739 129.365 229.99 130.571 228.855 131.389C228.098 131.935 227.182 132.146 226.267 131.997C225.351 131.847 224.55 131.345 224.005 130.597C223.653 130.104 223.512 129.505 223.609 128.916C223.705 128.317 224.031 127.798 224.524 127.445C225.158 126.988 226.047 127.137 226.505 127.771C226.637 127.956 226.689 128.176 226.645 128.387C226.61 128.607 226.487 128.801 226.311 128.924C226.214 128.995 226.109 129.021 225.994 129.004C225.88 128.986 225.783 128.924 225.712 128.836C225.554 128.616 225.255 128.572 225.035 128.722C224.815 128.88 224.771 129.18 224.92 129.4C225.14 129.699 225.457 129.902 225.827 129.963C226.197 130.025 226.566 129.937 226.866 129.717C227.253 129.435 227.517 129.021 227.587 128.546C227.667 128.07 227.552 127.595 227.27 127.208C226.505 126.143 225.008 125.896 223.943 126.662C223.239 127.164 222.781 127.912 222.64 128.766C222.499 129.62 222.702 130.474 223.204 131.169C223.899 132.137 224.92 132.771 226.091 132.965C226.346 132.983 226.593 133 226.83 133Z" fill="#DFB68D"/>
<path d="M207.896 125.605C209.903 125.605 211.848 125.358 213.706 124.857C218.424 123.571 221.83 120.684 222.834 117.128C224.665 110.596 221.399 106.37 218.045 104.742C214.665 103.096 211.074 103.8 209.102 106.485C207.764 108.307 207.544 110.684 208.53 112.541C209.366 114.108 210.871 114.962 212.649 114.883C215.352 114.768 216.258 112.7 216.355 111.626C216.382 111.362 216.188 111.124 215.915 111.098C215.651 111.071 215.413 111.265 215.387 111.538C215.378 111.643 215.114 113.809 212.605 113.915C211.215 113.967 210.035 113.307 209.384 112.084C208.565 110.552 208.767 108.58 209.885 107.057C211.831 104.399 215.176 104.416 217.632 105.613C220.651 107.083 223.573 110.913 221.91 116.864C221.003 120.085 217.852 122.726 213.468 123.915C203.75 126.556 191.418 121.837 180.467 111.291C172.739 103.844 165.538 100.736 159.06 102.048C152.388 103.395 148.673 109.161 148.039 110.631C147.934 110.878 148.048 111.159 148.294 111.265C148.541 111.37 148.823 111.256 148.928 111.01C149.518 109.636 152.986 104.258 159.245 102.99C165.398 101.74 172.308 104.768 179.79 111.978C188.909 120.781 199.023 125.605 207.896 125.605Z" fill="#DFB68D"/>
<path d="M166.032 125.676C166.375 125.676 166.718 125.649 167.062 125.605C169.112 125.332 170.935 124.276 172.185 122.639C175.855 117.841 174.949 110.948 170.142 107.269C163.303 102.04 153.488 103.342 148.259 110.174C148.101 110.385 148.136 110.693 148.347 110.851C148.559 111.019 148.867 110.975 149.025 110.763C153.937 104.355 163.144 103.131 169.553 108.043C173.927 111.397 174.764 117.674 171.41 122.049C170.31 123.484 168.716 124.408 166.921 124.646C165.134 124.883 163.347 124.408 161.912 123.308C159.923 121.785 159.544 118.933 161.067 116.943C161.551 116.309 162.255 115.904 163.048 115.799C163.84 115.693 164.632 115.904 165.266 116.388C166.111 117.031 166.269 118.246 165.627 119.091C165.231 119.61 164.482 119.707 163.963 119.311C163.752 119.153 163.444 119.188 163.285 119.399C163.127 119.61 163.162 119.918 163.373 120.077C164.315 120.799 165.671 120.623 166.393 119.681C167.361 118.413 167.123 116.591 165.856 115.623C165.011 114.98 163.972 114.698 162.924 114.839C161.877 114.98 160.944 115.517 160.301 116.362C158.453 118.774 158.91 122.242 161.322 124.082C162.713 125.13 164.342 125.676 166.032 125.676Z" fill="#DFB68D"/>
<path d="M203.865 122.401C201.462 122.128 199.155 121.345 196.955 120.403C194.745 119.461 192.633 118.299 190.635 116.978C188.636 115.649 186.691 114.241 184.878 112.665C183.047 111.124 181.26 109.461 179.376 107.929C177.493 106.397 175.538 104.927 173.426 103.677C171.313 102.445 168.998 101.415 166.525 101.115C164.051 100.79 161.551 101.177 159.245 101.978C156.948 102.823 154.8 103.976 152.784 105.314C154.914 104.17 157.097 103.105 159.395 102.436C161.683 101.74 164.095 101.468 166.419 101.864C168.743 102.251 170.943 103.202 172.977 104.443C175.019 105.675 176.912 107.154 178.769 108.677C182.501 111.679 186.013 115.139 190.247 117.603C192.334 118.862 194.508 119.98 196.788 120.843C199.059 121.653 201.426 122.339 203.865 122.401Z" fill="#DFB68D"/>
<path d="M197.747 129.98C199.375 129.98 200.608 129.549 201.409 129.135C204.833 127.366 206.25 123.361 205.423 120.729C204.12 116.565 200.528 115.5 197.747 116.274C195.317 116.952 193.222 119.179 193.944 122.128C194.393 123.986 195.555 125.306 197.051 125.649C198.152 125.905 199.226 125.579 199.851 124.813C200.484 124.047 200.555 122.956 200.044 121.82L199.164 122.216C199.516 123.017 199.498 123.722 199.102 124.197C198.715 124.672 197.993 124.875 197.263 124.707C196.717 124.584 195.405 124.065 194.886 121.899C194.287 119.443 196.083 117.744 198.011 117.207C200.432 116.538 203.38 117.454 204.507 121.019C205.203 123.229 203.917 126.759 200.969 128.281C198.513 129.549 191.629 130.94 180.688 116.529C174.429 108.281 167.968 103.888 161.489 103.492C154.571 103.061 150.275 107.374 150.099 107.559L150.794 108.237C150.838 108.193 154.958 104.064 161.445 104.461C167.625 104.848 173.839 109.109 179.922 117.119C187.888 127.621 193.927 129.98 197.747 129.98Z" fill="#DFB68D"/>
<path d="M84 71C84.0833 68.75 84.875 66.875 86.375 65.375C87.875 63.875 89.75 63.0833 92 63H140C142.25 63.0833 144.125 63.875 145.625 65.375C147.125 66.875 147.917 68.75 148 71V103C147.917 105.25 147.125 107.125 145.625 108.625C144.125 110.125 142.25 110.917 140 111H92C89.75 110.917 87.875 110.125 86.375 108.625C84.875 107.125 84.0833 105.25 84 103V71ZM88 71V76L112.5 93.875C114.833 95.4583 117.167 95.4583 119.5 93.875L144 76V71C144 69.8333 143.625 68.875 142.875 68.125C142.125 67.375 141.167 67 140 67H91.875C90.7917 67 89.875 67.375 89.125 68.125C88.375 68.875 87.9583 69.8333 87.875 71H88ZM88 81V103C88 104.167 88.375 105.125 89.125 105.875C89.875 106.625 90.8333 107 92 107H140C141.167 107 142.125 106.625 142.875 105.875C143.625 105.125 144 104.167 144 103V81L121.875 97.125C120.125 98.4583 118.167 99.125 116 99.125C113.833 99.125 111.875 98.4583 110.125 97.125L88 81Z" fill="#DFB68D"/>
</svg>
