<svg width="88" height="60" viewBox="0 0 88 60" fill="none" xmlns="http://www.w3.org/2000/svg">
<path d="M66.309 49.5887L66.3056 49.5953C65.104 51.8936 65.1898 54.0907 66.5601 56.2582L66.309 49.5887ZM66.309 49.5887L71.9465 38.4069L72.312 37.6818M66.309 49.5887L72.312 37.6818M72.312 37.6818H71.5M72.312 37.6818H71.5M71.5 37.6818H60.5C57.6075 37.6818 55.1454 36.6653 53.0864 34.6198L53.0858 34.6192M71.5 37.6818L53.0858 34.6192M53.0858 34.6192C51.0234 32.5774 50 30.1376 50 27.2727V10.9091C50 8.04426 51.0234 5.60442 53.0858 3.56259L53.0864 3.56199M53.0858 34.6192L53.0864 3.56199M53.0864 3.56199C55.1454 1.51656 57.6075 0.5 60.5 0.5H77C79.8925 0.5 82.3567 1.51658 84.4194 3.56229C86.4782 5.60405 87.5 8.04398 87.5 10.9091V35.5909C87.5 36.3807 87.4328 37.1959 87.2974 38.0369L87.2971 38.0386M53.0864 3.56199L87.2971 38.0386M87.2971 38.0386C87.1718 38.8343 86.8986 39.5645 86.477 40.2334L86.4647 40.2528M87.2971 38.0386L86.4647 40.2528M86.4647 40.2528L86.4543 40.2733M86.4647 40.2528L86.4543 40.2733M86.4543 40.2733L78.6168 55.6824L78.616 55.684M86.4543 40.2733L78.616 55.684M78.616 55.684C78.0154 56.8753 77.1624 57.8047 76.052 58.4823C74.9375 59.1625 73.7441 59.5 72.4625 59.5C69.8833 59.5 67.9348 58.4291 66.5601 56.2583L78.616 55.684ZM34.9194 3.56229L35.2715 3.20727L34.9194 3.56229C36.9782 5.60405 38 8.04398 38 10.9091V35.5909C38 36.3811 37.9345 37.1967 37.8027 38.0379C37.6738 38.8339 37.3987 39.5643 36.977 40.2334L36.9647 40.2528L36.9543 40.2733L29.1168 55.6824L29.116 55.684C28.5154 56.8753 27.6624 57.8047 26.552 58.4823C25.4375 59.1625 24.2441 59.5 22.9625 59.5C20.3832 59.5 18.4346 58.429 17.0599 56.258C15.6898 54.0905 15.604 51.8935 16.8056 49.5953L16.8056 49.5953L16.809 49.5887L22.4465 38.4069L22.812 37.6818H22H11C8.10747 37.6818 5.64536 36.6653 3.58638 34.6198L3.58578 34.6192C1.52343 32.5774 0.5 30.1376 0.5 27.2727V10.9091C0.5 8.04425 1.52343 5.60442 3.58578 3.56259L3.58638 3.56199C5.64536 1.51656 8.10747 0.5 11 0.5H27.5C30.3925 0.5 32.8567 1.51658 34.9194 3.56229Z" stroke="#D3BA80"/>
</svg>
