<svg width="44" height="57" viewBox="0 0 44 57" fill="none" xmlns="http://www.w3.org/2000/svg">
<path d="M23.9145 1.09931C22.9834 1.28527 22.2057 1.70096 16.9039 4.88422C13.1795 7.10484 11.2626 8.31907 10.9121 8.65818C10.1015 9.46767 9.61947 10.6163 9.61947 11.7867V12.3556L5.59934 12.3884C1.5792 12.4212 1.56824 12.4212 1.10817 12.6837C-0.403485 13.5479 -0.359669 15.7357 1.18485 16.4905C1.62301 16.7093 2.15976 16.7749 6.00464 17.0703C8.38166 17.2563 10.3534 17.4422 10.3972 17.486C10.452 17.5407 11.2188 22.507 11.2954 23.3165C11.3064 23.404 9.29085 25.6793 6.80428 28.3703C1.52443 34.0914 1.67778 33.8726 1.67778 35.7432V36.9684L5.19404 44.0022L8.72124 51.036L8.29403 53.552C8.064 54.9412 7.86682 56.1554 7.86682 56.2648C7.86682 56.3742 7.99827 56.5821 8.15163 56.7461C8.41453 57.0087 8.45834 57.0196 9.59756 56.9868C10.6382 56.943 10.8244 56.9102 11.2954 56.6368C12.0841 56.1664 12.3142 55.7179 13.0371 53.191C14.023 49.7561 14.1545 50.5 11.2297 42.7442C9.92619 39.2765 8.85269 36.3667 8.86364 36.2902C8.86364 36.2245 10.1672 35.0212 11.7665 33.6429C15.8085 30.1315 15.6442 30.2956 15.6442 29.8908C15.6442 29.4314 15.3046 29.1032 14.8336 29.1032C14.505 29.1032 14.0559 29.4642 10.8135 32.2974C8.64456 34.2008 7.12195 35.6119 7.05622 35.787C6.97955 36.0167 7.28626 36.9246 8.84173 41.0705C9.87142 43.8162 10.7258 46.1244 10.7477 46.19C10.7696 46.2994 9.03891 47.3495 8.81983 47.3714C8.77601 47.3714 7.50534 44.9101 6.00464 41.9019C3.29898 36.498 3.26612 36.4214 3.26612 35.7432C3.26612 35.3275 3.3428 34.9009 3.47425 34.6274C3.59474 34.354 5.42407 32.2865 8.16258 29.322L12.6647 24.4541L15.0527 23.6665L17.4407 22.868L18.0322 23.229C18.7552 23.6665 19.8725 24.8261 20.3325 25.6137C20.5188 25.9418 20.7707 26.5216 20.9021 26.9154C21.1212 27.5718 21.7894 28.4578 28.8219 37.3731C33.0502 42.7333 36.7417 47.4152 37.0265 47.7761L37.5414 48.4215L36.7527 49.0998L35.964 49.778L26.9269 40.7533C18.2403 32.0786 17.8679 31.7286 17.4845 31.7286C17.0354 31.7286 16.6301 32.1115 16.6301 32.5381C16.6301 32.8553 40.2799 56.5055 40.8933 56.7899C42.7117 57.6431 44.6834 55.5975 43.7633 53.8145C43.6318 53.552 38.823 47.3823 33.0831 40.1188C24.0569 28.6875 22.611 26.806 22.3919 26.2153C21.7894 24.5416 20.5407 22.9555 19.029 21.9272L18.2732 21.4021V18.6674V15.9217L19.3905 15.6045C20.3873 15.32 20.5735 15.2216 21.0226 14.7731C21.2965 14.4996 21.5813 14.0949 21.658 13.8761L21.7894 13.4932L22.2495 13.6464C22.8629 13.8542 24.2212 13.8433 24.8456 13.6245C26.0286 13.2088 26.9488 12.3774 27.4527 11.2945C27.7813 10.5616 27.9018 9.25983 27.7046 8.47222C27.6279 8.19874 27.5951 7.94714 27.617 7.91433C27.7265 7.81588 28.9205 9.04105 29.2163 9.55518C29.6983 10.4194 29.8845 11.1742 29.994 12.8588C30.1364 15.0028 30.6074 16.7093 31.429 18.0986L31.659 18.4924H30.5636C29.2382 18.4924 29.1286 18.558 28.7891 19.641C28.6576 20.0566 28.5043 20.4505 28.4495 20.5051C28.329 20.6474 26.7735 19.0503 26.2368 18.2517C26.0067 17.9017 25.6453 17.2781 25.4262 16.8625C25.1633 16.3374 24.9442 16.0639 24.747 15.9764C24.1993 15.7576 23.6407 16.1405 23.6407 16.7421C23.6407 17.0922 24.4841 18.6455 25.1852 19.5863C26.2915 21.074 28.2742 22.7586 28.9205 22.7586C29.3915 22.7586 29.6106 22.4414 30.005 21.2381L30.3664 20.1332H31.9767C33.346 20.1332 33.6198 20.1004 33.817 19.9363C34.2223 19.6191 34.1456 19.1487 33.565 18.372C32.9297 17.5297 32.2725 16.1842 31.9657 15.1013C31.8233 14.5981 31.7028 13.6683 31.6371 12.7166C31.5166 10.8569 31.3304 10.0803 30.7389 8.9426C29.6435 6.83136 27.4417 5.51868 24.6156 5.26708C23.2573 5.14675 22.4138 5.25614 21.5923 5.66089C20.8474 6.03281 20.0039 6.86418 19.6424 7.5971C19.3357 8.22062 19.1057 9.29264 19.1714 9.76302L19.2262 10.0693H17.3859H15.5456L15.3156 9.77396C15.1184 9.52237 15.0965 9.35828 15.1184 8.66912L15.1513 7.84869L18.7661 5.66089C20.7597 4.46853 22.7534 3.30899 23.2025 3.09021L24.0241 2.68547L29.8516 2.65265L35.6792 2.61984L35.8654 2.90425C36.0297 3.15585 36.0297 3.1996 35.8654 3.4512C35.7668 3.60435 35.6244 3.72468 35.5587 3.72468C34.6604 3.72468 31.3085 4.10754 31.1223 4.22787C30.6513 4.52323 30.6622 5.22333 31.1551 5.54056C31.3852 5.70464 31.6043 5.70464 33.576 5.54056C34.77 5.43117 35.9092 5.2999 36.1173 5.23426C36.7198 5.0483 37.3113 4.43571 37.4975 3.80125C37.7495 2.94801 37.5633 2.21509 36.9279 1.62439C36.2597 0.978985 36.3364 0.989922 30.0816 1.00086C26.9269 1.0118 24.1555 1.05556 23.9145 1.09931ZM24.7032 7.13766C25.229 7.37831 25.7877 7.96902 26.0067 8.49409C26.0944 8.70194 26.1601 9.16138 26.1601 9.52237C26.1601 11.0538 25.0428 12.1696 23.5202 12.1696C22.3043 12.1696 21.2965 11.4039 20.9569 10.2334C20.4968 8.68006 21.417 7.26892 23.1477 6.86418C23.4983 6.77667 24.2103 6.897 24.7032 7.13766ZM13.4534 9.38016C13.4643 9.97086 13.782 10.6053 14.3188 11.0866C14.6036 11.3492 14.7241 11.5133 14.6364 11.5461C13.4534 11.9836 12.106 12.3665 11.7336 12.3665H11.2626V11.8961C11.2626 10.8022 11.7227 9.95993 12.6866 9.31452C13.3439 8.87696 13.4534 8.8879 13.4534 9.38016ZM19.6862 11.9836C20.0587 12.1696 20.2997 12.6947 20.2011 13.0885C20.0368 13.712 19.8067 13.8105 16.2467 14.7731C14.3845 15.2763 12.6099 15.7248 12.3032 15.7795C11.9308 15.8342 10.1453 15.7357 6.82619 15.4841C2.61983 15.156 1.87496 15.0685 1.76542 14.9153C1.5792 14.6637 1.59015 14.4449 1.80923 14.2043C1.97354 14.0183 2.29121 14.0074 7.19863 14.0074H12.4128L15.6442 12.9244C17.4188 12.3228 18.9852 11.8305 19.1276 11.8305C19.27 11.8196 19.5219 11.8961 19.6862 11.9836ZM16.6301 18.9081V21.3912L14.7679 22.0147C12.9385 22.6164 12.9057 22.6273 12.8509 22.3976C12.7742 22.0366 12.1389 17.7485 12.1389 17.5735C12.1389 17.475 12.3361 17.4094 12.7195 17.3547C13.0262 17.3219 13.9792 17.0922 14.8226 16.8625C15.6661 16.6218 16.4219 16.4249 16.4986 16.4249C16.5972 16.414 16.6301 16.9828 16.6301 18.9081ZM11.7336 48.7607C12.1608 49.9639 12.128 50.4343 11.4817 52.6768C10.8354 54.9303 10.7696 55.0725 10.4191 55.2366C10.0686 55.4006 9.72901 55.3897 9.72901 55.2147C9.72901 55.149 9.88237 54.1098 10.0795 52.9175L10.4301 50.7625L9.97 49.8327C9.64138 49.1654 9.55375 48.8919 9.65233 48.8263C10.0248 48.5747 11.2188 47.9293 11.3174 47.9293C11.3831 47.9184 11.5693 48.3012 11.7336 48.7607ZM40.5099 52.1846C41.5286 53.4754 42.3721 54.6349 42.3721 54.7443C42.3721 55.0287 42.0544 55.3569 41.7806 55.3569C41.6272 55.3569 40.8057 54.613 39.3488 53.1581L37.1361 50.9485L37.8042 50.3687C38.1767 50.0405 38.5163 49.7889 38.571 49.8108C38.6148 49.8217 39.4912 50.8938 40.5099 52.1846Z" fill="#6B2AE6"/>
</svg>
