<svg width="64" height="57" viewBox="0 0 64 57" fill="none" xmlns="http://www.w3.org/2000/svg">
<path d="M16.4114 1.6097C14.6223 2.4819 13.0584 3.30497 12.9207 3.41553C11.9198 4.28773 12.0324 6.19183 13.1334 6.85519C13.5338 7.10088 13.7465 7.11316 16.1487 7.11316H18.7385L18.9012 7.50627C19.0013 7.72739 19.7895 9.95089 20.6653 12.4569C21.5411 14.9507 22.4044 17.2725 22.5795 17.6041C22.7672 17.9358 23.1676 18.4641 23.4804 18.7712C23.7931 19.0906 26.971 21.2895 30.5493 23.685C34.1276 26.0804 37.0803 28.0583 37.1178 28.0828C37.1428 28.1074 36.4797 29.4833 35.6414 31.1417C34.8032 32.7878 34.1151 34.2865 34.1151 34.4585C34.1151 34.6182 34.3403 35.6378 34.6155 36.7188C34.8908 37.7999 35.116 38.7212 35.116 38.7949C35.116 38.93 31.5002 40.6744 31.35 40.6253C31.2875 40.6007 30.8621 40.2445 30.3741 39.8268L29.5109 39.0529L29.5734 37.8613C29.6485 36.4486 29.4108 35.6132 28.6726 34.6305C27.484 33.0335 25.2445 32.2841 23.3052 32.8369L22.5795 33.0458L22.0666 32.6158C21.7788 32.3824 21.1908 31.8665 20.7529 31.4733L19.9647 30.7608L20.9781 29.2253C21.5411 28.3776 22.0416 27.6037 22.1041 27.5054C22.1917 27.3458 22.492 27.4195 24.0934 27.9354C26.3205 28.6479 26.1578 28.6848 27.7843 27.2229C28.7352 26.3753 28.8603 26.2033 28.8603 25.847C28.8603 25.3311 28.4599 24.9257 27.972 24.9257C27.7217 24.9257 27.3589 25.1591 26.6958 25.7242L25.77 26.5104L22.004 25.282C19.9271 24.6063 17.8002 23.9798 17.2872 23.8815C16.5115 23.7341 14.9101 23.6973 9.10476 23.6973H1.87318L1.32267 23.9798C-0.779242 25.0731 -0.266274 28.1688 2.08587 28.5373C2.32359 28.5742 5.16367 28.7708 8.40413 28.9796C11.6446 29.1761 14.5848 29.385 14.9476 29.4218C15.5982 29.4955 15.6607 29.5324 18.3006 31.8173C19.777 33.1072 20.9781 34.1882 20.9781 34.2374C20.9781 34.2865 20.5902 34.7165 20.1023 35.1833C19.0013 36.2643 18.676 36.9277 18.676 38.193C18.676 39.5811 18.9637 40.1094 20.5777 41.6572C22.1291 43.1559 22.6421 43.4139 24.0434 43.4139C25.2945 43.4016 26.0452 43.0331 27.4089 41.7186L28.5099 40.6622L30.3116 42.2223L32.1132 43.7824V49.5439V55.3053L32.426 55.8335C33.3894 57.4428 35.9167 57.3691 36.7299 55.723C36.9802 55.2193 37.0552 54.5682 37.4431 49.2859C37.7183 45.6865 37.856 43.0576 37.8059 42.4926C37.7684 41.9889 37.343 39.9865 36.8551 38.0578L35.9793 34.5445L38.3439 29.8886L40.7211 25.2328L44.9749 21.916C47.3271 20.0979 49.3039 18.4763 49.3665 18.3166C49.5666 17.8867 49.5291 17.7024 49.1913 17.3707C48.5907 16.7688 48.5032 16.8179 43.9991 20.3313C41.697 22.1248 39.6701 23.7218 39.495 23.8938C39.3198 24.0535 38.9194 24.68 38.6192 25.2942C38.2814 25.9699 38.0061 26.3876 37.906 26.3507C37.8309 26.3139 34.9783 24.4343 31.5878 22.1617C27.4715 19.41 25.2069 17.813 24.7815 17.3707C24.2811 16.8671 24.0684 16.5108 23.8182 15.8106C23.643 15.3192 22.8923 13.1449 22.1291 10.9705L20.7529 7.02717L21.5661 6.63407C22.0165 6.41294 22.4294 6.27782 22.492 6.33924C22.542 6.38838 23.3803 8.40304 24.3562 10.7985C25.3321 13.194 26.2204 15.2578 26.3455 15.3806C26.4706 15.5035 28.6476 16.7442 31.1874 18.1201C34.7156 20.0488 35.8792 20.6261 36.1169 20.577C36.292 20.5401 38.7067 19.2994 41.4968 17.8007C44.2868 16.3143 46.8391 15.0121 47.177 14.9138C47.6774 14.7664 48.7159 14.7296 52.4693 14.7296H57.136V15.4052C57.136 15.9703 57.0985 16.0809 56.9233 16.0809C56.7982 16.0809 55.7723 16.1914 54.6337 16.3265C52.7195 16.5477 52.5443 16.5845 52.2941 16.8793C51.8437 17.383 51.9313 17.9358 52.4943 18.2306C52.7946 18.3781 53.1449 18.3535 55.3344 18.0832C56.7232 17.9112 58.9126 17.7393 60.2889 17.6901C62.9663 17.6041 63.0789 17.5796 63.692 16.7688C63.9422 16.4494 63.9547 16.2406 63.9923 12.7272C64.0173 10.3563 63.9798 8.85756 63.9047 8.57502C63.5919 7.5554 62.6661 6.92889 61.5776 7.01489C60.4766 7.10088 60.3014 7.30972 58.8 10.2457L57.4488 12.8746L52.2566 12.9115C47.3146 12.9483 47.0268 12.9606 46.3637 13.2063C45.7882 13.4274 37.8309 17.6041 36.4172 18.4272L36.0418 18.6483L31.9756 16.4371C29.7486 15.2209 27.8594 14.1645 27.7718 14.0785C27.6967 13.9925 26.7834 11.8427 25.7449 9.28752C24.7065 6.73234 23.3803 3.72264 22.7922 2.58018C21.6037 0.221554 21.3659 -0.0118523 20.2774 0.000431061C19.752 0.000431061 19.214 0.221554 16.4114 1.6097ZM21.0281 3.15755L21.7037 4.48428L20.903 4.87738L20.1023 5.27049H17.0995C13.0709 5.27049 13.0709 5.28277 17.0745 3.31725C18.701 2.50647 20.1148 1.84311 20.1899 1.84311C20.2774 1.83083 20.6528 2.43277 21.0281 3.15755ZM62.0655 9.02955C62.1031 9.14011 62.1406 10.7125 62.1406 12.5306V15.8352H60.5767H59.0127V14.9138V13.9925L60.3264 11.4127C61.5776 8.95584 61.8778 8.55045 62.0655 9.02955ZM18.6635 26.1419C19.5643 26.4367 20.315 26.6947 20.3275 26.707C20.3775 26.7561 18.9012 29.0656 18.651 29.3358C18.5133 29.4833 18.3632 29.4095 17.6375 28.7708C17.1746 28.3654 16.6491 27.9477 16.474 27.8371C16.2238 27.6774 14.835 27.5546 9.21737 27.1861C1.92322 26.7192 1.83564 26.707 1.83564 26.1419C1.83564 26.019 1.92322 25.8348 2.03582 25.7242C2.22349 25.5522 2.96167 25.5276 9.64275 25.5645L17.037 25.6014L18.6635 26.1419ZM25.9201 34.741C26.9961 35.2201 27.7217 36.2889 27.7342 37.3945C27.7342 38.5615 27.5591 38.8809 26.1828 40.2445C24.8191 41.5835 24.4938 41.7555 23.5179 41.5712C22.8298 41.4607 20.6778 39.3231 20.5527 38.6475C20.3775 37.6893 20.5402 37.3699 21.9039 36.0309C22.7297 35.2201 23.3177 34.7533 23.6055 34.6673C24.3061 34.4585 25.3571 34.4831 25.9201 34.741ZM35.7666 41.2764C36.0043 42.4434 35.9793 43.8193 35.5789 49.1508C35.2911 53.0572 35.116 54.8139 35.0034 54.949C34.8032 55.1825 34.3152 55.207 34.1401 54.9859C34.04 54.8753 33.9899 52.9344 33.9649 48.9051L33.9274 42.9962L33.4394 42.5048L32.9515 42.0135L34.1901 41.3992C34.8783 41.0675 35.4788 40.7973 35.5539 40.8219C35.6164 40.8341 35.7165 41.043 35.7666 41.2764Z" fill="#6B2AE6"/>
</svg>
