<svg width="68" height="56" viewBox="0 0 68 56" fill="none" xmlns="http://www.w3.org/2000/svg">
<path d="M64.2812 0.275303C63.7766 0.528721 63.1789 1.22228 60.5359 4.63671C58.8094 6.8641 57.282 8.79806 57.1492 8.9181C57.0164 9.03814 54.825 10.0385 52.2617 11.1321C49.7117 12.2125 47.5203 13.2128 47.3875 13.3462C46.8297 13.9064 47.2812 14.92 48.0914 14.92C48.4101 14.92 55.9141 11.8124 58.0125 10.812C58.3711 10.6387 60.0976 8.55798 62.1031 5.87712C62.2226 5.70373 62.3555 5.77042 62.9266 6.21056L63.6039 6.74406L62.1297 9.19819C61.3328 10.5453 60.4695 11.8657 60.2039 12.1325C59.9383 12.4259 58.2914 13.4529 56.2859 14.5999C54.3867 15.6936 52.7398 16.7206 52.6336 16.8807C52.4476 17.1608 52.5273 17.6409 53.5766 22.5492C54.2008 25.5101 54.7187 28.0043 54.7187 28.0976C54.7187 28.231 54.068 28.2577 51.7039 28.231L48.6891 28.191L46.1922 24.1897C44.8242 21.989 43.5758 20.055 43.4164 19.8816C43.2703 19.7216 43.0047 19.5882 42.8453 19.5882C42.6859 19.5882 41.132 20.0684 39.3789 20.6552L36.1914 21.7222H33.0437H29.8828V21.122V20.5219H32.6852H35.4875L39.857 18.6412C42.2742 17.6009 44.3726 16.6539 44.5187 16.5206C45.1828 15.9871 44.5453 14.64 43.7219 14.8534C43.5492 14.8934 41.5172 15.747 39.2195 16.734L35.0492 18.5212H23.9328C13.4008 18.5212 12.7898 18.5345 12.2852 18.7746C11.6609 19.0681 11.1031 19.6282 10.9039 20.1617C10.5719 21.0287 10.7977 22.2557 11.4086 22.8826L11.6875 23.176L11.2492 25.8036L10.8242 28.4311L5.64453 30.0849C0.292187 31.7922 0 31.9122 0 32.5924C0 33.0326 0.358594 33.406 1.19531 33.8195C1.92578 34.1929 2.01875 34.2996 3.33359 36.1536C4.13047 37.2873 4.91406 37.6874 6.44141 37.7941C8.48672 37.9408 8.53984 37.9542 9.57578 38.7411C11.0766 39.8748 11.475 40.0482 12.5773 40.0615L13.5336 40.0748L16.2031 43.2892C17.6641 45.0631 18.8594 46.5436 18.8594 46.5836C18.8594 46.6103 18.1156 47.5306 17.1992 48.6243C16.2828 49.7046 15.4992 50.7316 15.4594 50.8917C15.3664 51.2385 15.4594 51.5319 16.1234 52.959L16.5883 53.9994H16.0703H15.5391L14.7422 52.3988L13.932 50.785L15.3398 48.8243C16.8937 46.6503 17.0266 46.2502 16.3891 45.7433C15.6586 45.1698 15.3133 45.4099 13.7461 47.6106C12.1391 49.878 11.9664 50.1981 11.9531 50.8117C11.9531 51.3452 13.7328 55.1464 14.2508 55.7066C14.5031 55.9867 14.6227 56 16.4953 56C18.4211 56 18.4875 55.9867 18.793 55.6666C18.9789 55.4932 19.125 55.2264 19.125 55.0664C19.125 54.9197 18.7664 53.9994 18.3414 53.039L17.5578 51.2785L18.8328 49.7713C19.5234 48.9444 20.1477 48.2642 20.2008 48.2642C20.2539 48.2642 21.7016 49.9714 23.4281 52.0521C25.1414 54.1327 26.6422 55.8666 26.7617 55.92C26.8812 55.96 28.4484 56 30.2281 56H33.482L33.8008 55.6666C34.2523 55.2264 34.2258 54.7329 33.7344 54.2661L33.3359 53.8927L37.4531 48.1975C41.8492 42.1155 41.9422 41.9688 41.3047 41.3953C40.9859 41.1152 40.3484 41.0752 40.043 41.3286C39.9367 41.422 38.0375 43.9828 35.8461 47.0104C33.6547 50.0514 31.8086 52.5589 31.7555 52.5856C31.7023 52.6256 31.3172 52.4122 30.9055 52.1054C30.2016 51.5852 30.1617 51.5319 30.3344 51.2785C30.4273 51.1184 32.2336 48.1841 34.3453 44.743L38.1703 38.4877L43.2969 34.3663L48.4101 30.2583H51.8101H55.2234L55.3031 30.5518C55.4226 31.0186 55.3961 31.8055 55.2367 32.219C55.1703 32.419 53.55 34.1529 51.6508 36.0602C49.0609 38.6877 48.2109 39.6214 48.2109 39.8614C48.1976 40.0482 49.2867 42.3956 50.6281 45.0898C51.9562 47.784 53.0187 50.0114 52.9922 50.0514C52.9523 50.0781 52.4344 50.2248 51.85 50.3582L50.7742 50.6249L48.2375 45.9434C46.8562 43.3692 45.6344 41.1152 45.5547 40.9418C45.4617 40.7684 45.4219 40.3416 45.4484 39.9815C45.5016 39.4213 45.7141 39.0745 47.1086 37.1006C49.3531 33.9529 49.4062 33.8595 49.4062 33.4594C49.4062 32.7125 48.4101 32.259 47.8391 32.7525C47.693 32.8859 46.7234 34.1796 45.7008 35.6334C43.4164 38.8745 43.1109 39.6881 43.6023 41.3419C43.7086 41.6754 44.9703 44.1162 46.418 46.7837L49.0476 51.6119L47.5601 53.1191C45.9398 54.7729 45.7805 55.1331 46.3914 55.7066C46.6969 56 46.7766 56 50.8141 56H54.9445L55.2234 55.6932C55.5023 55.3998 55.5156 55.2664 55.5156 52.8923V50.3982L52.9656 45.2632L50.4023 40.1282L53.55 36.9672C55.582 34.9132 56.7906 33.5794 56.9766 33.1926C57.5875 31.9922 57.5344 31.4987 56.0469 24.5898C55.3164 21.1354 54.6789 18.2278 54.6391 18.1077C54.5992 17.9477 55.2898 17.4809 57.5875 16.1738C59.593 15.0267 60.868 14.2131 61.3859 13.733C62.05 13.1328 62.5945 12.2925 65.0383 8.2112C68.0797 3.10289 68.2125 2.8228 67.8672 1.7958C67.3758 0.275303 65.689 -0.431591 64.2812 0.275303ZM65.8484 2.14257C65.9414 2.23594 66.0078 2.39599 66.0078 2.50269C66.0078 2.71609 64.8523 4.74342 64.6664 4.86346C64.6 4.90347 64.3078 4.74342 64.0156 4.51668L63.4844 4.08987L64.2945 3.0362C65.118 1.96918 65.4765 1.76912 65.8484 2.14257ZM27.8906 21.122V21.7222H20.4797C12.6703 21.7222 12.75 21.7222 12.75 21.122C12.75 20.5219 12.6703 20.5219 20.4797 20.5219H27.8906V21.122ZM44.5851 25.3901C45.7805 27.2974 46.75 28.8979 46.75 28.9512C46.75 28.9913 44.4789 30.8585 41.7031 33.0859L36.6695 37.1272L32.725 43.556C28.8336 49.918 28.7805 49.9847 28.5547 49.6913C27.625 48.4909 21.25 39.7014 21.25 39.6214C21.2633 39.568 21.5156 39.3546 21.8211 39.1412C22.1266 38.9278 22.6312 38.5677 22.9234 38.3543C23.4281 38.0075 23.6273 37.9542 25.0219 37.8475C26.7484 37.7274 27.4391 37.4873 28.1031 36.8205C28.5812 36.3403 29.6703 34.7398 29.8031 34.313C29.9359 33.8995 29.6437 33.366 29.1656 33.1393C27.5187 32.3657 22.5383 30.125 22.4453 30.125C22.1266 30.125 21.6484 30.4717 21.5156 30.8052C21.3961 31.0853 21.3961 31.2587 21.5422 31.5521C21.6883 31.8589 22.193 32.1389 24.5039 33.206C26.3766 34.0729 27.2797 34.5531 27.2531 34.6731C27.2 34.9132 26.6953 35.4467 26.3766 35.6201C26.2305 35.7001 25.4734 35.8068 24.6898 35.8735C23.0164 35.9935 22.4719 36.1936 21.0242 37.2606C20.4664 37.6607 19.8687 38.0342 19.6828 38.0875C19.4836 38.1276 18.9391 38.0475 18.3414 37.8608C16.15 37.1939 16.0836 37.1939 13.3875 37.9408C12.5375 38.1809 12.4844 38.1809 12.0062 37.9542C11.7406 37.8208 11.1828 37.4473 10.7711 37.1272C9.61562 36.2203 8.96484 35.9802 7.25156 35.8602C6.41484 35.8068 5.64453 35.6868 5.48516 35.5801C5.32578 35.4867 4.87422 34.9399 4.48906 34.353C4.10391 33.7795 3.73203 33.2193 3.65234 33.1259C3.58594 33.0192 3.55937 32.9125 3.58594 32.8859C3.62578 32.8458 5.45859 32.2456 7.66328 31.5388L11.6742 30.2583H14.8484C16.8141 30.2583 18.182 30.205 18.4477 30.1116C18.8195 29.9782 19.0187 29.6581 20.4266 26.8439L21.9805 23.7229H29.2852H36.5898L39.3125 22.8026C40.8133 22.2958 42.1281 21.8823 42.2344 21.8956C42.3406 21.909 43.4031 23.4828 44.5851 25.3901ZM19.6562 23.7896C19.6562 23.8296 19.1648 24.8433 18.5672 26.057L17.4648 28.2577H15.1805C13.9187 28.2577 12.8828 28.2177 12.8828 28.1777C12.8828 28.0043 13.5602 24.043 13.6133 23.8829C13.6531 23.7629 14.3836 23.7229 16.668 23.7229C18.3148 23.7229 19.6562 23.7496 19.6562 23.7896ZM17.3187 39.648C17.9164 39.8214 18.5406 39.9948 18.7266 40.0482C18.9922 40.1015 20.1211 41.5687 23.5742 46.2902C28.0633 52.4122 28.1297 52.5055 29.8164 53.7993C30.0555 53.986 29.9758 53.9994 28.8203 53.9593L27.5719 53.9327L21.6219 46.7303C18.3547 42.7691 15.6719 39.488 15.6719 39.4213C15.6719 39.2479 16.243 39.3279 17.3187 39.648ZM53.5234 52.999V53.9994H51.5047H49.4859L50.1234 53.3458C50.7211 52.7456 50.8672 52.6656 52.0492 52.3588C52.7531 52.1721 53.3641 52.012 53.4305 52.012C53.4836 51.9987 53.5234 52.4522 53.5234 52.999Z" fill="#6B2AE6"/>
<path d="M41.7033 5.7572C39.5251 6.37073 38.1572 8.65147 38.7017 10.7722C39.0603 12.1859 39.7775 13.0662 41.079 13.6531C43.1244 14.6001 45.5681 13.6931 46.5775 11.6124C47.0689 10.6121 47.0822 9.19831 46.6306 8.17131C46.272 7.33104 45.2892 6.35739 44.4658 5.98394C43.6822 5.63716 42.4736 5.5438 41.7033 5.7572ZM43.4564 7.71783C44.4525 7.99792 45.2095 9.3717 44.9173 10.372C44.5986 11.4257 43.8283 12.0126 42.7658 12.0126C40.3884 12.0126 39.7244 8.82486 41.8892 7.83787C42.5134 7.55778 42.779 7.53111 43.4564 7.71783Z" fill="#6B2AE6"/>
<path d="M10.7578 6.85084C9.40312 7.29099 8.63281 8.38467 8.63281 9.86515C8.63281 10.572 8.69922 10.8388 9.03125 11.4123C9.48281 12.1992 10.3461 12.7994 11.2094 12.9195C11.7539 12.9862 11.7539 12.9862 11.8469 13.7064C12.1789 16.0005 14.5164 17.6677 16.7344 17.2009C18.9125 16.7474 20.3336 14.8801 20.1609 12.7327C19.9617 10.3053 17.6641 8.4647 15.3797 8.8915C14.7687 9.01154 14.7555 9.01154 14.5961 8.61141C13.9984 7.15761 12.2586 6.35735 10.7578 6.85084ZM12.4977 8.99821C12.843 9.31831 12.9359 9.90516 12.6969 10.3586C12.4711 10.7988 12.2453 10.9188 11.6477 10.9188C10.532 10.9188 10.2133 9.37166 11.2227 8.79814C11.5547 8.61141 12.1922 8.71811 12.4977 8.99821ZM16.5352 10.9322C17.4781 11.1856 18.1953 12.1059 18.1953 13.0795C18.1953 13.6931 17.7172 14.6 17.2125 14.9068C16.5086 15.3469 15.7781 15.4003 15.0875 15.0535C14.2906 14.6667 13.9055 14.1199 13.8391 13.2529C13.7461 12.1326 14.3437 11.2256 15.393 10.9188C15.8711 10.7721 15.9375 10.7721 16.5352 10.9322Z" fill="#6B2AE6"/>
</svg>
