<svg width="213" height="60" viewBox="0 0 213 60" fill="none" xmlns="http://www.w3.org/2000/svg">
<mask id="mask0_912_15" style="mask-type:alpha" maskUnits="userSpaceOnUse" x="0" y="0" width="62" height="60">
<ellipse cx="31" cy="30" rx="31" ry="30" fill="#D9D9D9"/>
</mask>
<g mask="url(#mask0_912_15)">
<path fill-rule="evenodd" clip-rule="evenodd" d="M23.8546 0.675638C6.78767 4.96294 -3.57864 22.2005 1.14236 38.4417C3.188 45.4775 10.1141 53.4965 17.413 57.279C21.81 59.5572 23.9186 59.9726 31.2347 59.9991C38.239 60.0234 40.7621 59.5877 44.6055 57.6914C49.4139 55.3176 58.6131 47.8908 55.3629 49.005C53.9551 49.4885 52.9902 48.2747 50.6693 43.1028C46.0742 32.8604 45.9838 32.2743 48.5729 29.5177C50.843 27.1013 50.847 27.0515 48.9223 24.7794C47.8537 23.5169 46.4216 22.1264 45.74 21.6896C44.9752 21.198 44.7325 19.7455 45.1052 17.8807C45.6232 15.2947 45.4018 14.8661 43.5502 14.8661C42.0906 14.8661 41.3918 15.505 41.3918 16.8376C41.3918 17.9223 40.95 19.0823 40.4106 19.4154C39.3045 20.099 33.2661 12.2618 33.2661 10.143C33.2661 9.38838 32.8091 8.77184 32.2504 8.77184C31.6918 8.77184 31.2347 9.57628 31.2347 10.5585C31.2347 11.5417 30.2922 12.9342 29.1403 13.6543C27.4157 14.731 27.1171 15.7579 27.4492 19.4703C27.7773 23.1411 27.6005 23.7688 26.4965 22.8526C25.4066 21.9476 25.1405 22.4798 25.1405 25.5645C25.1405 30.2612 21.0238 36.1807 17.7248 36.2284C15.542 36.2599 15.536 36.2945 17.4628 37.752C18.5475 38.5717 20.2041 39.2431 21.1447 39.2431C22.2477 39.2431 23.0806 40.3705 23.49 42.4172C24.3655 46.7969 24.333 47.0153 22.5291 48.8202C21.1305 50.2178 21.1234 50.4158 22.4692 50.4158C23.3132 50.4158 24.3746 49.845 24.8266 49.1462C25.6676 47.8471 25.7458 47.3352 26.0059 41.4045C26.1369 38.4163 26.3593 38.1471 27.7468 39.2989C29.2683 40.5615 32.2504 45.575 32.2504 46.87C32.2504 47.2103 31.7934 47.2062 31.2347 46.8609C30.6588 46.5044 30.219 47.3586 30.219 48.8324C30.219 51.7017 32.2291 52.5011 32.286 49.6541C32.3144 48.2686 32.6191 48.4108 33.6653 50.299C34.4037 51.6316 35.2712 52.2949 35.5941 51.7738C35.9161 51.2528 35.8267 50.2574 35.3971 49.5606C34.485 48.0858 40.241 36.0405 42.1536 35.422C42.8524 35.1955 43.4232 35.5053 43.4232 36.1086C43.4232 38.8063 49.0868 49.3605 50.4143 49.135C53.5224 48.6079 52.4275 51.2701 48.7953 53.074C43.3714 55.7696 30.2119 55.7392 24.7312 53.0191C5.15746 43.3079 5.60234 15.7 25.4777 6.67542C33.4033 3.07677 47.287 4.50384 52.788 9.48182C53.7895 10.3878 54.8469 10.8916 55.1374 10.6001C55.9601 9.77739 48.9873 4.80957 43.7757 2.50391C38.363 0.109889 29.3882 -0.71385 23.8546 0.675638ZM37.2691 21.8176C39.2517 26.1171 38.7317 31.3642 35.8176 36.4854C31.508 44.0596 29.0631 39.9774 32.1062 30.2866C32.7918 28.1018 32.8253 26.0257 32.1997 24.3802C30.9128 20.9969 30.9737 20.6424 32.7258 21.3148C35.0792 22.2178 35.393 20.4779 33.2143 18.612C31.2317 16.9148 30.6659 14.7574 31.8848 13.5396C32.4973 12.9271 34.8121 16.4851 37.2691 21.8176ZM31.2347 28.5182C31.2347 30.4409 30.7777 32.2956 30.219 32.641C29.6055 33.0198 29.2033 31.6354 29.2033 29.1459C29.2033 26.8789 29.6604 25.0232 30.219 25.0232C30.7777 25.0232 31.2347 26.5955 31.2347 28.5182Z" fill="#D3BA80"/>
</g>
<path d="M77.024 13.496C80.544 13.496 83.632 14.184 86.288 15.56C88.976 16.936 91.04 18.904 92.48 21.464C93.952 23.992 94.688 26.936 94.688 30.296C94.688 33.656 93.952 36.6 92.48 39.128C91.04 41.624 88.976 43.56 86.288 44.936C83.632 46.312 80.544 47 77.024 47H65.312V13.496H77.024ZM76.784 41.288C80.304 41.288 83.024 40.328 84.944 38.408C86.864 36.488 87.824 33.784 87.824 30.296C87.824 26.808 86.864 24.088 84.944 22.136C83.024 20.152 80.304 19.16 76.784 19.16H72.032V41.288H76.784ZM97.0303 33.608C97.0303 30.92 97.5583 28.536 98.6143 26.456C99.7023 24.376 101.158 22.776 102.982 21.656C104.838 20.536 106.902 19.976 109.174 19.976C111.158 19.976 112.886 20.376 114.358 21.176C115.862 21.976 117.062 22.984 117.958 24.2V20.408H124.726V47H117.958V43.112C117.094 44.36 115.894 45.4 114.358 46.232C112.854 47.032 111.11 47.432 109.126 47.432C106.886 47.432 104.838 46.856 102.982 45.704C101.158 44.552 99.7023 42.936 98.6143 40.856C97.5583 38.744 97.0303 36.328 97.0303 33.608ZM117.958 33.704C117.958 32.072 117.638 30.68 116.998 29.528C116.358 28.344 115.494 27.448 114.406 26.84C113.318 26.2 112.15 25.88 110.902 25.88C109.654 25.88 108.502 26.184 107.446 26.792C106.39 27.4 105.526 28.296 104.854 29.48C104.214 30.632 103.894 32.008 103.894 33.608C103.894 35.208 104.214 36.616 104.854 37.832C105.526 39.016 106.39 39.928 107.446 40.568C108.534 41.208 109.686 41.528 110.902 41.528C112.15 41.528 113.318 41.224 114.406 40.616C115.494 39.976 116.358 39.08 116.998 37.928C117.638 36.744 117.958 35.336 117.958 33.704ZM145.066 20.024C148.234 20.024 150.794 21.032 152.746 23.048C154.698 25.032 155.674 27.816 155.674 31.4V47H148.954V32.312C148.954 30.2 148.426 28.584 147.37 27.464C146.314 26.312 144.874 25.736 143.05 25.736C141.194 25.736 139.722 26.312 138.634 27.464C137.578 28.584 137.05 30.2 137.05 32.312V47H130.33V20.408H137.05V23.72C137.946 22.568 139.082 21.672 140.458 21.032C141.866 20.36 143.402 20.024 145.066 20.024ZM167.248 41.48H179.104V47H159.616V41.576L171.232 25.928H159.664V20.408H178.96V25.832L167.248 41.48ZM181.619 33.608C181.619 30.92 182.147 28.536 183.203 26.456C184.291 24.376 185.747 22.776 187.571 21.656C189.427 20.536 191.491 19.976 193.763 19.976C195.747 19.976 197.475 20.376 198.947 21.176C200.451 21.976 201.651 22.984 202.547 24.2V20.408H209.315V47H202.547V43.112C201.683 44.36 200.483 45.4 198.947 46.232C197.443 47.032 195.699 47.432 193.715 47.432C191.475 47.432 189.427 46.856 187.571 45.704C185.747 44.552 184.291 42.936 183.203 40.856C182.147 38.744 181.619 36.328 181.619 33.608ZM202.547 33.704C202.547 32.072 202.227 30.68 201.587 29.528C200.947 28.344 200.083 27.448 198.995 26.84C197.907 26.2 196.739 25.88 195.491 25.88C194.243 25.88 193.091 26.184 192.035 26.792C190.979 27.4 190.115 28.296 189.443 29.48C188.803 30.632 188.483 32.008 188.483 33.608C188.483 35.208 188.803 36.616 189.443 37.832C190.115 39.016 190.979 39.928 192.035 40.568C193.123 41.208 194.275 41.528 195.491 41.528C196.739 41.528 197.907 41.224 198.995 40.616C200.083 39.976 200.947 39.08 201.587 37.928C202.227 36.744 202.547 35.336 202.547 33.704Z" fill="white"/>
</svg>
