<svg width="209" height="60" viewBox="0 0 209 60" fill="none" xmlns="http://www.w3.org/2000/svg">
<mask id="mask0_107_48" style="mask-type:alpha" maskUnits="userSpaceOnUse" x="0" y="0" width="62" height="60">
<ellipse cx="31" cy="30" rx="31" ry="30" fill="#D9D9D9"/>
</mask>
<g mask="url(#mask0_107_48)">
<path fill-rule="evenodd" clip-rule="evenodd" d="M23.8546 0.675638C6.78767 4.96294 -3.57864 22.2005 1.14236 38.4417C3.188 45.4775 10.1141 53.4965 17.413 57.279C21.81 59.5572 23.9186 59.9726 31.2347 59.9991C38.239 60.0234 40.7621 59.5877 44.6055 57.6914C49.4139 55.3176 58.6131 47.8908 55.3629 49.005C53.9551 49.4885 52.9902 48.2747 50.6693 43.1028C46.0742 32.8604 45.9838 32.2743 48.5729 29.5177C50.843 27.1013 50.847 27.0515 48.9223 24.7794C47.8537 23.5169 46.4216 22.1264 45.74 21.6896C44.9752 21.198 44.7325 19.7455 45.1052 17.8807C45.6232 15.2947 45.4018 14.8661 43.5502 14.8661C42.0906 14.8661 41.3918 15.505 41.3918 16.8376C41.3918 17.9223 40.95 19.0823 40.4106 19.4154C39.3045 20.099 33.2661 12.2618 33.2661 10.143C33.2661 9.38838 32.8091 8.77184 32.2504 8.77184C31.6918 8.77184 31.2347 9.57628 31.2347 10.5585C31.2347 11.5417 30.2922 12.9342 29.1403 13.6543C27.4157 14.731 27.1171 15.7579 27.4492 19.4703C27.7773 23.1411 27.6005 23.7688 26.4965 22.8526C25.4066 21.9476 25.1405 22.4798 25.1405 25.5645C25.1405 30.2612 21.0238 36.1807 17.7248 36.2284C15.542 36.2599 15.536 36.2945 17.4628 37.752C18.5475 38.5717 20.2041 39.2431 21.1447 39.2431C22.2477 39.2431 23.0806 40.3705 23.49 42.4172C24.3655 46.7969 24.333 47.0153 22.5291 48.8202C21.1305 50.2178 21.1234 50.4158 22.4692 50.4158C23.3132 50.4158 24.3746 49.845 24.8266 49.1462C25.6676 47.8471 25.7458 47.3352 26.0059 41.4045C26.1369 38.4163 26.3593 38.1471 27.7468 39.2989C29.2683 40.5615 32.2504 45.575 32.2504 46.87C32.2504 47.2103 31.7934 47.2062 31.2347 46.8609C30.6588 46.5044 30.219 47.3586 30.219 48.8324C30.219 51.7017 32.2291 52.5011 32.286 49.6541C32.3144 48.2686 32.6191 48.4108 33.6653 50.299C34.4037 51.6316 35.2712 52.2949 35.5941 51.7738C35.9161 51.2528 35.8267 50.2574 35.3971 49.5606C34.485 48.0858 40.241 36.0405 42.1536 35.422C42.8524 35.1955 43.4232 35.5053 43.4232 36.1086C43.4232 38.8063 49.0868 49.3605 50.4143 49.135C53.5224 48.6079 52.4275 51.2701 48.7953 53.074C43.3714 55.7696 30.2119 55.7392 24.7312 53.0191C5.15746 43.3079 5.60234 15.7 25.4777 6.67542C33.4033 3.07677 47.287 4.50384 52.788 9.48182C53.7895 10.3878 54.8469 10.8916 55.1374 10.6001C55.9601 9.77739 48.9873 4.80957 43.7757 2.50391C38.363 0.109889 29.3882 -0.71385 23.8546 0.675638ZM37.2691 21.8176C39.2517 26.1171 38.7317 31.3642 35.8176 36.4854C31.508 44.0596 29.0631 39.9774 32.1062 30.2866C32.7918 28.1018 32.8253 26.0257 32.1997 24.3802C30.9128 20.9969 30.9737 20.6424 32.7258 21.3148C35.0792 22.2178 35.393 20.4779 33.2143 18.612C31.2317 16.9148 30.6659 14.7574 31.8848 13.5396C32.4973 12.9271 34.8121 16.4851 37.2691 21.8176ZM31.2347 28.5182C31.2347 30.4409 30.7777 32.2956 30.219 32.641C29.6055 33.0198 29.2033 31.6354 29.2033 29.1459C29.2033 26.8789 29.6604 25.0232 30.219 25.0232C30.7777 25.0232 31.2347 26.5955 31.2347 28.5182Z" fill="url(#paint0_linear_107_48)"/>
</g>
<path d="M73.024 13.496C76.544 13.496 79.632 14.184 82.288 15.56C84.976 16.936 87.04 18.904 88.48 21.464C89.952 23.992 90.688 26.936 90.688 30.296C90.688 33.656 89.952 36.6 88.48 39.128C87.04 41.624 84.976 43.56 82.288 44.936C79.632 46.312 76.544 47 73.024 47H61.312V13.496H73.024ZM72.784 41.288C76.304 41.288 79.024 40.328 80.944 38.408C82.864 36.488 83.824 33.784 83.824 30.296C83.824 26.808 82.864 24.088 80.944 22.136C79.024 20.152 76.304 19.16 72.784 19.16H68.032V41.288H72.784ZM93.0303 33.608C93.0303 30.92 93.5583 28.536 94.6143 26.456C95.7023 24.376 97.1583 22.776 98.9823 21.656C100.838 20.536 102.902 19.976 105.174 19.976C107.158 19.976 108.886 20.376 110.358 21.176C111.862 21.976 113.062 22.984 113.958 24.2V20.408H120.726V47H113.958V43.112C113.094 44.36 111.894 45.4 110.358 46.232C108.854 47.032 107.11 47.432 105.126 47.432C102.886 47.432 100.838 46.856 98.9823 45.704C97.1583 44.552 95.7023 42.936 94.6143 40.856C93.5583 38.744 93.0303 36.328 93.0303 33.608ZM113.958 33.704C113.958 32.072 113.638 30.68 112.998 29.528C112.358 28.344 111.494 27.448 110.406 26.84C109.318 26.2 108.15 25.88 106.902 25.88C105.654 25.88 104.502 26.184 103.446 26.792C102.39 27.4 101.526 28.296 100.854 29.48C100.214 30.632 99.8943 32.008 99.8943 33.608C99.8943 35.208 100.214 36.616 100.854 37.832C101.526 39.016 102.39 39.928 103.446 40.568C104.534 41.208 105.686 41.528 106.902 41.528C108.15 41.528 109.318 41.224 110.406 40.616C111.494 39.976 112.358 39.08 112.998 37.928C113.638 36.744 113.958 35.336 113.958 33.704ZM141.066 20.024C144.234 20.024 146.794 21.032 148.746 23.048C150.698 25.032 151.674 27.816 151.674 31.4V47H144.954V32.312C144.954 30.2 144.426 28.584 143.37 27.464C142.314 26.312 140.874 25.736 139.05 25.736C137.194 25.736 135.722 26.312 134.634 27.464C133.578 28.584 133.05 30.2 133.05 32.312V47H126.33V20.408H133.05V23.72C133.946 22.568 135.082 21.672 136.458 21.032C137.866 20.36 139.402 20.024 141.066 20.024ZM163.248 41.48H175.104V47H155.616V41.576L167.232 25.928H155.664V20.408H174.96V25.832L163.248 41.48ZM177.619 33.608C177.619 30.92 178.147 28.536 179.203 26.456C180.291 24.376 181.747 22.776 183.571 21.656C185.427 20.536 187.491 19.976 189.763 19.976C191.747 19.976 193.475 20.376 194.947 21.176C196.451 21.976 197.651 22.984 198.547 24.2V20.408H205.315V47H198.547V43.112C197.683 44.36 196.483 45.4 194.947 46.232C193.443 47.032 191.699 47.432 189.715 47.432C187.475 47.432 185.427 46.856 183.571 45.704C181.747 44.552 180.291 42.936 179.203 40.856C178.147 38.744 177.619 36.328 177.619 33.608ZM198.547 33.704C198.547 32.072 198.227 30.68 197.587 29.528C196.947 28.344 196.083 27.448 194.995 26.84C193.907 26.2 192.739 25.88 191.491 25.88C190.243 25.88 189.091 26.184 188.035 26.792C186.979 27.4 186.115 28.296 185.443 29.48C184.803 30.632 184.483 32.008 184.483 33.608C184.483 35.208 184.803 36.616 185.443 37.832C186.115 39.016 186.979 39.928 188.035 40.568C189.123 41.208 190.275 41.528 191.491 41.528C192.739 41.528 193.907 41.224 194.995 40.616C196.083 39.976 196.947 39.08 197.587 37.928C198.227 36.744 198.547 35.336 198.547 33.704Z" fill="#161921"/>
<defs>
<linearGradient id="paint0_linear_107_48" x1="-1.25714e-07" y1="7.10995" x2="28.0214" y2="60" gradientUnits="userSpaceOnUse">
<stop stop-color="#EB0029"/>
<stop offset="1" stop-color="#6B2AE6"/>
</linearGradient>
</defs>
</svg>
