<svg width="774" height="818" viewBox="0 0 774 818" fill="none" xmlns="http://www.w3.org/2000/svg">
<rect opacity="0.2" x="172.938" y="379" width="746" height="746" transform="rotate(36.4236 172.938 379)" fill="url(#paint0_linear_32_783)"/>
<rect opacity="0.2" x="-67.062" y="-91" width="746" height="746" transform="rotate(36.4236 -67.062 -91)" fill="url(#paint1_linear_32_783)"/>
<g opacity="0.1">
<path d="M226.382 162.988C225.559 162.165 224.248 162.165 223.425 162.988C222.601 163.812 222.601 165.122 223.425 165.946C224.248 166.77 225.559 166.77 226.382 165.946C227.206 165.122 227.206 163.812 226.382 162.988Z" fill="white" stroke="white" stroke-miterlimit="10"/>
<path d="M195.42 225.549C196.578 225.549 197.517 224.611 197.517 223.453C197.517 222.295 196.578 221.356 195.42 221.356C194.262 221.356 193.323 222.295 193.323 223.453C193.323 224.611 194.262 225.549 195.42 225.549Z" fill="white" stroke="white" stroke-miterlimit="10"/>
<path d="M195.42 196.047C196.578 196.047 197.517 195.109 197.517 193.951C197.517 192.793 196.578 191.854 195.42 191.854C194.262 191.854 193.323 192.793 193.323 193.951C193.323 195.109 194.262 196.047 195.42 196.047Z" fill="white" stroke="white" stroke-miterlimit="10"/>
<path d="M137.913 283.88C138.737 283.056 138.737 281.746 137.913 280.922C137.089 280.099 135.779 280.099 134.955 280.922C134.132 281.746 134.132 283.056 134.955 283.88C135.779 284.704 137.127 284.704 137.913 283.88Z" fill="white" stroke="white" stroke-miterlimit="10"/>
<path d="M164.458 251.458C163.634 252.281 163.634 253.592 164.458 254.415C165.281 255.239 166.592 255.239 167.415 254.415C168.239 253.592 168.239 252.281 167.415 251.458C166.592 250.634 165.281 250.634 164.458 251.458Z" fill="white" stroke="white" stroke-miterlimit="10"/>
<path d="M78.946 310.425C78.1223 309.601 76.812 309.601 75.9884 310.425C75.1647 311.248 75.1647 312.559 75.9884 313.382C76.2879 313.682 76.6996 313.832 77.074 313.906C77.673 313.719 78.272 313.569 78.9085 313.382C78.9085 313.382 78.946 313.382 78.946 313.345C79.7697 312.559 79.7697 311.248 78.946 310.425Z" fill="white" stroke="white" stroke-miterlimit="10"/>
<path d="M223.425 104.021C222.601 104.845 222.601 106.155 223.425 106.979C224.248 107.803 225.559 107.803 226.382 106.979C227.206 106.155 227.206 104.845 226.382 104.021C225.559 103.197 224.248 103.235 223.425 104.021Z" fill="white" stroke="white" stroke-miterlimit="10"/>
<path d="M226.382 136.481C227.206 135.658 227.206 134.347 226.382 133.523C225.559 132.7 224.248 132.7 223.425 133.523C222.601 134.347 222.601 135.658 223.425 136.481C224.248 137.267 225.559 137.267 226.382 136.481Z" fill="white" stroke="white" stroke-miterlimit="10"/>
<path d="M195.42 107.615C196.578 107.615 197.517 106.677 197.517 105.519C197.517 104.361 196.578 103.422 195.42 103.422C194.262 103.422 193.323 104.361 193.323 105.519C193.323 106.677 194.262 107.615 195.42 107.615Z" fill="white" stroke="white" stroke-miterlimit="10"/>
<path d="M223.425 74.5564C222.601 75.38 222.601 76.6905 223.425 77.5141C224.248 78.3378 225.559 78.3378 226.382 77.5141C227.206 76.6905 227.206 75.38 226.382 74.5564C225.559 73.7327 224.248 73.7327 223.425 74.5564Z" fill="white" stroke="white" stroke-miterlimit="10"/>
<path d="M165.955 107.615C167.113 107.615 168.052 106.677 168.052 105.519C168.052 104.361 167.113 103.422 165.955 103.422C164.797 103.422 163.858 104.361 163.858 105.519C163.858 106.677 164.797 107.615 165.955 107.615Z" fill="white" stroke="white" stroke-miterlimit="10"/>
<path d="M137.913 192.491C137.089 191.667 135.779 191.667 134.955 192.491C134.132 193.314 134.132 194.625 134.955 195.448C135.779 196.272 137.089 196.272 137.913 195.448C138.737 194.625 138.737 193.314 137.913 192.491Z" fill="white" stroke="white" stroke-miterlimit="10"/>
<path d="M165.955 166.582C167.113 166.582 168.052 165.644 168.052 164.486C168.052 163.328 167.113 162.389 165.955 162.389C164.797 162.389 163.858 163.328 163.858 164.486C163.858 165.644 164.797 166.582 165.955 166.582Z" fill="white" stroke="white" stroke-miterlimit="10"/>
<path d="M165.955 196.047C167.113 196.047 168.052 195.109 168.052 193.951C168.052 192.793 167.113 191.854 165.955 191.854C164.797 191.854 163.858 192.793 163.858 193.951C163.858 195.109 164.797 196.047 165.955 196.047Z" fill="white" stroke="white" stroke-miterlimit="10"/>
<path d="M134.993 165.946C135.817 166.77 137.127 166.77 137.95 165.946C138.774 165.122 138.774 163.812 137.95 162.988C137.127 162.165 135.817 162.165 134.993 162.988C134.169 163.812 134.169 165.122 134.993 165.946Z" fill="white" stroke="white" stroke-miterlimit="10"/>
<path d="M195.42 166.582C196.578 166.582 197.517 165.644 197.517 164.486C197.517 163.328 196.578 162.389 195.42 162.389C194.262 162.389 193.323 163.328 193.323 164.486C193.323 165.644 194.262 166.582 195.42 166.582Z" fill="white" stroke="white" stroke-miterlimit="10"/>
<path d="M165.955 137.08C167.113 137.08 168.052 136.141 168.052 134.984C168.052 133.826 167.113 132.887 165.955 132.887C164.797 132.887 163.858 133.826 163.858 134.984C163.858 136.141 164.797 137.08 165.955 137.08Z" fill="white" stroke="white" stroke-miterlimit="10"/>
<path d="M106.951 166.582C108.109 166.582 109.047 165.644 109.047 164.486C109.047 163.328 108.109 162.389 106.951 162.389C105.793 162.389 104.854 163.328 104.854 164.486C104.854 165.644 105.793 166.582 106.951 166.582Z" fill="white" stroke="white" stroke-miterlimit="10"/>
<path d="M195.42 137.08C196.578 137.08 197.517 136.141 197.517 134.984C197.517 133.826 196.578 132.887 195.42 132.887C194.262 132.887 193.323 133.826 193.323 134.984C193.323 136.141 194.262 137.08 195.42 137.08Z" fill="white" stroke="white" stroke-miterlimit="10"/>
<path d="M78.946 251.458C78.1223 250.634 76.812 250.634 75.9884 251.458C75.1647 252.281 75.1647 253.592 75.9884 254.415C76.812 255.239 78.1223 255.239 78.946 254.415C79.7697 253.592 79.7697 252.281 78.946 251.458Z" fill="white" stroke="white" stroke-miterlimit="10"/>
<path d="M106.951 225.549C108.109 225.549 109.047 224.611 109.047 223.453C109.047 222.295 108.109 221.356 106.951 221.356C105.793 221.356 104.854 222.295 104.854 223.453C104.854 224.611 105.793 225.549 106.951 225.549Z" fill="white" stroke="white" stroke-miterlimit="10"/>
<path d="M134.993 254.415C135.817 255.239 137.127 255.239 137.95 254.415C138.774 253.592 138.774 252.281 137.95 251.458C137.127 250.634 135.817 250.634 134.993 251.458C134.169 252.281 134.169 253.592 134.993 254.415Z" fill="white" stroke="white" stroke-miterlimit="10"/>
<path d="M108.448 251.458C107.625 250.634 106.314 250.634 105.491 251.458C104.667 252.281 104.667 253.592 105.491 254.415C106.314 255.239 107.625 255.239 108.448 254.415C109.234 253.592 109.234 252.281 108.448 251.458Z" fill="white" stroke="white" stroke-miterlimit="10"/>
<path d="M78.946 224.913C79.7697 224.089 79.7697 222.779 78.946 221.955C78.1223 221.132 76.812 221.132 75.9884 221.955C75.1647 222.779 75.1647 224.089 75.9884 224.913C76.812 225.737 78.1223 225.737 78.946 224.913Z" fill="white" stroke="white" stroke-miterlimit="10"/>
<path d="M137.913 221.993C137.089 221.169 135.779 221.169 134.955 221.993C134.132 222.816 134.132 224.127 134.955 224.95C135.779 225.774 137.089 225.774 137.913 224.95C138.737 224.127 138.737 222.779 137.913 221.993Z" fill="white" stroke="white" stroke-miterlimit="10"/>
<path d="M106.951 196.047C108.109 196.047 109.047 195.109 109.047 193.951C109.047 192.793 108.109 191.854 106.951 191.854C105.793 191.854 104.854 192.793 104.854 193.951C104.854 195.109 105.793 196.047 106.951 196.047Z" fill="white" stroke="white" stroke-miterlimit="10"/>
<path d="M47.9837 225.549C49.1416 225.549 50.0803 224.611 50.0803 223.453C50.0803 222.295 49.1416 221.356 47.9837 221.356C46.8258 221.356 45.8871 222.295 45.8871 223.453C45.8871 224.611 46.8258 225.549 47.9837 225.549Z" fill="white" stroke="white" stroke-miterlimit="10"/>
<path d="M165.955 225.549C167.113 225.549 168.052 224.611 168.052 223.453C168.052 222.295 167.113 221.356 165.955 221.356C164.797 221.356 163.858 222.295 163.858 223.453C163.858 224.611 164.797 225.549 165.955 225.549Z" fill="white" stroke="white" stroke-miterlimit="10"/>
<path d="M47.9837 284.517C49.1416 284.517 50.0803 283.578 50.0803 282.42C50.0803 281.262 49.1416 280.323 47.9837 280.323C46.8258 280.323 45.8871 281.262 45.8871 282.42C45.8871 283.578 46.8258 284.517 47.9837 284.517Z" fill="white" stroke="white" stroke-miterlimit="10"/>
<path d="M46.5235 313.382C47.3472 314.206 48.6575 314.206 49.4812 313.382C50.3048 312.559 50.3048 311.248 49.4812 310.425C48.6575 309.601 47.3472 309.601 46.5235 310.425C45.6999 311.248 45.6999 312.559 46.5235 313.382Z" fill="white" stroke="white" stroke-miterlimit="10"/>
<path d="M18.5187 284.517C19.6766 284.517 20.6155 283.578 20.6155 282.42C20.6155 281.262 19.6766 280.323 18.5187 280.323C17.3607 280.323 16.4221 281.262 16.4221 282.42C16.4221 283.578 17.3607 284.517 18.5187 284.517Z" fill="white" stroke="white" stroke-miterlimit="10"/>
<path d="M75.9884 280.96C75.1647 281.783 75.1647 283.094 75.9884 283.917C76.812 284.741 78.1223 284.741 78.946 283.917C79.7697 283.094 79.7697 281.783 78.946 280.96C78.1223 280.136 76.812 280.136 75.9884 280.96Z" fill="white" stroke="white" stroke-miterlimit="10"/>
<path d="M49.4812 251.458C48.6575 250.634 47.3472 250.634 46.5235 251.458C45.6999 252.281 45.6999 253.592 46.5235 254.415C47.3472 255.239 48.6575 255.239 49.4812 254.415C50.2674 253.592 50.2674 252.281 49.4812 251.458Z" fill="white" stroke="white" stroke-miterlimit="10"/>
<path d="M19.9789 251.458C19.1552 250.634 17.845 250.634 17.0213 251.458C16.1976 252.281 16.1976 253.592 17.0213 254.415C17.845 255.239 19.1552 255.239 19.9789 254.415C20.8026 253.592 20.8026 252.281 19.9789 251.458Z" fill="white" stroke="white" stroke-miterlimit="10"/>
<path d="M106.951 284.517C108.109 284.517 109.047 283.578 109.047 282.42C109.047 281.262 108.109 280.323 106.951 280.323C105.793 280.323 104.854 281.262 104.854 282.42C104.854 283.578 105.793 284.517 106.951 284.517Z" fill="white" stroke="white" stroke-miterlimit="10"/>
<path d="M17.0213 313.382C17.845 314.206 19.1552 314.206 19.9789 313.382C20.8026 312.559 20.8026 311.248 19.9789 310.425C19.1552 309.601 17.845 309.601 17.0213 310.425C16.1976 311.248 16.1976 312.559 17.0213 313.382Z" fill="white" stroke="white" stroke-miterlimit="10"/>
<path d="M196.88 15.5893C196.056 14.7657 194.746 14.7657 193.922 15.5893C193.099 16.413 193.099 17.7234 193.922 18.5471C194.746 19.3707 196.056 19.3707 196.88 18.5471C197.704 17.7234 197.704 16.3756 196.88 15.5893Z" fill="white" stroke="white" stroke-miterlimit="10"/>
<path d="M165.955 48.6109C167.113 48.6109 168.052 47.6722 168.052 46.5143C168.052 45.3563 167.113 44.4177 165.955 44.4177C164.797 44.4177 163.858 45.3563 163.858 46.5143C163.858 47.6722 164.797 48.6109 165.955 48.6109Z" fill="white" stroke="white" stroke-miterlimit="10"/>
<path d="M193.96 77.4766C194.784 78.3003 196.094 78.3003 196.918 77.4766C197.741 76.653 197.741 75.3426 196.918 74.5189C196.094 73.6953 194.784 73.6953 193.96 74.5189C193.136 75.3426 193.136 76.6904 193.96 77.4766Z" fill="white" stroke="white" stroke-miterlimit="10"/>
<path d="M164.458 77.4766C165.281 78.3003 166.592 78.3003 167.415 77.4766C168.239 76.653 168.239 75.3426 167.415 74.5189C166.592 73.6953 165.281 73.6953 164.458 74.5189C163.634 75.3426 163.634 76.6904 164.458 77.4766Z" fill="white" stroke="white" stroke-miterlimit="10"/>
<path d="M134.993 48.0118C135.817 48.8355 137.127 48.8355 137.95 48.0118C138.774 47.1881 138.774 45.8778 137.95 45.0541C137.127 44.2305 135.817 44.2305 134.993 45.0541C134.169 45.8778 134.169 47.1881 134.993 48.0118Z" fill="white" stroke="white" stroke-miterlimit="10"/>
<path d="M195.42 48.6109C196.578 48.6109 197.517 47.6722 197.517 46.5143C197.517 45.3563 196.578 44.4177 195.42 44.4177C194.262 44.4177 193.323 45.3563 193.323 46.5143C193.323 47.6722 194.262 48.6109 195.42 48.6109Z" fill="white" stroke="white" stroke-miterlimit="10"/>
<path d="M164.458 18.5096C165.281 19.3332 166.592 19.3332 167.415 18.5096C168.239 17.6859 168.239 16.3755 167.415 15.5519C166.592 14.7282 165.281 14.7282 164.458 15.5519C163.634 16.3755 163.634 17.7233 164.458 18.5096Z" fill="white" stroke="white" stroke-miterlimit="10"/>
<path d="M223.425 48.0118C224.248 48.8355 225.559 48.8355 226.382 48.0118C227.206 47.1881 227.206 45.8778 226.382 45.0541C225.559 44.2305 224.248 44.2305 223.425 45.0541C222.639 45.8778 222.639 47.1881 223.425 48.0118Z" fill="white" stroke="white" stroke-miterlimit="10"/>
<path d="M78.946 133.523C78.1223 132.7 76.812 132.7 75.9884 133.523C75.1647 134.347 75.1647 135.658 75.9884 136.481C76.812 137.305 78.1223 137.305 78.946 136.481C79.7697 135.658 79.7697 134.347 78.946 133.523Z" fill="white" stroke="white" stroke-miterlimit="10"/>
<path d="M106.951 107.615C108.109 107.615 109.047 106.677 109.047 105.519C109.047 104.361 108.109 103.422 106.951 103.422C105.793 103.422 104.854 104.361 104.854 105.519C104.854 106.677 105.793 107.615 106.951 107.615Z" fill="white" stroke="white" stroke-miterlimit="10"/>
<path d="M134.993 136.481C135.817 137.305 137.127 137.305 137.95 136.481C138.774 135.658 138.774 134.347 137.95 133.523C137.127 132.7 135.817 132.7 134.993 133.523C134.169 134.347 134.169 135.658 134.993 136.481Z" fill="white" stroke="white" stroke-miterlimit="10"/>
<path d="M106.951 137.08C108.109 137.08 109.047 136.141 109.047 134.984C109.047 133.826 108.109 132.887 106.951 132.887C105.793 132.887 104.854 133.826 104.854 134.984C104.854 136.141 105.793 137.08 106.951 137.08Z" fill="white" stroke="white" stroke-miterlimit="10"/>
<path d="M75.9884 106.979C76.812 107.803 78.1223 107.803 78.946 106.979C79.7696 106.155 79.7696 104.845 78.946 104.021C78.1223 103.198 76.812 103.198 75.9884 104.021C75.2021 104.845 75.2021 106.155 75.9884 106.979Z" fill="white" stroke="white" stroke-miterlimit="10"/>
<path d="M137.913 104.021C137.089 103.198 135.779 103.198 134.955 104.021C134.132 104.845 134.132 106.155 134.955 106.979C135.779 107.803 137.089 107.803 137.913 106.979C138.737 106.155 138.737 104.845 137.913 104.021Z" fill="white" stroke="white" stroke-miterlimit="10"/>
<path d="M105.491 77.4766C106.314 78.3003 107.625 78.3003 108.448 77.4766C109.272 76.653 109.272 75.3426 108.448 74.5189C107.625 73.6953 106.314 73.6953 105.491 74.5189C104.667 75.3426 104.667 76.6904 105.491 77.4766Z" fill="white" stroke="white" stroke-miterlimit="10"/>
<path d="M47.9837 107.615C49.1416 107.615 50.0803 106.677 50.0803 105.519C50.0803 104.361 49.1416 103.422 47.9837 103.422C46.8258 103.422 45.8871 104.361 45.8871 105.519C45.8871 106.677 46.8258 107.615 47.9837 107.615Z" fill="white" stroke="white" stroke-miterlimit="10"/>
<path d="M134.993 77.4766C135.817 78.3003 137.127 78.3003 137.95 77.4766C138.774 76.653 138.774 75.3426 137.95 74.5189C137.127 73.6953 135.817 73.6953 134.993 74.5189C134.169 75.3426 134.169 76.6904 134.993 77.4766Z" fill="white" stroke="white" stroke-miterlimit="10"/>
<path d="M18.5187 196.047C19.6766 196.047 20.6155 195.109 20.6155 193.951C20.6155 192.793 19.6766 191.854 18.5187 191.854C17.3607 191.854 16.4221 192.793 16.4221 193.951C16.4221 195.109 17.3607 196.047 18.5187 196.047Z" fill="white" stroke="white" stroke-miterlimit="10"/>
<path d="M47.9837 166.582C49.1416 166.582 50.0803 165.644 50.0803 164.486C50.0803 163.328 49.1416 162.389 47.9837 162.389C46.8258 162.389 45.8871 163.328 45.8871 164.486C45.8871 165.644 46.8258 166.582 47.9837 166.582Z" fill="white" stroke="white" stroke-miterlimit="10"/>
<path d="M75.9884 195.448C76.812 196.272 78.1223 196.272 78.946 195.448C79.7696 194.625 79.7696 193.314 78.946 192.491C78.1223 191.667 76.812 191.667 75.9884 192.491C75.2021 193.314 75.2021 194.625 75.9884 195.448Z" fill="white" stroke="white" stroke-miterlimit="10"/>
<path d="M47.9837 196.047C49.1416 196.047 50.0803 195.109 50.0803 193.951C50.0803 192.793 49.1416 191.854 47.9837 191.854C46.8258 191.854 45.8871 192.793 45.8871 193.951C45.8871 195.109 46.8258 196.047 47.9837 196.047Z" fill="white" stroke="white" stroke-miterlimit="10"/>
<path d="M18.5187 166.582C19.6766 166.582 20.6155 165.644 20.6155 164.486C20.6155 163.328 19.6766 162.389 18.5187 162.389C17.3607 162.389 16.4221 163.328 16.4221 164.486C16.4221 165.644 17.3607 166.582 18.5187 166.582Z" fill="white" stroke="white" stroke-miterlimit="10"/>
<path d="M78.946 162.988C78.1223 162.165 76.812 162.165 75.9884 162.988C75.1647 163.812 75.1647 165.122 75.9884 165.946C76.812 166.77 78.1223 166.77 78.946 165.946C79.7697 165.122 79.7697 163.812 78.946 162.988Z" fill="white" stroke="white" stroke-miterlimit="10"/>
<path d="M47.9837 137.08C49.1416 137.08 50.0803 136.141 50.0803 134.984C50.0803 133.826 49.1416 132.887 47.9837 132.887C46.8258 132.887 45.8871 133.826 45.8871 134.984C45.8871 136.141 46.8258 137.08 47.9837 137.08Z" fill="white" stroke="white" stroke-miterlimit="10"/>
<path d="M18.5187 137.08C19.6766 137.08 20.6155 136.141 20.6155 134.984C20.6155 133.826 19.6766 132.887 18.5187 132.887C17.3607 132.887 16.4221 133.826 16.4221 134.984C16.4221 136.141 17.3607 137.08 18.5187 137.08Z" fill="white" stroke="white" stroke-miterlimit="10"/>
<path d="M18.5187 225.549C19.6766 225.549 20.6155 224.611 20.6155 223.453C20.6155 222.295 19.6766 221.356 18.5187 221.356C17.3607 221.356 16.4221 222.295 16.4221 223.453C16.4221 224.611 17.3607 225.549 18.5187 225.549Z" fill="white" stroke="white" stroke-miterlimit="10"/>
<path d="M134.993 18.5096C135.817 19.3332 137.127 19.3332 137.95 18.5096C138.774 17.6859 138.774 16.3755 137.95 15.5519C137.127 14.7282 135.817 14.7282 134.993 15.5519C134.169 16.3755 134.169 17.7233 134.993 18.5096Z" fill="white" stroke="white" stroke-miterlimit="10"/>
<path d="M105.491 18.5096C106.314 19.3332 107.625 19.3332 108.448 18.5096C109.272 17.6859 109.272 16.3755 108.448 15.5519C107.625 14.7282 106.314 14.7282 105.491 15.5519C104.667 16.3755 104.667 17.7233 105.491 18.5096Z" fill="white" stroke="white" stroke-miterlimit="10"/>
<path d="M19.9789 74.5564C19.1552 73.7327 17.845 73.7327 17.0213 74.5564C16.1976 75.38 16.1976 76.6905 17.0213 77.5141C17.845 78.3378 19.1552 78.3378 19.9789 77.5141C20.8026 76.6905 20.8026 75.3426 19.9789 74.5564Z" fill="white" stroke="white" stroke-miterlimit="10"/>
<path d="M47.9837 48.6109C49.1416 48.6109 50.0803 47.6722 50.0803 46.5143C50.0803 45.3563 49.1416 44.4177 47.9837 44.4177C46.8258 44.4177 45.8871 45.3563 45.8871 46.5143C45.8871 47.6722 46.8258 48.6109 47.9837 48.6109Z" fill="white" stroke="white" stroke-miterlimit="10"/>
<path d="M75.9884 77.4766C76.812 78.3003 78.1223 78.3003 78.946 77.4766C79.7696 76.653 79.7696 75.3426 78.946 74.5189C78.1223 73.6953 76.812 73.6953 75.9884 74.5189C75.2021 75.3426 75.2021 76.6904 75.9884 77.4766Z" fill="white" stroke="white" stroke-miterlimit="10"/>
<path d="M46.5235 77.4766C47.3472 78.3003 48.6575 78.3003 49.4812 77.4766C50.3048 76.653 50.3048 75.3426 49.4812 74.5189C48.6575 73.6953 47.3472 73.6953 46.5235 74.5189C45.6999 75.3426 45.6999 76.6904 46.5235 77.4766Z" fill="white" stroke="white" stroke-miterlimit="10"/>
<path d="M18.5187 48.6109C19.6766 48.6109 20.6155 47.6722 20.6155 46.5143C20.6155 45.3563 19.6766 44.4177 18.5187 44.4177C17.3607 44.4177 16.4221 45.3563 16.4221 46.5143C16.4221 47.6722 17.3607 48.6109 18.5187 48.6109Z" fill="white" stroke="white" stroke-miterlimit="10"/>
<path d="M75.9884 48.0118C76.812 48.8355 78.1223 48.8355 78.946 48.0118C79.7696 47.1881 79.7696 45.8778 78.946 45.0541C78.1223 44.2305 76.812 44.2305 75.9884 45.0541C75.2021 45.8778 75.2021 47.1881 75.9884 48.0118Z" fill="white" stroke="white" stroke-miterlimit="10"/>
<path d="M46.5235 18.5096C47.3472 19.3332 48.6575 19.3332 49.4812 18.5096C50.3048 17.6859 50.3048 16.3755 49.4812 15.5519C48.6575 14.7282 47.3472 14.7282 46.5235 15.5519C45.6999 16.3755 45.6999 17.7233 46.5235 18.5096Z" fill="white" stroke="white" stroke-miterlimit="10"/>
<path d="M19.9789 15.5893C19.1552 14.7657 17.845 14.7657 17.0213 15.5893C16.1976 16.413 16.1976 17.7234 17.0213 18.5471C17.845 19.3707 19.1552 19.3707 19.9789 18.5471C20.8026 17.7234 20.8026 16.3756 19.9789 15.5893Z" fill="white" stroke="white" stroke-miterlimit="10"/>
<path d="M75.9884 18.5096C76.812 19.3332 78.1223 19.3332 78.946 18.5096C79.7696 17.6859 79.7696 16.3755 78.946 15.5519C78.1223 14.7282 76.812 14.7282 75.9884 15.5519C75.2021 16.3755 75.2021 17.7233 75.9884 18.5096Z" fill="white" stroke="white" stroke-miterlimit="10"/>
<path d="M106.951 48.6109C108.109 48.6109 109.047 47.6722 109.047 46.5143C109.047 45.3563 108.109 44.4177 106.951 44.4177C105.793 44.4177 104.854 45.3563 104.854 46.5143C104.854 47.6722 105.793 48.6109 106.951 48.6109Z" fill="white" stroke="white" stroke-miterlimit="10"/>
<path d="M18.5187 107.615C19.6766 107.615 20.6155 106.677 20.6155 105.519C20.6155 104.361 19.6766 103.422 18.5187 103.422C17.3607 103.422 16.4221 104.361 16.4221 105.519C16.4221 106.677 17.3607 107.615 18.5187 107.615Z" fill="white" stroke="white" stroke-miterlimit="10"/>
</g>
<defs>
<linearGradient id="paint0_linear_32_783" x1="890.535" y1="670.961" x2="118.605" y2="658.948" gradientUnits="userSpaceOnUse">
<stop stop-color="#6B2AE6"/>
<stop offset="1" stop-color="#6B2AE6" stop-opacity="0"/>
</linearGradient>
<linearGradient id="paint1_linear_32_783" x1="-117.144" y1="208.182" x2="698.691" y2="232.537" gradientUnits="userSpaceOnUse">
<stop stop-color="#EB0029"/>
<stop offset="1" stop-color="#EB0029" stop-opacity="0"/>
</linearGradient>
</defs>
</svg>
