<svg width="159" height="50" viewBox="0 0 159 50" fill="none" xmlns="http://www.w3.org/2000/svg">
<mask id="mask0_80_2904" style="mask-type:alpha" maskUnits="userSpaceOnUse" x="0" y="0" width="52" height="51">
<ellipse cx="25.7811" cy="25.001" rx="25.779" ry="25" fill="#D9D9D9"/>
</mask>
<g mask="url(#mask0_80_2904)">
<path fill-rule="evenodd" clip-rule="evenodd" d="M19.8392 0.564008C5.64668 4.13676 -2.97373 18.5014 0.952163 32.0357C2.65327 37.8989 8.41288 44.5814 14.4825 47.7335C18.1389 49.632 19.8924 49.9782 25.9763 50.0002C31.801 50.0205 33.8991 49.6574 37.0952 48.0771C41.0937 46.099 48.7436 39.91 46.0408 40.8385C44.8701 41.2414 44.0677 40.2299 42.1377 35.9199C38.3165 27.3846 38.2414 26.8962 40.3944 24.599C42.2821 22.5854 42.2855 22.5439 40.6849 20.6505C39.7964 19.5984 38.6054 18.4396 38.0387 18.0756C37.4026 17.666 37.2008 16.4556 37.5108 14.9016C37.9415 12.7466 37.7574 12.3894 36.2176 12.3894C35.0039 12.3894 34.4227 12.9218 34.4227 14.0323C34.4227 14.9363 34.0553 15.9029 33.6068 16.1805C32.687 16.7502 27.6656 10.2192 27.6656 8.45352C27.6656 7.82462 27.2855 7.31084 26.821 7.31084C26.3564 7.31084 25.9763 7.98121 25.9763 8.7997C25.9763 9.61904 25.1925 10.7795 24.2347 11.3796C22.8005 12.2768 22.5522 13.1325 22.8284 16.2262C23.1012 19.2852 22.9542 19.8083 22.0361 19.0448C21.1298 18.2906 20.9085 18.7342 20.9085 21.3048C20.9085 25.2186 17.4852 30.1516 14.7418 30.1913C12.9266 30.2176 12.9216 30.2464 14.5239 31.461C15.4259 32.144 16.8035 32.7035 17.5857 32.7035C18.503 32.7035 19.1956 33.6431 19.536 35.3486C20.264 38.9984 20.237 39.1804 18.7369 40.6845C17.5739 41.8491 17.5679 42.0142 18.6871 42.0142C19.389 42.0142 20.2716 41.5385 20.6475 40.9562C21.3469 39.8736 21.4119 39.447 21.6281 34.5047C21.7371 32.0145 21.9221 31.7902 23.0758 32.7501C24.3411 33.8022 26.821 37.9801 26.821 39.0593C26.821 39.3429 26.4409 39.3395 25.9763 39.0517C25.4974 38.7546 25.1317 39.4664 25.1317 40.6946C25.1317 43.0858 26.8032 43.7519 26.8505 41.3794C26.8742 40.2248 27.1276 40.3433 27.9976 41.9168C28.6116 43.0273 29.3329 43.5801 29.6015 43.1459C29.8693 42.7116 29.795 41.8821 29.4377 41.3015C28.6792 40.0725 33.4658 30.0348 35.0562 29.5193C35.6373 29.3305 36.112 29.5887 36.112 30.0915C36.112 32.3396 40.8217 41.1347 41.9257 40.9468C44.5103 40.5075 43.5998 42.726 40.5793 44.2293C36.069 46.4757 25.1258 46.4503 20.5681 44.1836C4.29103 36.0909 4.66098 13.0843 21.1889 5.56383C27.7796 2.56495 39.325 3.75418 43.8996 7.90249C44.7324 8.6575 45.6117 9.07733 45.8533 8.83441C46.5374 8.1488 40.739 4.00895 36.4051 2.08757C31.904 0.0925505 24.4408 -0.593898 19.8392 0.564008ZM30.9944 18.1823C32.6431 21.7652 32.2106 26.1378 29.7874 30.4055C26.2035 36.7173 24.1705 33.3155 26.701 25.2398C27.2712 23.4191 27.299 21.689 26.7787 20.3178C25.7086 17.4984 25.7593 17.203 27.2163 17.7633C29.1733 18.5158 29.4343 17.0659 27.6225 15.511C25.9738 14.0966 25.5033 12.2988 26.5169 11.284C27.0262 10.7736 28.9512 13.7386 30.9944 18.1823ZM25.9763 23.7662C25.9763 25.3684 25.5963 26.914 25.1317 27.2018C24.6215 27.5175 24.2871 26.3638 24.2871 24.2892C24.2871 22.4 24.6671 20.8536 25.1317 20.8536C25.5963 20.8536 25.9763 22.1639 25.9763 23.7662Z" fill="url(#paint0_linear_80_2904)"/>
</g>
<path d="M68.079 13.333V18.3178H61.2812V38.8753H55.0316V18.3178H48.2338V13.333H68.079ZM69.9729 28.6875C69.9729 26.6014 70.3627 24.77 71.1424 23.1933C71.9465 21.6166 73.0307 20.4038 74.3951 19.5548C75.7596 18.7059 77.2824 18.2814 78.9636 18.2814C80.4011 18.2814 81.6559 18.5724 82.7279 19.1546C83.8244 19.7368 84.665 20.5008 85.2497 21.4469V18.5724H91.4993V38.8753H85.2497V36.0009C84.6406 36.9469 83.7878 37.7109 82.6914 38.2931C81.6193 38.8753 80.3646 39.1663 78.927 39.1663C77.2702 39.1663 75.7596 38.7419 74.3951 37.8929C73.0307 37.0196 71.9465 35.7947 71.1424 34.218C70.3627 32.617 69.9729 30.7736 69.9729 28.6875ZM85.2497 28.7239C85.2497 27.1715 84.8111 25.9464 83.934 25.049C83.0812 24.1515 82.0336 23.7027 80.7909 23.7027C79.5483 23.7027 78.4885 24.1515 77.6113 25.049C76.7585 25.9222 76.3322 27.1351 76.3322 28.6875C76.3322 30.2399 76.7585 31.477 77.6113 32.3987C78.4885 33.2962 79.5483 33.745 80.7909 33.745C82.0336 33.745 83.0812 33.2962 83.934 32.3987C84.8111 31.5013 85.2497 30.2763 85.2497 28.7239ZM108.447 18.3541C110.834 18.3541 112.735 19.1304 114.148 20.6828C115.586 22.2109 116.304 24.3213 116.304 27.0138V38.8753H110.091V27.8506C110.091 26.4922 109.738 25.4371 109.032 24.6851C108.325 23.9332 107.375 23.5572 106.181 23.5572C104.987 23.5572 104.037 23.9332 103.33 24.6851C102.624 25.4371 102.27 26.4922 102.27 27.8506V38.8753H96.0206V18.5724H102.27V21.2649C102.904 20.3674 103.756 19.664 104.829 19.1546C105.901 18.621 107.107 18.3541 108.447 18.3541ZM126.495 33.745H135.34V38.8753H119.514V33.9269L127.993 23.7027H119.587V18.5724H135.157V23.5208L126.495 33.745ZM158.002 28.3964C158.002 28.9785 157.966 29.5849 157.893 30.2156H143.749C143.846 31.477 144.248 32.4473 144.955 33.1264C145.686 33.7814 146.575 34.1088 147.623 34.1088C149.182 34.1088 150.267 33.4539 150.875 32.144H157.527C157.186 33.4781 156.564 34.6788 155.663 35.7462C154.786 36.8135 153.677 37.6503 152.337 38.2567C150.998 38.8631 149.499 39.1663 147.842 39.1663C145.844 39.1663 144.065 38.7419 142.506 37.8929C140.947 37.0439 139.729 35.8311 138.851 34.2544C137.974 32.6777 137.536 30.8342 137.536 28.7239C137.536 26.6135 137.962 24.77 138.815 23.1933C139.692 21.6166 140.91 20.4038 142.47 19.5548C144.029 18.7059 145.819 18.2814 147.842 18.2814C149.816 18.2814 151.57 18.6937 153.105 19.5185C154.64 20.3432 155.833 21.5196 156.686 23.0478C157.564 24.576 158.002 26.3588 158.002 28.3964ZM151.606 26.7591C151.606 25.6917 151.241 24.8428 150.51 24.2121C149.779 23.5814 148.865 23.2661 147.769 23.2661C146.722 23.2661 145.832 23.5693 145.101 24.1757C144.394 24.7821 143.956 25.6433 143.785 26.7591H151.606Z" fill="white"/>
<defs>
<linearGradient id="paint0_linear_80_2904" x1="0.00219716" y1="5.92594" x2="23.381" y2="49.9602" gradientUnits="userSpaceOnUse">
<stop stop-color="#EB0029"/>
<stop offset="1" stop-color="#6B2AE6"/>
</linearGradient>
</defs>
</svg>
