<svg width="190" height="60" viewBox="0 0 190 60" fill="none" xmlns="http://www.w3.org/2000/svg">
<mask id="mask0_164_245" style="mask-type:alpha" maskUnits="userSpaceOnUse" x="0" y="0" width="62" height="60">
<ellipse cx="31" cy="30" rx="31" ry="30" fill="#D9D9D9"/>
</mask>
<g mask="url(#mask0_164_245)">
<path fill-rule="evenodd" clip-rule="evenodd" d="M23.8546 0.675638C6.78767 4.96294 -3.57864 22.2005 1.14236 38.4417C3.188 45.4775 10.1141 53.4965 17.413 57.279C21.81 59.5572 23.9186 59.9726 31.2347 59.9991C38.239 60.0234 40.7621 59.5877 44.6055 57.6914C49.4139 55.3176 58.6131 47.8908 55.3629 49.005C53.9551 49.4885 52.9902 48.2747 50.6693 43.1028C46.0742 32.8604 45.9838 32.2743 48.5729 29.5177C50.843 27.1013 50.847 27.0515 48.9223 24.7794C47.8537 23.5169 46.4216 22.1264 45.74 21.6896C44.9752 21.198 44.7325 19.7455 45.1052 17.8807C45.6232 15.2947 45.4018 14.8661 43.5502 14.8661C42.0906 14.8661 41.3918 15.505 41.3918 16.8376C41.3918 17.9223 40.95 19.0823 40.4106 19.4154C39.3045 20.099 33.2661 12.2618 33.2661 10.143C33.2661 9.38838 32.8091 8.77184 32.2504 8.77184C31.6918 8.77184 31.2347 9.57628 31.2347 10.5585C31.2347 11.5417 30.2922 12.9342 29.1403 13.6543C27.4157 14.731 27.1171 15.7579 27.4492 19.4703C27.7773 23.1411 27.6005 23.7688 26.4965 22.8526C25.4066 21.9476 25.1405 22.4798 25.1405 25.5645C25.1405 30.2612 21.0238 36.1807 17.7248 36.2284C15.542 36.2599 15.536 36.2945 17.4628 37.752C18.5475 38.5717 20.2041 39.2431 21.1447 39.2431C22.2477 39.2431 23.0806 40.3705 23.49 42.4172C24.3655 46.7969 24.333 47.0153 22.5291 48.8202C21.1305 50.2178 21.1234 50.4158 22.4692 50.4158C23.3132 50.4158 24.3746 49.845 24.8266 49.1462C25.6676 47.8471 25.7458 47.3352 26.0059 41.4045C26.1369 38.4163 26.3593 38.1471 27.7468 39.2989C29.2683 40.5615 32.2504 45.575 32.2504 46.87C32.2504 47.2103 31.7934 47.2062 31.2347 46.8609C30.6588 46.5044 30.219 47.3586 30.219 48.8324C30.219 51.7017 32.2291 52.5011 32.286 49.6541C32.3144 48.2686 32.6191 48.4108 33.6653 50.299C34.4037 51.6316 35.2712 52.2949 35.5941 51.7738C35.9161 51.2528 35.8267 50.2574 35.3971 49.5606C34.485 48.0858 40.241 36.0405 42.1536 35.422C42.8524 35.1955 43.4232 35.5053 43.4232 36.1086C43.4232 38.8063 49.0868 49.3605 50.4143 49.135C53.5224 48.6079 52.4275 51.2701 48.7953 53.074C43.3714 55.7696 30.2119 55.7392 24.7312 53.0191C5.15746 43.3079 5.60234 15.7 25.4777 6.67542C33.4033 3.07677 47.287 4.50384 52.788 9.48182C53.7895 10.3878 54.8469 10.8916 55.1374 10.6001C55.9601 9.77739 48.9873 4.80957 43.7757 2.50391C38.363 0.109889 29.3882 -0.71385 23.8546 0.675638ZM37.2691 21.8176C39.2517 26.1171 38.7317 31.3642 35.8176 36.4854C31.508 44.0596 29.0631 39.9774 32.1062 30.2866C32.7918 28.1018 32.8253 26.0257 32.1997 24.3802C30.9128 20.9969 30.9737 20.6424 32.7258 21.3148C35.0792 22.2178 35.393 20.4779 33.2143 18.612C31.2317 16.9148 30.6659 14.7574 31.8848 13.5396C32.4973 12.9271 34.8121 16.4851 37.2691 21.8176ZM31.2347 28.5182C31.2347 30.4409 30.7777 32.2956 30.219 32.641C29.6055 33.0198 29.2033 31.6354 29.2033 29.1459C29.2033 26.8789 29.6604 25.0232 30.219 25.0232C30.7777 25.0232 31.2347 26.5955 31.2347 28.5182Z" fill="#D3BA80"/>
</g>
<path d="M81.8645 16V21.9817H73.6899V46.6507H66.1746V21.9817H58V16H81.8645ZM84.142 34.4254C84.142 31.922 84.6108 29.7244 85.5484 27.8324C86.5153 25.9403 87.8191 24.485 89.4599 23.4662C91.1007 22.4474 92.9319 21.938 94.9536 21.938C96.6823 21.938 98.1911 22.2873 99.4803 22.9859C100.799 23.6845 101.81 24.6014 102.513 25.7366V22.2873H110.028V46.6507H102.513V43.2014C101.78 44.3366 100.755 45.2535 99.4364 45.9521C98.1472 46.6507 96.6383 47 94.9096 47C92.9172 47 91.1007 46.4906 89.4599 45.4718C87.8191 44.4239 86.5153 42.954 85.5484 41.062C84.6108 39.1408 84.142 36.9287 84.142 34.4254ZM102.513 34.469C102.513 32.6061 101.985 31.1361 100.931 30.0592C99.9051 28.9822 98.6453 28.4437 97.151 28.4437C95.6567 28.4437 94.3822 28.9822 93.3274 30.0592C92.3019 31.107 91.7892 32.5625 91.7892 34.4254C91.7892 36.2882 92.3019 37.7727 93.3274 38.8789C94.3822 39.9558 95.6567 40.4944 97.151 40.4944C98.6453 40.4944 99.9051 39.9558 100.931 38.8789C101.985 37.8019 102.513 36.3319 102.513 34.469ZM130.408 22.0254C133.279 22.0254 135.565 22.9568 137.264 24.8197C138.993 26.6535 139.857 29.1859 139.857 32.4169V46.6507H132.386V33.4211C132.386 31.791 131.961 30.5249 131.111 29.6225C130.261 28.7202 129.119 28.269 127.683 28.269C126.247 28.269 125.105 28.7202 124.255 29.6225C123.405 30.5249 122.981 31.791 122.981 33.4211V46.6507H115.465V22.2873H122.981V25.5183C123.742 24.4413 124.768 23.5972 126.057 22.9859C127.346 22.3455 128.796 22.0254 130.408 22.0254ZM152.111 40.4944H162.747V46.6507H143.717V40.7127L153.913 28.4437H143.805V22.2873H162.528V28.2254L152.111 40.4944ZM190 34.0761C190 34.7746 189.956 35.5023 189.868 36.2592H172.86C172.977 37.7727 173.46 38.9371 174.31 39.7521C175.189 40.538 176.259 40.931 177.518 40.931C179.393 40.931 180.698 40.1451 181.43 38.5732H189.429C189.018 40.1741 188.271 41.615 187.187 42.8958C186.132 44.1766 184.799 45.1808 183.188 45.9085C181.577 46.6361 179.775 47 177.782 47C175.38 47 173.24 46.4906 171.365 45.4718C169.491 44.453 168.025 42.9977 166.971 41.1056C165.916 39.2136 165.388 37.0014 165.388 34.469C165.388 31.9366 165.901 29.7244 166.927 27.8324C167.981 25.9403 169.447 24.485 171.322 23.4662C173.196 22.4474 175.35 21.938 177.782 21.938C180.155 21.938 182.265 22.4329 184.111 23.4225C185.957 24.4122 187.392 25.8239 188.418 27.6577C189.473 29.4916 190 31.631 190 34.0761ZM182.309 32.1113C182.309 30.8305 181.869 29.8118 180.99 29.0549C180.111 28.2981 179.013 27.9197 177.694 27.9197C176.435 27.9197 175.365 28.2836 174.486 29.0113C173.636 29.7389 173.108 30.7723 172.904 32.1113H182.309Z" fill="#161921"/>
</svg>
